<?xml version="1.0" encoding="utf-8"?>
<!-- Generator: Adobe Illustrator 17.1.0, SVG Export Plug-In . SVG Version: 6.00 Build 0)  -->
<!DOCTYPE svg PUBLIC "-//W3C//DTD SVG 1.1//EN" "http://www.w3.org/Graphics/SVG/1.1/DTD/svg11.dtd">
<svg version="1.1" id="Layer_1" xmlns="http://www.w3.org/2000/svg" xmlns:xlink="http://www.w3.org/1999/xlink" x="0px" y="0px"
	 viewBox="0 0 149.9 176.7" enable-background="new 0 0 149.9 176.7" xml:space="preserve">
<g>
	<path fill="#FFFF00" d="M111,0c-1,0-1.9,0.8-1.9,1.9s0.8,1.9,1.9,1.9c17.3,0,35.1,17.6,35.1,34.8c0,1,0.8,1.9,1.9,1.9
		s1.9-0.8,1.9-1.9C149.7,19.5,130,0,111,0z"/>
	<path fill="#FFFF00" d="M113,11.7c-1,0-1.9,0.8-1.9,1.9s0.8,1.9,1.9,1.9c10.7,0,21.6,10.9,21.6,21.4c0,1,0.8,1.9,1.9,1.9
		s1.9-0.8,1.9-1.9C138.3,24.3,125.6,11.7,113,11.7z"/>
	<path fill="#FFFF00" d="M124.1,36.8c0,1,0.8,1.9,1.9,1.9c1,0,1.9-0.8,1.9-1.9c0-7.3-7.3-14.4-14.6-14.4c-1,0-1.9,0.8-1.9,1.9
		s0.8,1.9,1.9,1.9C118.5,25.8,124.1,31.4,124.1,36.8z"/>
	<path fill="#FFFF00" d="M17.6,100.5c0.2-0.5,0.2-1,0-1.4c-3.6-8.5-5.3-17.6-5.3-26.8c0-1-0.8-1.9-1.9-1.9s-1.9,0.8-1.9,1.9
		c0,9.8,1.9,19.3,5.6,28.3c0.3,0.7,1,1.2,1.7,1.2c0.2,0,0.5,0,0.7-0.2C17.1,101.1,17.5,100.8,17.6,100.5z"/>
	<path fill="#FFFF00" d="M109,53.5c0.5-0.2,0.8-0.7,0.8-1.2l2-7.6c3.9,0,7.1-3.2,7.1-7.3c0-1.9-0.7-3.7-2.2-5.1s-3.2-2.2-5.1-2.2
		c-3.9,0-7.3,3.2-7.3,7.1l-7.5,2.2c-0.3,0.2-0.7,0.3-1,0.7l-53.1-8.8c-8.8-6.4-14.8-9.5-18.2-9.5c-1,0-2,0.3-2.7,0.8l-0.2,0.2
		C7.8,36.7,0,55.2,0,74.8s7.6,38.2,21.7,52.1c5.4,5.3,11.4,9.8,18.2,13.2l-8.7,31.9c-0.3,1.2,0,2.2,0.7,3.2c0.7,0.8,1.7,1.4,2.9,1.4
		h50.1c1.2,0,2.2-0.5,2.9-1.4s0.8-2,0.7-3.2L82.1,148c17.1-1.7,32.6-9,44.8-21.2c1.2-1.2,3.7-3.7-7.8-19.3L109,53.5z M118.1,121.9
		c-3.7-2-8.5-5.3-13.9-9.5c0.3-5.6,0.5-11.2,0.8-16.8c4.2,4.9,7.8,9.5,10.7,13.4L118.1,121.9z M114.2,101c-2.5-3.4-5.6-7-9-10.9
		l0.3-9c0.3-7.5,0.7-14.3,0.8-21.2L114.2,101z M106.9,40.4c1-0.2,1.5-1.2,1.4-2.2c0-0.3-0.2-0.5-0.2-0.8c0-2,1.7-3.6,3.7-3.6
		s3.7,1.7,3.7,3.6s-1.7,3.6-3.7,3.6c-0.3,0-0.5,0-0.8-0.2c-1-0.2-1.9,0.3-2.2,1.4l-1.7,6.1l-1.4-1.4l-0.2-1.2v1l-1-1l0.3-1l-0.7,0.7
		l-0.2-0.2l0.7-0.7l-0.8,0.3l-2.9-2.9L106.9,40.4z M69.9,59.1c2.4,2.2,4.8,4.6,7.3,7l1.7,1.7L67.2,79.3c-4.8-4.8-9.3-9.5-13.6-14.1
		L69.9,59.1z M51.1,62.3c-4.2-4.8-8.3-9.3-11.7-13.7c6.1-0.3,12.2-0.7,18.3-0.8c2.7,2.4,5.8,5.1,9.5,8.7L51.1,62.3z M81.6,70.3
		c2.7,2.5,5.4,5.4,8.3,8.3l-6.4,16.3c-4.4-4.1-9-8.5-13.6-12.9L81.6,70.3z M92.7,81.5c3.1,3.2,6.1,6.6,9,10
		c-0.3,5.9-0.5,12-0.8,18.2c-4.6-3.7-9.3-7.8-14.4-12.2L92.7,81.5z M94,77.7l9.2-23.4c-0.5,9-0.8,17.8-1.2,26.6l-0.2,5.4
		C99.1,83.2,96.6,80.3,94,77.7z M91.3,74.8c-2.4-2.5-4.9-4.9-7.1-7.1l16.3-16.1L91.3,74.8z M97.9,48.9L81.5,65.2l-1.7-1.7
		c-2-1.9-4.1-3.9-5.9-5.8L97.9,48.9z M70.8,55c-2.9-2.7-5.6-5.3-8.1-7.5l5.8-0.2c8.7-0.3,17.5-0.7,26.3-1.2L70.8,55z M90.5,42.8
		c-7.8,0.3-15.6,0.7-22.7,1l-8.8,0.3c-2.5-2.2-5.9-5.1-10-8.1L90.5,42.8z M53.5,44.3c-5.6,0.2-11.4,0.5-17.1,0.8
		c-3.9-4.9-7-9.3-9-12.9l13.9,2.4C45,37.3,49,40.6,53.5,44.3z M24.4,25.3c0,0,0.2,0,0.3,0c0.7,0,3.2,0.3,9.7,4.6l-9.2-1.5
		C24.3,26,24.4,25.3,24.4,25.3z M85,172.9H35l8.5-31.2c9.7,4.4,20.2,6.8,31.1,6.8c1.2,0,2.5,0,4.1-0.2L85,172.9z M124.4,124.2
		c-0.2,0-0.7,0.2-2.2-0.3l-1.4-7.5C124.7,122.7,124.2,124.2,124.4,124.2z M120,126.8c0.3,0.2,0.7,0.3,1,0.3
		c-11.4,10-25.5,16-40.6,17.3h-0.8c-1.7,0.2-3.4,0.2-5.1,0.2c-10.9,0-21.9-2.5-31.4-7.3l-1.4-0.7c-6.3-3.2-12-7.5-17.1-12.6
		C-1.9,97.8-3.1,55.8,21.6,28.2c4.1,12.4,29.2,39.5,44.3,54.6l0,0L66,83c22.2,22.1,43.3,39.2,53.6,43.6
		C119.8,126.8,120,126.8,120,126.8z"/>
	<path fill="#FFFF00" d="M20.4,104.9c-0.5-0.8-1.5-1.2-2.4-0.7c-0.5,0.2-0.7,0.7-0.8,1c-0.2,0.5-0.2,1,0.2,1.4
		c2.2,4.2,4.9,8.3,8,11.9c0.3,0.5,0.8,0.7,1.4,0.7c0.3,0,0.8-0.2,1.2-0.3c0.3-0.3,0.7-0.7,0.7-1.2s-0.2-1-0.3-1.4
		C24.9,112.7,22.6,109,20.4,104.9z"/>
</g>
</svg>
