<?xml version="1.0" encoding="utf-8"?>
<!-- Generator: Adobe Illustrator 23.0.3, SVG Export Plug-In . SVG Version: 6.00 Build 0)  -->
<svg version="1.1" id="Layer_1" xmlns="http://www.w3.org/2000/svg" xmlns:xlink="http://www.w3.org/1999/xlink" x="0px" y="0px"
	 viewBox="0 0 200 200" style="enable-background:new 0 0 200 200;" xml:space="preserve">
<style type="text/css">
	.st0{fill:#FFFF00;}
</style>
<g>
	<path class="st0" d="M136.1,23.4c-1,0-1.9,0.8-1.9,1.9c0,1.1,0.8,1.9,1.9,1.9c17.3,0,35.1,17.6,35.1,34.8c0,1,0.8,1.9,1.9,1.9
		s1.9-0.8,1.9-1.9C174.8,42.9,155.1,23.4,136.1,23.4z"/>
	<path class="st0" d="M138.1,35.1c-1,0-1.9,0.8-1.9,1.9s0.8,1.9,1.9,1.9c10.7,0,21.6,10.9,21.6,21.4c0,1,0.8,1.9,1.9,1.9
		s1.9-0.8,1.9-1.9C163.4,47.7,150.6,35.1,138.1,35.1z"/>
	<path class="st0" d="M149.1,60.2c0,1,0.8,1.9,1.9,1.9c1,0,1.9-0.8,1.9-1.9c0-7.3-7.3-14.4-14.6-14.4c-1,0-1.9,0.8-1.9,1.9
		s0.8,1.9,1.9,1.9C143.6,49.2,149.1,54.8,149.1,60.2z"/>
	<path class="st0" d="M42.7,123.9c0.2-0.5,0.2-1,0-1.4c-3.6-8.5-5.3-17.6-5.3-26.8c0-1-0.8-1.9-1.9-1.9s-1.9,0.8-1.9,1.9
		c0,9.8,1.9,19.3,5.6,28.3c0.3,0.7,1,1.2,1.7,1.2c0.2,0,0.5,0,0.7-0.2C42.2,124.5,42.6,124.2,42.7,123.9z"/>
	<path class="st0" d="M134.1,76.9c0.5-0.2,0.8-0.7,0.8-1.2l2-7.6c3.9,0,7.1-3.2,7.1-7.3c0-1.9-0.7-3.7-2.2-5.1s-3.2-2.2-5.1-2.2
		c-3.9,0-7.3,3.2-7.3,7.1l-7.5,2.2c-0.3,0.2-0.7,0.3-1,0.7l-53.1-8.8C59,48.3,53,45.2,49.6,45.2c-1,0-2,0.3-2.7,0.8l-0.2,0.2
		c-13.8,13.9-21.6,32.4-21.6,52s7.6,38.2,21.7,52.1c5.4,5.3,11.4,9.8,18.2,13.2l-8.7,31.9c-0.3,1.2,0,2.2,0.7,3.2
		c0.7,0.8,1.7,1.4,2.9,1.4H110c1.2,0,2.2-0.5,2.9-1.4s0.8-2,0.7-3.2l-6.4-24c17.1-1.7,32.6-9,44.8-21.2c1.2-1.2,3.7-3.7-7.8-19.3
		L134.1,76.9z M143.1,145.3c-3.7-2-8.5-5.3-13.9-9.5c0.3-5.6,0.5-11.2,0.8-16.8c4.2,4.9,7.8,9.5,10.7,13.4L143.1,145.3z
		 M139.3,124.4c-2.5-3.4-5.6-7-9-10.9l0.3-9c0.3-7.5,0.7-14.3,0.8-21.2L139.3,124.4z M132,63.8c1-0.2,1.5-1.2,1.4-2.2
		c0-0.3-0.2-0.5-0.2-0.8c0-2,1.7-3.6,3.7-3.6s3.7,1.7,3.7,3.6s-1.7,3.6-3.7,3.6c-0.3,0-0.5,0-0.8-0.2c-1-0.2-1.9,0.3-2.2,1.4
		l-1.7,6.1l-1.4-1.4l-0.2-1.2v1l-1-1l0.3-1l-0.7,0.7l-0.2-0.2l0.7-0.7l-0.8,0.3l-2.9-2.9L132,63.8z M95,82.5c2.4,2.2,4.8,4.6,7.3,7
		l1.7,1.7l-11.7,11.5c-4.8-4.8-9.3-9.5-13.6-14.1L95,82.5z M76.2,85.6c-4.2-4.8-8.3-9.3-11.7-13.7c6.1-0.3,12.2-0.7,18.3-0.8
		c2.7,2.4,5.8,5.1,9.5,8.7L76.2,85.6z M106.7,93.7c2.7,2.5,5.4,5.4,8.3,8.3l-6.4,16.3c-4.4-4.1-9-8.5-13.6-12.9L106.7,93.7z
		 M117.8,104.9c3.1,3.2,6.1,6.6,9,10c-0.3,5.9-0.5,12-0.8,18.2c-4.6-3.7-9.3-7.8-14.4-12.2L117.8,104.9z M119.1,101l9.2-23.4
		c-0.5,9-0.8,17.8-1.2,26.6l-0.2,5.4C124.2,106.5,121.7,103.7,119.1,101z M116.4,98.2c-2.4-2.5-4.9-4.9-7.1-7.1L125.6,75L116.4,98.2
		z M123,72.3l-16.4,16.3l-1.7-1.7c-2-1.9-4.1-3.9-5.9-5.8L123,72.3z M95.9,78.4c-2.9-2.7-5.6-5.3-8.1-7.5l5.8-0.2
		c8.7-0.3,17.5-0.7,26.3-1.2L95.9,78.4z M115.6,66.2c-7.8,0.3-15.6,0.7-22.7,1l-8.8,0.3c-2.5-2.2-5.9-5.1-10-8.1L115.6,66.2z
		 M78.6,67.7c-5.6,0.2-11.4,0.5-17.1,0.8c-3.9-4.9-7-9.3-9-12.9L66.4,58C70.1,60.7,74.1,64,78.6,67.7z M49.5,48.7c0,0,0.2,0,0.3,0
		c0.7,0,3.2,0.3,9.7,4.6l-9.2-1.5C49.4,49.4,49.5,48.7,49.5,48.7z M110.1,196.2h-50l8.5-31.2c9.7,4.4,20.2,6.8,31.1,6.8
		c1.2,0,2.5,0,4.1-0.2L110.1,196.2z M149.5,147.6c-0.2,0-0.7,0.2-2.2-0.3l-1.4-7.5C149.8,146.1,149.3,147.6,149.5,147.6z
		 M145.1,150.2c0.3,0.2,0.7,0.3,1,0.3c-11.4,10-25.5,16-40.6,17.3h-0.8c-1.7,0.2-3.4,0.2-5.1,0.2c-10.9,0-21.9-2.5-31.4-7.3
		l-1.4-0.7c-6.3-3.2-12-7.5-17.1-12.6c-26.5-26.2-27.7-68.2-3-95.8C50.8,64,75.9,91,91,106.2l0,0l0.1,0.2
		c22.2,22.1,43.3,39.2,53.6,43.6C144.9,150.2,145.1,150.2,145.1,150.2z"/>
	<path class="st0" d="M45.5,128.3c-0.5-0.8-1.5-1.2-2.4-0.7c-0.5,0.2-0.7,0.7-0.8,1c-0.2,0.5-0.2,1,0.2,1.4c2.2,4.2,4.9,8.3,8,11.9
		c0.3,0.5,0.8,0.7,1.4,0.7c0.3,0,0.8-0.2,1.2-0.3c0.3-0.3,0.7-0.7,0.7-1.2s-0.2-1-0.3-1.4C50,136,47.7,132.4,45.5,128.3z"/>
</g>
</svg>
