<?xml version="1.0" encoding="utf-8"?>
<!-- Generator: Adobe Illustrator 23.0.3, SVG Export Plug-In . SVG Version: 6.00 Build 0)  -->
<svg version="1.1" id="Layer_1" xmlns="http://www.w3.org/2000/svg" xmlns:xlink="http://www.w3.org/1999/xlink" x="0px" y="0px"
	 viewBox="0 0 200 200" style="enable-background:new 0 0 200 200;" xml:space="preserve">
<style type="text/css">
	.st0{fill:#0092AA;}
</style>
<g>
	<path class="st0" d="M166.5,25.2H33.6c-2.2,0-4.1,1.9-4.1,4.1v156.1c0,2.2,1.9,4.1,4.1,4.1h18.3v6.4c0,2.2,1.9,4.1,4.1,4.1h25.3
		c2.2,0,4.1-1.9,4.1-4.1v-6.4h29.1v6.4c0,2.2,1.9,4.1,4.1,4.1h25.3c2.2,0,4.1-1.9,4.1-4.1v-6.4h18.5c2.2,0,4.1-1.9,4.1-4.1V29.3
		C170.5,26.9,168.7,25.2,166.5,25.2z M81.8,195.8c0,0.3-0.2,0.5-0.5,0.5H56c-0.3,0-0.5-0.2-0.5-0.5v-6.4h26.3V195.8L81.8,195.8z
		 M144.6,195.8c0,0.3-0.2,0.5-0.5,0.5h-25.3c-0.3,0-0.5-0.2-0.5-0.5v-6.4h26.3V195.8z M166.8,185.2c0,0.3-0.2,0.5-0.5,0.5h-20H33.6
		c-0.3,0-0.5-0.2-0.5-0.5V29.1c0-0.3,0.2-0.5,0.5-0.5h132.9c0.3,0,0.5,0.2,0.5,0.5v156.1H166.8z"/>
	<path class="st0" d="M100.1,103.4c-3.7,0-6.8,3.1-6.8,6.8s3.1,6.8,6.8,6.8s6.8-3.1,6.8-6.8S103.7,103.4,100.1,103.4z M100.1,113.3
		c-1.7,0-3.1-1.4-3.1-3.1s1.4-3.1,3.1-3.1s3.1,1.4,3.1,3.1S101.8,113.3,100.1,113.3z"/>
	<path class="st0" d="M143.5,137.4l1.7-3.1c0.5-0.7,0.5-1.7,0.3-2.5c-0.2-0.8-0.7-1.5-1.5-2l-25.2-14.7c0.5-1.7,0.7-3.4,0.7-5.1
		s-0.2-3.4-0.7-5.1l25.3-14.6c0.7-0.5,1.4-1.2,1.5-2s0.2-1.7-0.3-2.4l-1.7-3.1c-0.8-1.5-2.9-2-4.4-1.2l-25.4,14.7
		c-2.5-2.5-5.4-4.2-8.8-5.1V62c0-1.9-1.5-3.2-3.2-3.2h-3.4c-1.9,0-3.2,1.5-3.2,3.2v29.2c-3.4,0.8-6.4,2.7-8.8,5.1L61.1,81.7
		c-0.7-0.5-1.7-0.5-2.6-0.3c-0.8,0.2-1.5,0.8-2,1.5L54.8,86c-0.5,0.7-0.5,1.7-0.3,2.5s0.7,1.5,1.5,2l25.3,14.6
		c-0.5,1.7-0.7,3.4-0.7,5.1s0.2,3.4,0.7,5.1L56,129.9c-0.7,0.5-1.4,1.2-1.5,2c-0.2,0.8-0.2,1.7,0.3,2.4l1.7,3.1
		c0.5,0.7,1.2,1.4,2,1.5s1.7,0.2,2.4-0.3L86.2,124c2.4,2.5,5.4,4.2,8.8,5.1v29.2c0,1.9,1.5,3.2,3.2,3.2h3.4c1.9,0,3.2-1.5,3.2-3.2
		v-29.2c3.4-0.8,6.4-2.7,8.8-5.1l25.3,14.6C140.7,139.4,142.7,138.7,143.5,137.4z M108.9,98.3c0.2-0.3,0.3-0.8,0.2-1.4
		c1.5,1,2.9,2.5,4.1,4.1c-0.5-0.2-0.8,0-1.4,0.2l-1.3,0.7c-0.7-0.8-1.5-1.7-2.4-2.4L108.9,98.3z M106.9,95.8c-0.5,0.2-0.8,0.3-1,0.8
		l-0.7,1.4c-1-0.5-2-0.7-3.2-0.8v-1.5c0-0.5-0.2-0.8-0.5-1.2C103.3,94.4,105.2,95,106.9,95.8z M98.6,62.4h2.7v28.3c-1,0-1.9,0-2.7,0
		V62.4z M98.7,94.3c-0.3,0.3-0.5,0.7-0.5,1.2V97C97,97.2,96,97.5,95,97.8l-0.7-1.4c-0.2-0.3-0.7-0.7-1-0.8
		C94.8,95,96.7,94.4,98.7,94.3z M90.9,97c-0.2,0.5,0,0.8,0.2,1.4l0.7,1.4c-0.8,0.7-1.7,1.5-2.4,2.4l-1.2-0.7
		c-0.3-0.2-0.8-0.3-1.4-0.2C88.1,99.5,89.4,98.2,90.9,97z M59.4,135.2l-1.4-2.4l24.4-14.1c0.3,0.8,0.8,1.7,1.4,2.4L59.4,135.2z
		 M82.4,101.6L58,87.5l1.4-2.4l24.4,14.1C83.3,100,83,100.7,82.4,101.6z M85.7,103.3c0.2,0.3,0.3,0.8,0.8,1l1.4,0.7
		c-0.5,1-0.7,2.2-0.8,3.2h-1.6c-0.5,0-0.8,0.2-1.2,0.5C84.3,106.8,84.8,105,85.7,103.3z M85.7,117c-0.8-1.7-1.4-3.6-1.5-5.4
		c0.3,0.3,0.7,0.5,1.2,0.5h1.5c0.2,1.2,0.5,2.2,0.8,3.2l-1.4,0.7C86,116.2,85.8,116.5,85.7,117z M91.1,121.9
		c-0.2,0.3-0.3,0.8-0.2,1.4c-1.5-1-2.9-2.5-4.1-4.1c0.5,0.2,0.8,0,1.4-0.2l1.2-0.7c0.7,0.8,1.5,1.7,2.4,2.4L91.1,121.9z M93.1,124.5
		c0.5-0.2,0.8-0.3,1-0.8l0.7-1.4c1,0.5,2,0.7,3.2,0.8v1.5c0,0.5,0.2,0.8,0.5,1.2C96.7,125.8,94.8,125.3,93.1,124.5z M101.5,157.9
		h-2.9v-28.3c1,0,1.9,0,2.7,0v28.3H101.5z M101.3,126c0.3-0.3,0.5-0.7,0.5-1.2v-1.5c1.2-0.2,2.2-0.5,3.2-0.8l0.7,1.4
		c0.2,0.3,0.7,0.7,1,0.8C105.2,125.3,103.3,125.8,101.3,126z M100.1,119.9v0.8V119.9c-5.4,0-9.7-4.4-9.7-9.7c0-5.4,4.4-9.7,9.7-9.7
		s9.7,4.4,9.7,9.7S105.4,119.9,100.1,119.9z M109.1,123.3c0.2-0.5,0-0.8-0.2-1.4l-0.7-1.4c0.8-0.7,1.7-1.5,2.4-2.4l1.2,0.7
		c0.3,0.2,0.8,0.3,1.4,0.2C112,120.7,110.6,122.1,109.1,123.3z M114.4,117c-0.2-0.3-0.3-0.8-0.8-1l-1.4-0.7c0.5-1,0.7-2.2,0.8-3.2
		h1.5c0.5,0,0.8-0.2,1.2-0.5C115.7,113.4,115.2,115.3,114.4,117z M114.7,108.4h-1.5c-0.2-1.2-0.5-2.2-0.8-3.2l1.4-0.7
		c0.3-0.2,0.7-0.7,0.8-1c0.8,1.7,1.4,3.6,1.5,5.4C115.5,108.5,115,108.4,114.7,108.4z M140.7,85.1l1.4,2.4l-24.5,14.1
		c-0.3-0.8-0.8-1.7-1.4-2.4L140.7,85.1z M140.7,135.2l-24.5-14.1c0.5-0.8,1-1.5,1.4-2.4l24.4,14.1L140.7,135.2z"/>
	<path class="st0" d="M47.1,33.5c-3.4,0-6.1,2.7-6.1,6.1s2.7,6.1,6.1,6.1c3.4,0,6.1-2.7,6.1-6.1C53.3,36.2,50.5,33.5,47.1,33.5z
		 M44.8,39.6l2.4,2.4C45.8,42,44.8,41,44.8,39.6z M49.7,39.6l-2.5-2.5C48.7,37.1,49.7,38.1,49.7,39.6L49.7,39.6z"/>
	<path class="st0" d="M148.5,33.5c-3.4,0-6.1,2.7-6.1,6.1s2.7,6.1,6.1,6.1s6.1-2.7,6.1-6.1C154.6,36.2,151.9,33.5,148.5,33.5z
		 M146.8,41.3h3.4C149.3,42.2,147.6,42.2,146.8,41.3z M146.8,37.8c0.8-0.8,2.5-0.8,3.4,0H146.8z"/>
	<path class="st0" d="M152.2,167.9c-1-0.8-2.4-1.2-3.7-1.2c-1.9,0-3.7,0.8-4.9,2.4c-2,2.7-1.5,6.4,1.2,8.5c1,0.8,2.4,1.2,3.7,1.2
		c1.9,0,3.7-0.8,4.9-2.4c1-1.4,1.4-2.9,1.2-4.6C154.4,170.3,153.6,168.9,152.2,167.9z M148.5,170.3c0.5,0,1,0.2,1.4,0.5l-3.2,0.5
		C147.1,170.6,147.8,170.3,148.5,170.3z M150.5,174.4c-0.8,1-2.5,1.2-3.6,0.5l0,0L150.5,174.4C150.5,174.2,150.5,174.4,150.5,174.4z
		"/>
	<path class="st0" d="M50.7,167.9c-1-0.7-2.2-1.2-3.6-1.2c-2,0-3.9,0.8-4.9,2.4c-1,1.4-1.4,2.9-1,4.6c0.2,1.5,1.2,3.1,2.4,3.9
		c1,0.8,2.4,1.2,3.6,1.2c1.9,0,3.7-1,4.9-2.5c1-1.4,1.4-2.9,1-4.6C52.9,170.3,52.1,168.8,50.7,167.9z M44.8,173.2
		c-0.2-0.7,0-1.4,0.5-1.9c0.3-0.5,1-0.8,1.5-1L44.8,173.2z M49.2,174.2c-0.3,0.5-0.8,0.8-1.5,1l2-2.7
		C49.7,173,49.5,173.7,49.2,174.2z"/>
</g>
</svg>
