<?xml version="1.0" encoding="utf-8"?>
<!-- Generator: Adobe Illustrator 17.1.0, SVG Export Plug-In . SVG Version: 6.00 Build 0)  -->
<!DOCTYPE svg PUBLIC "-//W3C//DTD SVG 1.1//EN" "http://www.w3.org/Graphics/SVG/1.1/DTD/svg11.dtd">
<svg version="1.1" id="Layer_1" xmlns="http://www.w3.org/2000/svg" xmlns:xlink="http://www.w3.org/1999/xlink" x="0px" y="0px"
	 viewBox="0 0 550.9 121.9" enable-background="new 0 0 550.9 121.9" xml:space="preserve">
<g>
	<linearGradient id="SVGID_1_" gradientUnits="userSpaceOnUse" x1="5.010169e-005" y1="60.9375" x2="353.949" y2="60.9375">
		<stop  offset="0" style="stop-color:#E2E4F7"/>
		<stop  offset="1" style="stop-color:#F9E1F3"/>
	</linearGradient>
	<path fill="url(#SVGID_1_)" d="M40.6,40.6c9.4,0,18-3.4,24.9-8.8c0,0.5-0.2,1-0.2,1.5c0,28.9,23.4,52.2,52.2,52.2
		c5,0,9.8-0.9,14.4-2.3c8.9,22.5,30.8,38.5,56.4,38.5c27,0,49.8-17.6,57.7-42c6.8,3.9,14.5,6.4,22.9,6.4c25.2,0,45.6-20.4,45.6-45.6
		c0,0,0-0.1,0-0.1C336.5,39.7,353.9,22,353.9,0H0C0,22.4,18.2,40.6,40.6,40.6z"/>
	<linearGradient id="SVGID_2_" gradientUnits="userSpaceOnUse" x1="342.1718" y1="30.9387" x2="550.2661" y2="30.9387">
		<stop  offset="0" style="stop-color:#B3A0C2"/>
		<stop  offset="1" style="stop-color:#EAC4DE"/>
	</linearGradient>
	<path fill="url(#SVGID_2_)" d="M342.2,0c5.5,18.1,22.3,31.3,42.2,31.3c4.3,0,8.3-0.8,12.2-1.9c7.5,19,26,32.5,47.7,32.5
		c22.8,0,42.1-14.9,48.7-35.5c5.7,3.3,12.3,5.4,19.3,5.4c19,0,34.7-13.7,37.9-31.8H342.2z"/>
	<linearGradient id="SVGID_3_" gradientUnits="userSpaceOnUse" x1="346.2408" y1="28.2154" x2="550.8864" y2="28.2154">
		<stop  offset="0" style="stop-color:#EFFFFF"/>
		<stop  offset="1" style="stop-color:#F9E1F3"/>
	</linearGradient>
	<path fill="url(#SVGID_3_)" d="M346.2,0c7,15.2,22.3,25.8,40.1,25.8c4.3,0,8.3-0.8,12.2-1.9c7.5,19,26,32.5,47.7,32.5
		c22.8,0,42.1-14.9,48.7-35.5c5.7,3.3,12.3,5.4,19.3,5.4c17,0,31.5-11,36.6-26.3H346.2z"/>
</g>
</svg>
