<?xml version="1.0" encoding="utf-8"?>
<!-- Generator: Adobe Illustrator 17.1.0, SVG Export Plug-In . SVG Version: 6.00 Build 0)  -->
<!DOCTYPE svg PUBLIC "-//W3C//DTD SVG 1.1//EN" "http://www.w3.org/Graphics/SVG/1.1/DTD/svg11.dtd">
<svg version="1.1" id="Layer_1" xmlns="http://www.w3.org/2000/svg" xmlns:xlink="http://www.w3.org/1999/xlink" x="0px" y="0px"
	 viewBox="0 0 191.3 160.8" enable-background="new 0 0 191.3 160.8" xml:space="preserve">
<g>
	<g>
		<path fill="#FF8800" d="M155.6,60.5h-23.7c-1.2,0-2.2,1-2.2,2.4v16.7c0,1.4,1,2.4,2.2,2.4h23.7c1.2,0,2.2-1,2.2-2.4V62.9
			C158,61.6,157,60.5,155.6,60.5z M153.4,77.3h-19.1V65.1h19.1V77.3z M35.2,91.2h138.2c1.2,0,2.2-1,2.2-2.4V50.4
			c0-1.4-1-2.4-2.2-2.4H159V2.4c0-1.4-1-2.4-2.2-2.4h-32c-1.2,0-2.2,1-2.2,2.4V48H35.2C34,48,33,49,33,50.4v38.4
			C32.8,90.1,33.8,91.2,35.2,91.2z M37.4,52.8h87.4c1.2,0,2.2-1,2.2-2.4V4.7h27.4v45.7c0,1.4,1,2.4,2.2,2.4H171v33.8H37.4V52.8z
			 M115.9,60.5H92.2c-1.2,0-2.2,1-2.2,2.4v16.7c0,1.4,1,2.4,2.2,2.4h23.7c1.2,0,2.2-1,2.2-2.4V62.9
			C118.2,61.6,117.2,60.5,115.9,60.5z M113.7,77.3H94.5V65.1h19.1C113.7,65.1,113.7,77.3,113.7,77.3z M76.4,60.5H52.8
			c-1.2,0-2.2,1-2.2,2.4v16.7c0,1.4,1,2.4,2.2,2.4h23.7c1.2,0,2.2-1,2.2-2.4V62.9C78.8,61.6,77.8,60.5,76.4,60.5z M74.2,77.3H55
			V65.1h19.1v12.2H74.2z M189.1,95.6h-0.2l0,0H2.2c-1.2,0-2.2,1-2.2,2.4c0,0.3,0,0.7,0.2,1l21,60.4c0.3,1,1.2,1.5,2.2,1.5l0,0h159.1
			c1.2,0,2.2-1,2.2-2.2l6.6-60.4C191.1,96.9,190.3,95.7,189.1,95.6z M180.1,156.1H24.7l-19.3-56h181L180.1,156.1z"/>
	</g>
</g>
</svg>
