<?xml version="1.0" encoding="utf-8"?>
<!-- Generator: Adobe Illustrator 17.1.0, SVG Export Plug-In . SVG Version: 6.00 Build 0)  -->
<!DOCTYPE svg PUBLIC "-//W3C//DTD SVG 1.1//EN" "http://www.w3.org/Graphics/SVG/1.1/DTD/svg11.dtd">
<svg version="1.1" id="Layer_1" xmlns="http://www.w3.org/2000/svg" xmlns:xlink="http://www.w3.org/1999/xlink" x="0px" y="0px"
	 viewBox="0 0 195.5 160" enable-background="new 0 0 195.5 160" xml:space="preserve">
<g>
	<path fill="#FF8800" d="M191.3,106.9h-64.9c-2.5,0-4.4,2-4.4,4.4l0,19.1l-48.8,0.2v-19.1c0-2.5-2-4.4-4.4-4.4H4.4
		c-2.5,0-4.4,2-4.4,4.4v44.2c0,2.5,2,4.4,4.4,4.4h186.7c2.5,0,4.4-2,4.4-4.4v-44.2C195.7,108.9,193.7,106.9,191.3,106.9z
		 M191.1,155.6H4.6l-0.2-44.2l64.1,0v19c0,2.5,2,4.4,4.4,4.4h49c2.5,0,4.4-2,4.4-4.4l0-19l64.9,0V155.6z"/>
	<path fill="#FF8800" d="M123.3,17.1H72.6c-2.4,0-4.2,1.9-4.2,4.2v13.2c0,2.4,1.9,4.2,4.2,4.2h50.7c2.4,0,4.2-1.9,4.2-4.2V21.3
		C127.5,18.9,125.7,17.1,123.3,17.1z M123,34.2H72.7V21.6H123V34.2z"/>
	<path fill="#FF8800" d="M191.3,37h-45.2V4.4c0-2.5-2-4.4-4.4-4.4H53.8c-2.5,0-4.4,2-4.4,4.4v30.3h-45c-2.5,0-4.4,2-4.4,4.4v60.4
		c0,2.5,2,4.4,4.4,4.4h186.7c2.5,0,4.4-2,4.4-4.4v-58C195.7,38.9,193.7,37,191.3,37z M191.1,99.6H4.6L4.4,39.2h49.4L53.6,4.4
		l87.8-0.2v37l49.6-0.2v58.5H191.1z"/>
	<path fill="#FF8800" d="M113.5,127.7c2.7,0,4.9-2.2,4.9-4.9v-11c0-2.7-2.2-4.9-4.9-4.9H82.3c-2.7,0-4.9,2.2-4.9,4.9v11
		c0,2.7,2.2,4.9,4.9,4.9H113.5z M82,122.8v-11c0-0.2,0.2-0.3,0.3-0.3h31.2c0.2,0,0.3,0.2,0.3,0.3v11c0,0.2-0.2,0.3-0.3,0.3H82.3
		C82.2,123.1,82,123,82,122.8z"/>
</g>
</svg>
