<?xml version="1.0" encoding="utf-8"?>
<!-- Generator: Adobe Illustrator 23.0.3, SVG Export Plug-In . SVG Version: 6.00 Build 0)  -->
<svg version="1.1" id="Layer_1" xmlns="http://www.w3.org/2000/svg" xmlns:xlink="http://www.w3.org/1999/xlink" x="0px" y="0px"
	 viewBox="0 0 200 200" style="enable-background:new 0 0 200 200;" xml:space="preserve">
<style type="text/css">
	.st0{fill:#FF8800;}
</style>
<g>
	<path class="st0" d="M193.6,146.8h-64.9c-2.5,0-4.4,2-4.4,4.4v19.1l-48.8,0.2v-19.1c0-2.5-2-4.4-4.4-4.4H6.7c-2.5,0-4.4,2-4.4,4.4
		v44.2c0,2.5,2,4.4,4.4,4.4h186.7c2.5,0,4.4-2,4.4-4.4v-44.2C197.9,148.8,195.9,146.8,193.6,146.8z M193.4,195.5H6.8l-0.2-44.2h64.1
		v19c0,2.5,2,4.4,4.4,4.4h49c2.5,0,4.4-2,4.4-4.4v-19h64.9v44.2H193.4z"/>
	<path class="st0" d="M125.6,57H74.8c-2.4,0-4.2,1.9-4.2,4.2v13.2c0,2.4,1.9,4.2,4.2,4.2h50.7c2.4,0,4.2-1.9,4.2-4.2V61.2
		C129.8,58.8,127.9,57,125.6,57z M125.3,74.1H74.9V61.5h50.3V74.1z"/>
	<path class="st0" d="M193.6,76.9h-45.2V44.3c0-2.5-2-4.4-4.4-4.4H56c-2.5,0-4.4,2-4.4,4.4v30.3h-45c-2.5,0-4.4,2-4.4,4.4v60.4
		c0,2.5,2,4.4,4.4,4.4h186.7c2.5,0,4.4-2,4.4-4.4v-58C197.9,78.8,195.9,76.9,193.6,76.9z M193.4,139.5H6.8L6.7,79.1h49.4l-0.2-34.8
		l87.8-0.2v37l49.6-0.2v58.5h0.1V139.5z"/>
	<path class="st0" d="M115.8,167.6c2.7,0,4.9-2.2,4.9-4.9v-11c0-2.7-2.2-4.9-4.9-4.9H84.6c-2.7,0-4.9,2.2-4.9,4.9v11
		c0,2.7,2.2,4.9,4.9,4.9H115.8z M84.3,162.7v-11c0-0.2,0.2-0.3,0.3-0.3h31.2c0.2,0,0.3,0.2,0.3,0.3v11c0,0.2-0.2,0.3-0.3,0.3H84.6
		C84.4,163,84.3,162.9,84.3,162.7z"/>
</g>
</svg>
