<?xml version="1.0" encoding="utf-8"?>
<!-- Generator: Adobe Illustrator 23.0.3, SVG Export Plug-In . SVG Version: 6.00 Build 0)  -->
<svg version="1.1" id="Layer_1" xmlns="http://www.w3.org/2000/svg" xmlns:xlink="http://www.w3.org/1999/xlink" x="0px" y="0px"
	 viewBox="0 0 200 200" style="enable-background:new 0 0 200 200;" xml:space="preserve">
<style type="text/css">
	.st0{fill:#FF8800;}
</style>
<g>
	<g>
		<path class="st0" d="M160,99.6h-23.7c-1.2,0-2.2,1-2.2,2.4v16.7c0,1.4,1,2.4,2.2,2.4H160c1.2,0,2.2-1,2.2-2.4V102
			C162.4,100.7,161.4,99.6,160,99.6z M157.8,116.4h-19.1v-12.2h19.1V116.4z M39.5,130.3h138.2c1.2,0,2.2-1,2.2-2.4V89.5
			c0-1.4-1-2.4-2.2-2.4h-14.4V41.5c0-1.4-1-2.4-2.2-2.4h-32c-1.2,0-2.2,1-2.2,2.4v45.6H39.5c-1.2,0-2.2,1-2.2,2.4v38.4
			C37.1,129.2,38.1,130.3,39.5,130.3z M41.8,91.9h87.4c1.2,0,2.2-1,2.2-2.4V43.8h27.4v45.7c0,1.4,1,2.4,2.2,2.4h14.4v33.8H41.8V91.9
			z M120.3,99.6H96.5c-1.2,0-2.2,1-2.2,2.4v16.7c0,1.4,1,2.4,2.2,2.4h23.7c1.2,0,2.2-1,2.2-2.4V102
			C122.5,100.7,121.5,99.6,120.3,99.6z M118,116.4H98.8v-12.2h19.1C118,104.2,118,116.4,118,116.4z M80.8,99.6H57.1
			c-1.2,0-2.2,1-2.2,2.4v16.7c0,1.4,1,2.4,2.2,2.4h23.7c1.2,0,2.2-1,2.2-2.4V102C83.2,100.7,82.2,99.6,80.8,99.6z M78.5,116.4H59.3
			v-12.2h19.1L78.5,116.4C78.4,116.4,78.5,116.4,78.5,116.4z M193.5,134.7h-0.2l0,0H6.5c-1.2,0-2.2,1-2.2,2.4c0,0.3,0,0.7,0.2,1
			l21,60.4c0.3,1,1.2,1.5,2.2,1.5l0,0h159.1c1.2,0,2.2-1,2.2-2.2l6.6-60.4C195.5,136,194.6,134.8,193.5,134.7z M184.5,195.2H29
			l-19.3-56h181L184.5,195.2z"/>
	</g>
</g>
</svg>
