<?xml version="1.0" encoding="utf-8"?>
<!-- Generator: Adobe Illustrator 17.1.0, SVG Export Plug-In . SVG Version: 6.00 Build 0)  -->
<!DOCTYPE svg PUBLIC "-//W3C//DTD SVG 1.1//EN" "http://www.w3.org/Graphics/SVG/1.1/DTD/svg11.dtd">
<svg version="1.1" id="Layer_1" xmlns="http://www.w3.org/2000/svg" xmlns:xlink="http://www.w3.org/1999/xlink" x="0px" y="0px"
	 viewBox="0 0 169.3 177.6" enable-background="new 0 0 169.3 177.6" xml:space="preserve">
<g>
	<g>
		<path fill="#FF8800" d="M143.4,83.7c-0.8-0.3-1.9-0.5-2.9-0.7l0,0c-0.2,0-0.3,0-0.3,0c-1.2,0-2,1-2,2v0.2c0,5.6-0.7,11-1.9,16.1
			c-1.4,5.2-3.2,10.3-5.6,15.2l0,0c0,0.2-0.2,0.2-0.2,0.3c-0.3,1.2,0.2,2.4,1.4,2.9c1,0.3,1.9,0.5,3,0.7c1,0.2,2,0.3,3,0.3
			c2,0,3.9-0.3,5.6-0.8c2.9-0.8,5.6-2.5,7.6-4.7l0,0l0,0c3.4-3.4,5.4-8.1,5.4-13.4c0-4.7-1.7-9-4.6-12.3
			C149.7,87,146.8,84.9,143.4,83.7z M148,112.2L148,112.2c-1.4,1.4-2.9,2.4-4.6,3c-1.7,0.7-3.6,1.2-5.6,1.2c-0.7,0-1.4,0-2-0.2
			c2-4.4,3.6-9,4.7-13.7c1.2-4.7,1.9-9.5,2-14.4c0.3,0.2,0.7,0.2,1,0.3c2,0.8,3.9,2.2,5.2,3.9c2.2,2.5,3.4,5.8,3.4,9.5
			C152,105.9,150.5,109.5,148,112.2z M160.5,79.9c-4.4-4.7-10.3-8.1-17.1-9.3c-1.2-0.2-2.5-0.3-3.9-0.5c-0.2,0-0.3,0-0.5,0l0,0H3.6
			c-1.2,0-2,0.8-2.2,2c-0.3,2.2-0.7,4.4-0.8,6.6c-0.2,2.4-0.3,4.6-0.3,6.8c0,20,7.9,38.1,20.8,51.1s30.8,21.1,50.4,21.1
			c4.6,0,9-0.5,13.4-1.4c6.3-1.2,12.2-3.2,17.8-5.9c9.3-4.6,17.4-11.2,23.8-19.1c1.5,0.7,3.2,1.2,4.9,1.5c2.2,0.5,4.4,0.7,6.8,0.7
			c1.9,0,3.7-0.2,5.6-0.5c6.4-1.2,12.2-4.4,16.6-8.8c5.8-5.8,9.1-13.7,9.1-22.5C169.1,93.4,165.9,85.6,160.5,79.9z M157,121.3
			c-3.6,3.7-8.3,6.3-13.5,7.4c-1.9,0.3-3.7,0.7-5.6,0.7c-2,0-4.1-0.2-5.8-0.7c-1.9-0.5-3.7-1-5.6-1.9l0,0c-0.8-0.5-2-0.2-2.7,0.7
			c-6.3,8.1-14.2,14.7-23.3,19.1c-4.9,2.4-10.3,4.2-15.9,5.4c-4.2,0.8-8.8,1.4-13.4,1.4c-18.4,0-35.2-7.6-47.2-20
			c-12-12.3-19.6-29.3-19.6-48c0-2.2,0.2-4.4,0.3-6.4c0.2-1.5,0.3-3,0.5-4.6h133.4h0.2c1.5,0,3,0.3,4.4,0.5
			c5.4,1.2,10.1,3.9,13.9,7.9c4.6,4.9,7.4,11.5,7.4,18.9C164.7,109.5,161.9,116.4,157,121.3z M151,160.7H2.2c-1.2,0-2.2,1-2.2,2.2
			v12.5c0,1.2,1,2.2,2.2,2.2H151c1.2,0,2.2-1,2.2-2.2v-12.5C153.2,161.7,152.2,160.7,151,160.7z M148.8,173.2H4.4v-8.1h144.4V173.2z
			 M37.2,28.6L37.2,28.6c0.3,1,1.2,2.5,2.2,4.6c1.7,3.2,3.9,7.4,5.2,11c0.8,2.5,1.2,4.4,0.3,4.7c-4.2,1.5-6.1,4.9-6.4,8.5
			c0,1.4,0.2,2.5,0.5,3.7c0.3,1.2,1,2.4,1.9,3.4l0,0l0,0c2,2.4,4.9,3.7,8.6,2.5c0.2,0,0.3-0.2,0.5-0.2c5.4-1.9,9.1-5.6,11.3-10.1
			c2.2-4.9,2.7-10.8,1.2-16.6c-1-4.2-3-7.9-5.1-11.5v-0.2c-0.5-1-1-2-1.7-3c-0.7-1.2-1.5-3-1.9-4.9c-0.2-1.2-0.2-2.4,0.5-2.9
			c3.7-2.4,4.9-6.1,4.2-9.5C58.5,7,58,5.6,57.3,4.6s-1.5-2-2.5-2.9c-1.5-1.2-3.4-1.9-5.4-1.7C48,0,46.5,0.5,45,1.5
			c-4.6,2.9-7.3,6.9-8.6,11.5C35.2,17.8,35.5,23.4,37.2,28.6L37.2,28.6z M40.8,14.2c1-3.6,3.2-6.8,6.8-9c0.7-0.5,1.4-0.7,2-0.7
			c1-0.2,2,0.2,2.9,0.8c0.5,0.3,1,1,1.4,1.5c0.3,0.7,0.7,1.4,0.8,2c0.3,1.7-0.3,3.7-2.2,4.9c-1.9,1.2-2.7,3-2.7,4.9v1
			c0,0.5,0.2,1,0.2,1.5c0.5,2.4,1.5,4.7,2.2,6.1c0.5,1,1,2,1.7,3v0.2c1.9,3.4,3.7,6.9,4.6,10.5c1.2,4.7,0.8,9.6-1,13.5
			c-1.5,3.2-4.1,5.9-7.9,7.4c-0.3,0.2-0.5,0.2-0.8,0.3c-2,0.7-3.6,0.2-4.4-1l0,0c-0.5-0.5-0.7-1.2-1-1.9c-0.2-0.7-0.3-1.5-0.3-2.2
			c0.2-1.9,1.2-3.7,3.4-4.6c1.9-0.7,2.9-1.9,3.2-3.6c0.2-1,0.2-2.2,0-3.6c-0.2-1-0.5-2.2-0.8-3.4c-1.4-3.9-3.7-8.3-5.4-11.7
			c-1-1.9-1.7-3.2-2-3.9l0,0C39.9,22.9,39.6,18.3,40.8,14.2z M75.9,28.6L75.9,28.6c0.3,1,1.2,2.5,2.2,4.6c1.7,3.2,3.9,7.4,5.2,11
			c0.8,2.4,1.2,4.4,0.3,4.7c-4.2,1.5-6.1,4.9-6.4,8.5c0,1.4,0.2,2.5,0.5,3.7c0.3,1.2,1,2.4,1.9,3.4l0.2,0.2c2,2.2,4.9,3.6,8.6,2.4
			c0.2,0,0.3-0.2,0.5-0.2c5.4-1.9,9.1-5.6,11.3-10.1v-0.2c2.2-4.9,2.5-10.7,1.2-16.4c-1-4.2-3-7.9-5.1-11.5c-0.5-1-1.2-2-1.7-3.2
			c-0.7-1.2-1.5-3-1.9-4.9c-0.2-1.2-0.2-2.4,0.5-2.9c3.7-2.4,4.9-6.1,4.2-9.5c-0.2-1.2-0.7-2.5-1.4-3.6s-1.5-2-2.5-2.9
			c-1.5-1.2-3.4-1.9-5.4-1.7c-1.4,0-2.9,0.5-4.4,1.5c-4.6,2.9-7.3,6.9-8.6,11.5C73.9,17.8,74.2,23.4,75.9,28.6L75.9,28.6z
			 M79.7,14.2c1-3.6,3.2-6.8,6.8-9c0.7-0.5,1.4-0.7,2-0.7c1-0.2,2,0.2,2.9,0.8c0.5,0.3,1,1,1.4,1.5c0.3,0.7,0.7,1.4,0.8,2
			c0.3,1.7-0.3,3.7-2.2,4.9c-1.9,1.2-2.7,3-2.7,4.9v1c0,0.5,0.2,1,0.2,1.5c0.5,2.4,1.5,4.7,2.2,6.1c0.5,1,1.2,2.2,1.7,3.2
			c1.9,3.4,3.7,6.9,4.6,10.5c1.2,4.7,0.8,9.5-0.8,13.5v0.2c-1.5,3.2-4.1,5.9-7.9,7.4c-0.3,0.2-0.5,0.2-0.8,0.3
			c-1.9,0.7-3.4,0.2-4.4-1v-0.2c-0.5-0.5-0.7-1.2-1-1.9c-0.2-0.7-0.3-1.5-0.3-2.2c0.2-1.9,1.2-3.7,3.4-4.6c1.9-0.7,2.9-1.9,3.2-3.6
			c0.2-1,0.2-2.2,0-3.4c-0.2-1-0.5-2.2-0.8-3.4c-1.4-3.9-3.7-8.3-5.4-11.7c-1-1.9-1.7-3.2-2-3.9l0,0C78.6,22.9,78.5,18.3,79.7,14.2z
			"/>
	</g>
</g>
</svg>
