<?xml version="1.0" encoding="utf-8"?>
<!-- Generator: Adobe Illustrator 23.0.3, SVG Export Plug-In . SVG Version: 6.00 Build 0)  -->
<svg version="1.1" id="Layer_1" xmlns="http://www.w3.org/2000/svg" xmlns:xlink="http://www.w3.org/1999/xlink" x="0px" y="0px"
	 viewBox="0 0 200 200" style="enable-background:new 0 0 200 200;" xml:space="preserve">
<style type="text/css">
	.st0{fill:#FF8800;}
</style>
<g>
	<g>
		<path class="st0" d="M158.8,106.1c-0.8-0.3-1.9-0.5-2.9-0.7l0,0c-0.2,0-0.3,0-0.3,0c-1.2,0-2,1-2,2v0.2c0,5.6-0.7,11-1.9,16.1
			c-1.4,5.2-3.2,10.3-5.6,15.2l0,0c0,0.2-0.2,0.2-0.2,0.3c-0.3,1.2,0.2,2.4,1.4,2.9c1,0.3,1.9,0.5,3,0.7c1,0.2,2,0.3,3,0.3
			c2,0,3.9-0.3,5.6-0.8c2.9-0.8,5.6-2.5,7.6-4.7l0,0l0,0c3.4-3.4,5.4-8.1,5.4-13.4c0-4.7-1.7-9-4.6-12.3
			C165,109.4,162.1,107.3,158.8,106.1z M163.4,134.6L163.4,134.6c-1.4,1.4-2.9,2.4-4.6,3c-1.7,0.7-3.6,1.2-5.6,1.2
			c-0.7,0-1.4,0-2-0.2c2-4.4,3.6-9,4.7-13.7c1.2-4.7,1.9-9.5,2-14.4c0.3,0.2,0.7,0.2,1,0.3c2,0.8,3.9,2.2,5.2,3.9
			c2.2,2.5,3.4,5.8,3.4,9.5C167.4,128.3,165.9,131.9,163.4,134.6z M175.9,102.3c-4.4-4.7-10.3-8.1-17.1-9.3
			c-1.2-0.2-2.5-0.3-3.9-0.5c-0.2,0-0.3,0-0.5,0l0,0H18.9c-1.2,0-2,0.8-2.2,2c-0.3,2.2-0.7,4.4-0.8,6.6c-0.2,2.4-0.3,4.6-0.3,6.8
			c0,20,7.9,38.1,20.8,51.1c12.9,13,30.8,21.1,50.4,21.1c4.6,0,9-0.5,13.4-1.4c6.3-1.2,12.2-3.2,17.8-5.9
			c9.3-4.6,17.4-11.2,23.8-19.1c1.5,0.7,3.2,1.2,4.9,1.5c2.2,0.5,4.4,0.7,6.8,0.7c1.9,0,3.7-0.2,5.6-0.5c6.4-1.2,12.2-4.4,16.6-8.8
			c5.8-5.8,9.1-13.7,9.1-22.5C184.5,115.8,181.3,108,175.9,102.3z M172.4,143.7c-3.6,3.7-8.3,6.3-13.5,7.4c-1.9,0.3-3.7,0.7-5.6,0.7
			c-2,0-4.1-0.2-5.8-0.7c-1.9-0.5-3.7-1-5.6-1.9l0,0c-0.8-0.5-2-0.2-2.7,0.7c-6.3,8.1-14.2,14.7-23.3,19.1
			c-4.9,2.4-10.3,4.2-15.9,5.4c-4.2,0.8-8.8,1.4-13.4,1.4c-18.4,0-35.2-7.6-47.2-20c-12-12.3-19.6-29.3-19.6-48
			c0-2.2,0.2-4.4,0.3-6.4c0.2-1.5,0.3-3,0.5-4.6h133.4h0.2c1.5,0,3,0.3,4.4,0.5c5.4,1.2,10.1,3.9,13.9,7.9
			c4.6,4.9,7.4,11.5,7.4,18.9C180,131.9,177.3,138.8,172.4,143.7z M166.4,183.1H17.5c-1.2,0-2.2,1-2.2,2.2v12.5c0,1.2,1,2.2,2.2,2.2
			h148.8c1.2,0,2.2-1,2.2-2.2v-12.5C168.5,184.1,167.5,183.1,166.4,183.1z M164.1,195.6H19.7v-8.1h144.4V195.6L164.1,195.6z
			 M52.5,51L52.5,51c0.3,1,1.2,2.5,2.2,4.6c1.7,3.2,3.9,7.4,5.2,11c0.8,2.5,1.2,4.4,0.3,4.7c-4.2,1.5-6.1,4.9-6.4,8.5
			c0,1.4,0.2,2.5,0.5,3.7c0.3,1.2,1,2.4,1.9,3.4l0,0l0,0c2,2.4,4.9,3.7,8.6,2.5c0.2,0,0.3-0.2,0.5-0.2c5.4-1.9,9.1-5.6,11.3-10.1
			c2.2-4.9,2.7-10.8,1.2-16.6c-1-4.2-3-7.9-5.1-11.5v-0.2c-0.5-1-1-2-1.7-3c-0.7-1.2-1.5-3-1.9-4.9c-0.2-1.2-0.2-2.4,0.5-2.9
			c3.7-2.4,4.9-6.1,4.2-9.5c0-1.1-0.5-2.5-1.2-3.5c-0.7-1-1.5-2-2.5-2.9c-1.5-1.2-3.4-1.9-5.4-1.7c-1.4,0-2.9,0.5-4.4,1.5
			c-4.6,2.9-7.3,6.9-8.6,11.5C50.5,40.2,50.8,45.8,52.5,51L52.5,51z M56.1,36.6c1-3.6,3.2-6.8,6.8-9c0.7-0.5,1.4-0.7,2-0.7
			c1-0.2,2,0.2,2.9,0.8c0.5,0.3,1,1,1.4,1.5c0.3,0.7,0.7,1.4,0.8,2c0.3,1.7-0.3,3.7-2.2,4.9s-2.7,3-2.7,4.9v1c0,0.5,0.2,1,0.2,1.5
			c0.5,2.4,1.5,4.7,2.2,6.1c0.5,1,1,2,1.7,3v0.2c1.9,3.4,3.7,6.9,4.6,10.5c1.2,4.7,0.8,9.6-1,13.5c-1.5,3.2-4.1,5.9-7.9,7.4
			c-0.3,0.2-0.5,0.2-0.8,0.3c-2,0.7-3.6,0.2-4.4-1l0,0c-0.5-0.5-0.7-1.2-1-1.9c-0.2-0.7-0.3-1.5-0.3-2.2c0.2-1.9,1.2-3.7,3.4-4.6
			c1.9-0.7,2.9-1.9,3.2-3.6c0.2-1,0.2-2.2,0-3.6c-0.2-1-0.5-2.2-0.8-3.4c-1.4-3.9-3.7-8.3-5.4-11.7c-1-1.9-1.7-3.2-2-3.9l0,0
			C55.3,45.3,54.9,40.7,56.1,36.6z M91.3,51L91.3,51c0.3,1,1.2,2.5,2.2,4.6c1.7,3.2,3.9,7.4,5.2,11c0.8,2.4,1.2,4.4,0.3,4.7
			c-4.2,1.5-6.1,4.9-6.4,8.5c0,1.4,0.2,2.5,0.5,3.7c0.3,1.2,1,2.4,1.9,3.4l0.2,0.2c2,2.2,4.9,3.6,8.6,2.4c0.2,0,0.3-0.2,0.5-0.2
			c5.4-1.9,9.1-5.6,11.3-10.1V79c2.2-4.9,2.5-10.7,1.2-16.4c-1-4.2-3-7.9-5.1-11.5c-0.5-1-1.2-2-1.7-3.2c-0.7-1.2-1.5-3-1.9-4.9
			c-0.2-1.2-0.2-2.4,0.5-2.9c3.7-2.4,4.9-6.1,4.2-9.5c-0.2-1.2-0.7-2.5-1.4-3.6s-1.5-2-2.5-2.9c-1.5-1.2-3.4-1.9-5.4-1.7
			c-1.4,0-2.9,0.5-4.4,1.5c-4.6,2.9-7.3,6.9-8.6,11.5C89.3,40.2,89.5,45.8,91.3,51L91.3,51z M95,36.6c1-3.6,3.2-6.8,6.8-9
			c0.7-0.5,1.4-0.7,2-0.7c1-0.2,2,0.2,2.9,0.8c0.5,0.3,1,1,1.4,1.5c0.3,0.7,0.7,1.4,0.8,2c0.3,1.7-0.3,3.7-2.2,4.9
			c-1.9,1.2-2.7,3-2.7,4.9v1c0,0.5,0.2,1,0.2,1.5c0.5,2.4,1.5,4.7,2.2,6.1c0.5,1,1.2,2.2,1.7,3.2c1.9,3.4,3.7,6.9,4.6,10.5
			c1.2,4.7,0.8,9.5-0.8,13.5V77c-1.5,3.2-4.1,5.9-7.9,7.4c-0.3,0.2-0.5,0.2-0.8,0.3c-1.9,0.7-3.4,0.2-4.4-1v-0.2
			c-0.5-0.5-0.7-1.2-1-1.9c-0.2-0.7-0.3-1.5-0.3-2.2c0.2-1.9,1.2-3.7,3.4-4.6c1.9-0.7,2.9-1.9,3.2-3.6c0.2-1,0.2-2.2,0-3.4
			c-0.2-1-0.5-2.2-0.8-3.4c-1.4-3.9-3.7-8.3-5.4-11.7c-1-1.9-1.7-3.2-2-3.9l0,0C93.9,45.3,93.8,40.7,95,36.6z"/>
	</g>
</g>
</svg>
