<?xml version="1.0" encoding="utf-8"?>
<!-- Generator: Adobe Illustrator 23.0.3, SVG Export Plug-In . SVG Version: 6.00 Build 0)  -->
<svg version="1.1" id="Layer_1" xmlns="http://www.w3.org/2000/svg" xmlns:xlink="http://www.w3.org/1999/xlink" x="0px" y="0px"
	 viewBox="0 0 200 200" style="enable-background:new 0 0 200 200;" xml:space="preserve">
<style type="text/css">
	.st0{fill:#FF8800;}
</style>
<g>
	<g>
		<path class="st0" d="M115.9,142.3h16.4c1.2,0,2.2-1,2.2-2.2v-16.2c0-1.2-1-2.2-2.2-2.2H116c-1.2,0-2.2,1-2.2,2.2v16.2
			C113.8,141.3,114.8,142.3,115.9,142.3z M118.1,126.1h11.8v11.8h-11.8V126.1z M144.4,166.7c1.2,0,2.2-1,2.2-2.2v-16.2
			c0-1.2-1-2.2-2.2-2.2H128c-1.2,0-2.2,1-2.2,2.2v16.2c0,1.2,1,2.2,2.2,2.2H144.4z M130.4,150.4h11.8v11.8h-11.8V150.4z M169.1,146
			h-16.4c-1.2,0-2.2,1-2.2,2.2v16.2c0,1.2,1,2.2,2.2,2.2h16.4c1.2,0,2.2-1,2.2-2.2v-16.2C171.3,147,170.1,146,169.1,146z
			 M166.8,162.3H155v-11.8h11.8V162.3z M164.9,142.3h16.4c1.2,0,2.2-1,2.2-2.2v-16.2c0-1.2-1-2.2-2.2-2.2h-16.4
			c-1.2,0-2.2,1-2.2,2.2v16.2C162.8,141.3,163.6,142.3,164.9,142.3z M167.1,126.1h11.8v11.8h-11.8V126.1z M193.6,109.5H6.6
			c-1.2,0-2.2,1-2.2,2.2v86.1c0,1.2,1,2.2,2.2,2.2h186.7c1.2,0,2.2-1,2.2-2.2v-86.1C195.8,110.5,194.8,109.5,193.6,109.5z
			 M191.3,195.6H8.8v-81.7h182.3v81.7H191.3z M42.5,142.3h16.4c1.2,0,2.2-1,2.2-2.2v-16.2c0-1.2-1-2.2-2.2-2.2H42.5
			c-1.2,0-2.2,1-2.2,2.2v16.2C40.1,141.3,41.1,142.3,42.5,142.3z M44.7,126.1h11.8v11.8H44.7V126.1z M140.4,142.3h16.4
			c1.2,0,2.2-1,2.2-2.2v-16.2c0-1.2-1-2.2-2.2-2.2h-16.4c-1.2,0-2.2,1-2.2,2.2v16.2C138.3,141.3,139.3,142.3,140.4,142.3z
			 M142.6,126.1h11.8v11.8h-11.8V126.1z M66.8,142.3h16.4c1.2,0,2.2-1,2.2-2.2v-16.2c0-1.2-1-2.2-2.2-2.2H66.8c-1.2,0-2.2,1-2.2,2.2
			v16.2C64.6,141.3,65.6,142.3,66.8,142.3z M69,126.1h11.8v11.8H69V126.1z M119.9,166.7c1.2,0,2.2-1,2.2-2.2v-16.2
			c0-1.2-1-2.2-2.2-2.2h-16.2c-1.2,0-2.2,1-2.2,2.2v16.2c0,1.2,1,2.2,2.2,2.2H119.9z M105.9,150.4h11.8v11.8h-11.8V150.4z
			 M48.7,164.5v-16.2c0-1.2-1-2.2-2.2-2.2H30.1c-1.2,0-2.2,1-2.2,2.2v16.2c0,1.2,1,2.2,2.2,2.2h16.4
			C47.7,166.7,48.7,165.6,48.7,164.5z M44.3,162.3H32.5v-11.8h11.8V162.3z M71,166.7c1.2,0,2.2-1,2.2-2.2v-16.2c0-1.2-1-2.2-2.2-2.2
			H54.6c-1.2,0-2.2,1-2.2,2.2v16.2c0,1.2,1,2.2,2.2,2.2H71z M56.8,150.4h11.8v11.8H56.8V150.4z M91.3,142.3h16.4
			c1.2,0,2.2-1,2.2-2.2v-16.2c0-1.2-1-2.2-2.2-2.2H91.3c-1.2,0-2.2,1-2.2,2.2v16.2C89.1,141.3,90.1,142.3,91.3,142.3z M93.5,126.1
			h11.9v11.8H93.5V126.1z M160.8,171.4H38.2c-1.2,0-2.2,1-2.2,2.2v16.2c0,1.2,1,2.2,2.2,2.2h122.4c1.2,0,2.2-1,2.2-2.2v-16.2
			C163.1,172.2,162.1,171.4,160.8,171.4z M158.6,187.5H40.6v-11.8h118.1v11.8H158.6z M17.9,142.3h16.4c1.2,0,2.2-1,2.2-2.2v-16.2
			c0-1.2-1-2.2-2.2-2.2H17.9c-1.2,0-2.2,1-2.2,2.2v16.2C15.7,141.3,16.7,142.3,17.9,142.3z M20.1,126.1h11.8v11.8H20.1V126.1z
			 M95.4,166.7c1.2,0,2.2-1,2.2-2.2v-16.2c0-1.2-1-2.2-2.2-2.2H79c-1.2,0-2.2,1-2.2,2.2v16.2c0,1.2,1,2.2,2.2,2.2H95.4z M81.4,150.4
			h11.8v11.8H81.4V150.4z M124.5,73.3c-9.3-2.2-19.1-3.4-29.1-3.4s-19.8,1.2-29.1,3.4c-9.3,2.2-18.1,5.4-25.7,9.6
			c-1,0.5-1.5,1.9-0.8,3l7.3,13.4c0.5,1,1.9,1.5,3,0.8c6.3-3.4,13.4-6.1,21.1-7.8c7.6-1.9,15.9-2.7,24.2-2.7s16.6,1,24.2,2.7
			c7.6,1.9,14.9,4.4,21.1,7.8c1,0.5,2.4,0.2,3-0.8l7.3-13.4c0.5-1,0.2-2.4-0.8-3C142.4,78.7,133.8,75.5,124.5,73.3z M140.9,95.3
			c-6.1-3-13-5.6-20.3-7.3c-8.1-1.9-16.6-2.9-25.2-2.9s-17.3,1-25.2,2.9C63,89.7,56,92.2,50,95.3l-5.2-9.5
			c6.9-3.6,14.5-6.3,22.7-8.3c9-2.2,18.4-3.2,28.1-3.2s19.1,1.2,28.1,3.2c8.1,1.9,15.9,4.7,22.7,8.3L140.9,95.3z M28.8,74.7
			c0.5,1,1.9,1.5,3,0.8c8.8-4.7,18.9-8.5,29.6-11c10.8-2.5,22.3-3.9,33.8-3.9c11.7,0,23.2,1.4,33.8,3.9c10.8,2.5,20.8,6.3,29.6,11
			c1,0.5,2.4,0.2,3-0.8l7.3-13.4c0.5-1,0.2-2.4-0.8-3c-10.3-5.6-22-10-34.3-12.9c-12.4-2.9-25.4-4.4-38.7-4.4
			c-13.2,0-26.4,1.5-38.8,4.4C44,48.3,32.3,52.7,22,58.3c-1,0.5-1.5,1.9-0.8,3L28.8,74.7z M57.7,49.8c12-2.9,24.7-4.4,37.7-4.4
			c12.9,0,25.7,1.5,37.7,4.4c11.2,2.7,21.8,6.4,31.3,11.3l-5.2,9.5c-8.8-4.6-18.5-8-28.8-10.5c-11.2-2.5-23-4.1-34.8-4.1
			c-12,0-23.8,1.4-34.8,4.1C50.4,62.5,40.6,66,32,70.6l-5.2-9.5C35.9,56.2,46.5,52.5,57.7,49.8z"/>
	</g>
</g>
</svg>
