<?xml version="1.0" encoding="utf-8"?>
<!-- Generator: Adobe Illustrator 17.1.0, SVG Export Plug-In . SVG Version: 6.00 Build 0)  -->
<!DOCTYPE svg PUBLIC "-//W3C//DTD SVG 1.1//EN" "http://www.w3.org/Graphics/SVG/1.1/DTD/svg11.dtd">
<svg version="1.1" id="Layer_1" xmlns="http://www.w3.org/2000/svg" xmlns:xlink="http://www.w3.org/1999/xlink" x="0px" y="0px"
	 viewBox="0 0 191.1 159" enable-background="new 0 0 191.1 159" xml:space="preserve">
<g>
	<g>
		<path fill="#FF8800" d="M111.5,101.3h16.4c1.2,0,2.2-1,2.2-2.2V82.9c0-1.2-1-2.2-2.2-2.2h-16.4c-1.2,0-2.2,1-2.2,2.2v16.2
			C109.3,100.3,110.3,101.3,111.5,101.3z M113.7,85.1h11.8v11.8h-11.8V85.1z M140,125.7c1.2,0,2.2-1,2.2-2.2v-16.2
			c0-1.2-1-2.2-2.2-2.2h-16.4c-1.2,0-2.2,1-2.2,2.2v16.2c0,1.2,1,2.2,2.2,2.2H140z M126,109.4h11.8v11.8H126V109.4z M164.6,105
			h-16.4c-1.2,0-2.2,1-2.2,2.2v16.2c0,1.2,1,2.2,2.2,2.2h16.4c1.2,0,2.2-1,2.2-2.2v-16.2C166.8,106,165.7,105,164.6,105z
			 M162.4,121.3h-11.8v-11.8h11.8V121.3z M160.5,101.3h16.4c1.2,0,2.2-1,2.2-2.2V82.9c0-1.2-1-2.2-2.2-2.2h-16.4
			c-1.2,0-2.2,1-2.2,2.2v16.2C158.3,100.3,159.1,101.3,160.5,101.3z M162.7,85.1h11.8v11.8h-11.8V85.1z M189.1,68.5H2.2
			c-1.2,0-2.2,1-2.2,2.2v86.1c0,1.2,1,2.2,2.2,2.2h186.7c1.2,0,2.2-1,2.2-2.2V70.7C191.3,69.5,190.3,68.5,189.1,68.5z M186.9,154.6
			H4.4V72.9h182.3v81.7H186.9z M38.1,101.3h16.4c1.2,0,2.2-1,2.2-2.2V82.9c0-1.2-1-2.2-2.2-2.2H38.1c-1.2,0-2.2,1-2.2,2.2v16.2
			C35.7,100.3,36.7,101.3,38.1,101.3z M40.3,85.1h11.8v11.8H40.3V85.1z M136,101.3h16.4c1.2,0,2.2-1,2.2-2.2V82.9
			c0-1.2-1-2.2-2.2-2.2H136c-1.2,0-2.2,1-2.2,2.2v16.2C133.8,100.3,134.8,101.3,136,101.3z M138.2,85.1H150v11.8h-11.8V85.1z
			 M62.4,101.3h16.4c1.2,0,2.2-1,2.2-2.2V82.9c0-1.2-1-2.2-2.2-2.2H62.4c-1.2,0-2.2,1-2.2,2.2v16.2
			C60.2,100.3,61.2,101.3,62.4,101.3z M64.6,85.1h11.8v11.8H64.6V85.1z M115.5,125.7c1.2,0,2.2-1,2.2-2.2v-16.2c0-1.2-1-2.2-2.2-2.2
			H99.3c-1.2,0-2.2,1-2.2,2.2v16.2c0,1.2,1,2.2,2.2,2.2H115.5z M101.5,109.4h11.8v11.8h-11.8V109.4z M44.3,123.5v-16.2
			c0-1.2-1-2.2-2.2-2.2H25.7c-1.2,0-2.2,1-2.2,2.2v16.2c0,1.2,1,2.2,2.2,2.2h16.4C43.3,125.7,44.3,124.6,44.3,123.5z M39.9,121.3
			H28.1v-11.8h11.8V121.3z M66.6,125.7c1.2,0,2.2-1,2.2-2.2v-16.2c0-1.2-1-2.2-2.2-2.2H50.2c-1.2,0-2.2,1-2.2,2.2v16.2
			c0,1.2,1,2.2,2.2,2.2H66.6z M52.4,109.4h11.8v11.8H52.4L52.4,109.4z M86.9,101.3h16.4c1.2,0,2.2-1,2.2-2.2V82.9
			c0-1.2-1-2.2-2.2-2.2H86.9c-1.2,0-2.2,1-2.2,2.2v16.2C84.7,100.3,85.7,101.3,86.9,101.3z M89.1,85.1H101v11.8H89.1V85.1z
			 M156.4,130.4H33.8c-1.2,0-2.2,1-2.2,2.2v16.2c0,1.2,1,2.2,2.2,2.2h122.4c1.2,0,2.2-1,2.2-2.2v-16.2
			C158.6,131.2,157.6,130.4,156.4,130.4z M154.1,146.5H36.2v-11.8h118.1v11.8H154.1z M13.5,101.3h16.4c1.2,0,2.2-1,2.2-2.2V82.9
			c0-1.2-1-2.2-2.2-2.2H13.5c-1.2,0-2.2,1-2.2,2.2v16.2C11.3,100.3,12.3,101.3,13.5,101.3z M15.7,85.1h11.8v11.8H15.7V85.1z
			 M91,125.7c1.2,0,2.2-1,2.2-2.2v-16.2c0-1.2-1-2.2-2.2-2.2H74.6c-1.2,0-2.2,1-2.2,2.2v16.2c0,1.2,1,2.2,2.2,2.2H91z M77,109.4
			h11.8v11.8H77V109.4z M120.1,32.3c-9.3-2.2-19.1-3.4-29.1-3.4c-10,0-19.8,1.2-29.1,3.4s-18.1,5.4-25.7,9.6c-1,0.5-1.5,1.9-0.8,3
			l7.3,13.4c0.5,1,1.9,1.5,3,0.8c6.3-3.4,13.4-6.1,21.1-7.8c7.6-1.9,15.9-2.7,24.2-2.7s16.6,1,24.2,2.7c7.6,1.9,14.9,4.4,21.1,7.8
			c1,0.5,2.4,0.2,3-0.8l7.3-13.4c0.5-1,0.2-2.4-0.8-3C138,37.7,129.4,34.5,120.1,32.3z M136.5,54.3c-6.1-3-13-5.6-20.3-7.3
			c-8.1-1.9-16.6-2.9-25.2-2.9s-17.3,1-25.2,2.9c-7.3,1.7-14.2,4.2-20.3,7.3l-5.2-9.5c6.9-3.6,14.5-6.3,22.7-8.3
			c9-2.2,18.4-3.2,28.1-3.2s19.1,1.2,28.1,3.2c8.1,1.9,15.9,4.7,22.7,8.3L136.5,54.3z M24.4,33.7c0.5,1,1.9,1.5,3,0.8
			c8.8-4.7,18.9-8.5,29.6-11c10.8-2.5,22.3-3.9,33.8-3.9c11.7,0,23.2,1.4,33.8,3.9c10.8,2.5,20.8,6.3,29.6,11c1,0.5,2.4,0.2,3-0.8
			l7.3-13.4c0.5-1,0.2-2.4-0.8-3c-10.3-5.6-22-10-34.3-12.9C117,1.5,104,0,90.7,0C77.5,0,64.3,1.5,51.9,4.4
			c-12.3,2.9-24,7.3-34.3,12.9c-1,0.5-1.5,1.9-0.8,3L24.4,33.7z M53.3,8.8C65.3,5.9,78,4.4,91,4.4c12.9,0,25.7,1.5,37.7,4.4
			c11.2,2.7,21.8,6.4,31.3,11.3l-5.2,9.5C146,25,136.3,21.6,126,19.1c-11.2-2.5-23-4.1-34.8-4.1c-12,0-23.8,1.4-34.8,4.1
			C46,21.5,36.2,25,27.6,29.6l-5.2-9.5C31.5,15.2,42.1,11.5,53.3,8.8z"/>
	</g>
</g>
</svg>
