<?xml version="1.0" encoding="utf-8"?>
<!-- Generator: Adobe Illustrator 23.0.3, SVG Export Plug-In . SVG Version: 6.00 Build 0)  -->
<svg version="1.1" id="Layer_1" xmlns="http://www.w3.org/2000/svg" xmlns:xlink="http://www.w3.org/1999/xlink" x="0px" y="0px"
	 viewBox="0 0 200 200" style="enable-background:new 0 0 200 200;" xml:space="preserve">
<style type="text/css">
	.st0{fill:#FFFF00;}
</style>
<g>
	<path class="st0" d="M113.2,162.7c0.3,0.3,0.8,0.5,1.4,0.5s1-0.2,1.4-0.5l10.9-10.9c0.7-0.7,0.7-1.9,0-2.5c-0.7-0.7-1.9-0.7-2.5,0
		l-10.9,10.9C112.5,160.9,112.5,162.1,113.2,162.7z"/>
	<path class="st0" d="M119.6,162.7c0.3,0.3,0.8,0.5,1.4,0.5s1-0.2,1.4-0.5l10.8-10.8c0.7-0.7,0.7-1.9,0-2.5c-0.7-0.7-1.9-0.7-2.5,0
		l-10.9,10.9C119,160.9,119,162.1,119.6,162.7z"/>
	<path class="st0" d="M62.6,162.1c3.2,0,5.9-2.7,5.9-5.9s-2.7-5.9-5.9-5.9c-3.2,0-5.9,2.7-5.9,5.9S59.4,162.1,62.6,162.1z
		 M62.6,153.7c0.7,0,1.2,0.2,1.7,0.7s0.7,1,0.7,1.7c0,1.4-1,2.4-2.4,2.4s-2.4-1-2.4-2.4C60.2,154.8,61.3,153.7,62.6,153.7z"/>
	<path class="st0" d="M126.1,162.7c0.3,0.3,0.8,0.5,1.4,0.5s1-0.2,1.4-0.5l10.9-10.9c0.7-0.7,0.7-1.9,0-2.5c-0.7-0.7-1.9-0.7-2.5,0
		l-10.9,10.9C125.3,160.9,125.3,162.1,126.1,162.7z"/>
	<path class="st0" d="M108.1,163.2c0.5,0,1-0.2,1.4-0.5l10.9-10.9c0.7-0.7,0.7-1.9,0-2.5c-0.7-0.7-1.9-0.7-2.5,0L107,160.2
		c-0.7,0.7-0.7,1.9,0,2.5C107.1,163.1,107.6,163.2,108.1,163.2z"/>
	<path class="st0" d="M108.1,193.1c0.5,0,1-0.2,1.4-0.5l10.9-10.9c0.7-0.7,0.7-1.9,0-2.5s-1.9-0.7-2.5,0L107,190.1
		c-0.7,0.7-0.7,1.9,0,2.5C107.1,192.9,107.6,193.1,108.1,193.1z"/>
	<path class="st0" d="M126.1,192.6c0.3,0.3,0.8,0.5,1.4,0.5s1-0.2,1.4-0.5l10.9-10.9c0.7-0.7,0.7-1.9,0-2.5c-0.7-0.6-1.9-0.7-2.5,0
		l-10.9,10.9C125.3,190.7,125.3,191.9,126.1,192.6z"/>
	<path class="st0" d="M132.5,192.6c0.3,0.3,0.8,0.5,1.4,0.5c0.5,0,1-0.2,1.4-0.5l10.9-10.9c0.7-0.7,0.7-1.9,0-2.5s-1.9-0.7-2.5,0
		l-10.9,10.9C131.9,190.7,131.9,191.9,132.5,192.6z"/>
	<path class="st0" d="M119.6,192.6c0.3,0.3,0.8,0.5,1.4,0.5s1-0.2,1.4-0.5l10.8-10.9c0.7-0.7,0.7-1.9,0-2.5c-0.7-0.6-1.9-0.7-2.5,0
		l-10.9,10.9C119,190.7,119,191.9,119.6,192.6z"/>
	<path class="st0" d="M133.9,24.1c-0.3-0.5-0.8-0.7-1.5-0.7H67.4c-0.5,0-1.2,0.3-1.5,0.7L48.7,48.3c-0.3,0.5-0.5,1.2-0.2,1.9
		s0.8,1,1.5,1h100c1,0,1.9-0.8,1.9-1.9c0-0.5-0.2-1-0.5-1.4L133.9,24.1z M53.6,47.7l15-20.7h63.1l14.9,20.7
		C146.6,47.7,53.6,47.7,53.6,47.7z"/>
	<path class="st0" d="M113.2,192.6c0.3,0.3,0.8,0.5,1.4,0.5s1-0.2,1.4-0.5l10.9-10.9c0.7-0.7,0.7-1.9,0-2.5s-1.9-0.7-2.5,0
		l-10.9,10.9C112.5,190.7,112.5,191.9,113.2,192.6z"/>
	<path class="st0" d="M62.6,191.8c3.2,0,5.9-2.7,5.9-5.9s-2.7-5.9-5.9-5.9c-3.2,0-5.9,2.7-5.9,5.9C56.7,189,59.4,191.8,62.6,191.8z
		 M62.6,183.6c1.2,0,2.4,1,2.4,2.4s-1,2.4-2.4,2.4c-1.4,0-2.4-1-2.4-2.4S61.3,183.6,62.6,183.6z"/>
	<path class="st0" d="M150,171.9H50.1c-1,0-1.9,0.8-1.9,1.9v24.3c0,1,0.8,1.9,1.9,1.9h99.8c1,0,1.9-0.8,1.9-1.9v-24.3
		C151.6,172.7,150.9,171.9,150,171.9z M148.1,196.2H51.9v-20.7h96.3V196.2z"/>
	<path class="st0" d="M150,142H50.1c-1,0-1.9,0.8-1.9,1.9v24.3c0,1,0.8,1.9,1.9,1.9h99.8c1,0,1.9-0.8,1.9-1.9v-24.3
		C151.6,142.9,150.9,142,150,142z M148.1,166.3H51.9v-20.5h96.3V166.3z"/>
	<path class="st0" d="M132.5,162.7c0.3,0.3,0.8,0.5,1.4,0.5c0.5,0,1-0.2,1.4-0.5l10.9-10.9c0.7-0.7,0.7-1.9,0-2.5
		c-0.7-0.7-1.9-0.7-2.5,0l-10.9,10.9C131.9,160.9,131.9,162.1,132.5,162.7z"/>
	<path class="st0" d="M126.1,132.9c0.3,0.3,0.8,0.5,1.4,0.5s1-0.2,1.4-0.5l10.9-10.9c0.7-0.7,0.7-1.9,0-2.5c-0.7-0.7-1.9-0.7-2.5,0
		l-10.9,10.9C125.3,131.2,125.3,132.2,126.1,132.9z"/>
	<path class="st0" d="M132.5,73.3c0.3,0.3,0.8,0.5,1.4,0.5c0.5,0,1-0.2,1.4-0.5l10.8-10.9c0.7-0.7,0.7-1.9,0-2.5
		c-0.7-0.7-1.9-0.7-2.5,0l-10.9,10.8C131.9,71.4,131.9,72.6,132.5,73.3z"/>
	<path class="st0" d="M125.6,72.1c0,0.5,0.2,1,0.5,1.4c0.3,0.3,0.8,0.5,1.4,0.5c0.5,0,1-0.2,1.4-0.5l10.9-10.9
		c0.7-0.7,0.7-1.9,0-2.5c-0.7-0.7-1.9-0.7-2.5,0l-11,10.8C125.8,71.1,125.6,71.6,125.6,72.1z"/>
	<path class="st0" d="M108.1,103.7c0.5,0,1-0.2,1.4-0.5l10.9-10.9c0.7-0.7,0.7-1.9,0-2.5s-1.9-0.7-2.5,0l-11,10.8
		c-0.7,0.7-0.7,1.9,0,2.5C107.1,103.5,107.6,103.7,108.1,103.7z"/>
	<path class="st0" d="M119.6,73.3c0.3,0.3,0.8,0.5,1.4,0.5s1-0.2,1.4-0.5l10.8-10.9c0.7-0.7,0.7-1.9,0-2.5c-0.7-0.7-1.9-0.7-2.5,0
		l-10.9,10.8C119,71.4,119,72.6,119.6,73.3z"/>
	<path class="st0" d="M62.6,102.3c3.2,0,5.9-2.7,5.9-5.9s-2.7-6-5.9-6c-3.2,0-5.9,2.8-5.9,6C56.7,99.8,59.4,102.3,62.6,102.3z
		 M62.6,94.2c1.2,0,2.4,1,2.4,2.4S64,99,62.6,99c-1.4,0-2.4-1-2.4-2.4S61.3,94.2,62.6,94.2z"/>
	<path class="st0" d="M150,82.5H50.1c-1,0-1.9,0.8-1.9,1.9v24.3c0,1,0.8,1.9,1.9,1.9h99.8c1,0,1.9-0.8,1.9-1.9V84.3
		C151.6,83.3,150.9,82.5,150,82.5z M148.1,106.7H51.9V86h96.3V106.7z"/>
	<path class="st0" d="M62.6,72.6c3.2,0,5.9-2.7,5.9-5.9c0-3.2-2.7-5.9-5.9-5.9c-3.2,0-5.9,2.7-5.9,5.9
		C56.7,69.9,59.4,72.6,62.6,72.6z M62.6,64.3c0.7,0,1.2,0.2,1.7,0.7s0.7,1,0.7,1.7c0,1.4-1,2.4-2.4,2.4s-2.4-1-2.4-2.4
		S61.3,64.3,62.6,64.3z"/>
	<path class="st0" d="M150,52.8H50.1c-1,0-1.9,0.8-1.9,1.9V79c0,1,0.8,1.9,1.9,1.9h99.8c1,0,1.9-0.8,1.9-1.9V54.5
		C151.6,53.4,150.9,52.8,150,52.8z M148.1,76.9H51.9V56.3h96.3V76.9z"/>
	<path class="st0" d="M108.1,73.8c0.5,0,1-0.2,1.4-0.5l10.8-10.9c0.7-0.7,0.7-1.9,0-2.5c-0.7-0.7-1.9-0.7-2.5,0l-10.9,10.8
		c-0.3,0.3-0.5,0.8-0.5,1.4c0,0.6,0.2,1,0.5,1.4C107.1,73.6,107.6,73.8,108.1,73.8z"/>
	<path class="st0" d="M112.7,72.1c0,0.5,0.2,1,0.5,1.4c0.3,0.3,0.8,0.5,1.4,0.5s1-0.2,1.4-0.5l10.9-10.9c0.7-0.7,0.7-1.9,0-2.5
		c-0.7-0.7-1.9-0.7-2.5,0l-11,10.8C112.8,71.1,112.7,71.6,112.7,72.1z"/>
	<path class="st0" d="M113.2,103.2c0.3,0.3,0.8,0.5,1.4,0.5s1-0.2,1.4-0.5l10.9-10.9c0.7-0.7,0.7-1.9,0-2.5c-0.7-0.7-1.9-0.7-2.5,0
		l-11,10.8C112.5,101.3,112.5,102.5,113.2,103.2z"/>
	<path class="st0" d="M132.5,132.9c0.3,0.3,0.8,0.5,1.4,0.5c0.5,0,1-0.2,1.4-0.5l10.9-10.9c0.7-0.7,0.7-1.9,0-2.5
		c-0.7-0.7-1.9-0.7-2.5,0l-10.9,10.9C131.9,131.2,131.9,132.2,132.5,132.9z"/>
	<path class="st0" d="M108.1,133.5c0.5,0,1-0.2,1.4-0.5l10.9-10.9c0.7-0.7,0.7-1.9,0-2.5c-0.7-0.7-1.9-0.7-2.5,0L107,130.5
		c-0.7,0.7-0.7,1.9,0,2.5C107.1,133.2,107.6,133.5,108.1,133.5z"/>
	<path class="st0" d="M113.2,132.9c0.3,0.3,0.8,0.5,1.4,0.5s1-0.2,1.4-0.5l10.9-10.9c0.7-0.7,0.7-1.9,0-2.5c-0.7-0.7-1.9-0.7-2.5,0
		l-10.9,10.9C112.5,131.2,112.5,132.2,113.2,132.9z"/>
	<path class="st0" d="M119.6,132.9c0.3,0.3,0.8,0.5,1.4,0.5s1-0.2,1.4-0.5l10.8-10.9c0.7-0.7,0.7-1.9,0-2.5c-0.7-0.7-1.9-0.7-2.5,0
		l-10.9,10.9C119,131.2,119,132.2,119.6,132.9z"/>
	<path class="st0" d="M62.6,132.2c3.2,0,5.9-2.7,5.9-5.9s-2.7-5.9-5.9-5.9c-3.2,0-5.9,2.7-5.9,5.9S59.4,132.2,62.6,132.2z
		 M62.6,123.9c0.7,0,1.2,0.2,1.7,0.7s0.7,1,0.7,1.7c0,1.4-1,2.4-2.4,2.4s-2.4-1-2.4-2.4S61.3,123.9,62.6,123.9z"/>
	<path class="st0" d="M119.6,103.2c0.3,0.3,0.8,0.5,1.4,0.5s0.8-0.2,1.4-0.5l10.8-10.9c0.7-0.7,0.7-1.9,0-2.5
		c-0.7-0.7-1.9-0.7-2.5,0l-10.9,10.8C119,101.3,119,102.5,119.6,103.2z"/>
	<path class="st0" d="M126.1,103.2c0.3,0.3,0.8,0.5,1.4,0.5s0.8-0.2,1.4-0.5l10.9-10.9c0.7-0.7,0.7-1.9,0-2.5
		c-0.7-0.7-1.9-0.7-2.5,0l-11,10.8C125.3,101.3,125.3,102.5,126.1,103.2z"/>
	<path class="st0" d="M132.5,103.2c0.3,0.3,0.8,0.5,1.4,0.5c0.5,0,0.8-0.2,1.4-0.5l10.9-10.9c0.7-0.7,0.7-1.9,0-2.5
		c-0.7-0.7-1.9-0.7-2.5,0l-11,10.8C131.9,101.3,131.9,102.5,132.5,103.2z"/>
	<path class="st0" d="M150,112.3H50.1c-1,0-1.9,0.8-1.9,1.9v24.3c0,1,0.8,1.9,1.9,1.9h99.8c1,0,1.9-0.8,1.9-1.9V114
		C151.6,113.2,150.9,112.3,150,112.3z M148.1,136.6H51.9v-20.7h96.3V136.6z"/>
</g>
</svg>
