<?xml version="1.0" encoding="utf-8"?>
<!-- Generator: Adobe Illustrator 17.1.0, SVG Export Plug-In . SVG Version: 6.00 Build 0)  -->
<!DOCTYPE svg PUBLIC "-//W3C//DTD SVG 1.1//EN" "http://www.w3.org/Graphics/SVG/1.1/DTD/svg11.dtd">
<svg version="1.1" id="Layer_1" xmlns="http://www.w3.org/2000/svg" xmlns:xlink="http://www.w3.org/1999/xlink" x="0px" y="0px"
	 viewBox="0 0 183.3 176.5" enable-background="new 0 0 183.3 176.5" xml:space="preserve">
<g>
	<path fill="#0092AA" d="M183.3,18.8c0-0.5-0.3-0.8-0.8-1.2L152.6,0.3c-0.5-0.3-1.2-0.3-1.7,0l-29.2,16.8l-29-16.8l-0.2-0.2h-0.2
		c-0.5-0.2-1-0.2-1.4,0.2L61.8,17.1L32.6,0.3c-0.5-0.3-1.2-0.3-1.7,0l-30,17.3C0.3,17.9,0,18.4,0,18.9v34.6c0,0.5,0.3,1.2,0.8,1.4
		l29,16.8v32.8l-29,16.8c-0.5,0.3-0.8,0.8-0.8,1.4v34.6c0,0.5,0.3,1.2,0.8,1.4l30,17.6c0.5,0.3,1,0.3,1.5,0l29.2-17l29.2,17
		c0.5,0.3,1,0.3,1.5,0l29.2-17l29.2,17c0.2,0.2,0.5,0.2,0.8,0.2s0.5,0,0.8-0.2l30-17.3l0,0l0,0l0,0c0.5-0.3,0.7-0.8,0.7-1.4V123l0,0
		v-0.2l0,0c0-0.5-0.3-0.8-0.8-1.2l-29.4-17V72.1l29.2-17l0.2-0.2c0.5-0.3,0.7-0.8,0.7-1.4V18.9l0,0L183.3,18.8L183.3,18.8z
		 M3.2,21.8l22.6,13.1c-0.2,0.5-0.2,1-0.2,1.5c0,0.5,0,1,0.2,1.5L3.2,51V21.8z M3.2,125.7l22.6,13.1c-0.2,0.5-0.2,0.8-0.2,1.4
		s0.2,1.2,0.3,1.7L3.4,154.9v-29.2H3.2z M30,172.2L4.9,157.6l22.9-13.2c0.7,0.5,1.5,0.8,2.2,1V172.2z M30,134.7
		c-1,0.2-1.9,0.7-2.5,1.2L4.9,122.8L30,108.2V134.7z M30,68.2L4.9,53.6l22.7-13.1c0.7,0.5,1.5,1,2.4,1.2V68.2z M30,31
		c-0.8,0.2-1.7,0.5-2.4,1.2L4.9,18.9L30,4.4V31z M33.3,4.4l25.3,14.6L35,32.5c-0.5-0.5-1-0.8-1.7-1.2V4.4z M33.3,41.2
		c0.7-0.3,1.2-0.7,1.7-1.2l21.4,12.4c0,0.5,0,0.8,0,1.4c0,0.3,0,0.7,0.2,1.2L33.3,68.2V41.2z M56.5,124l-21.4,12.4
		c-0.5-0.5-1.2-1-1.9-1.4v-26.5L56.3,122c0,0.3-0.2,0.7-0.2,1C56.3,123.3,56.3,123.7,56.5,124z M35,105.7L58,92.3
		c0.5,0.5,1.2,1,2,1.2v24.3c-0.7,0.2-1.4,0.7-1.9,1.2L35,105.7z M58,84.5L35,71.1L58,57.6c0.5,0.5,1.2,0.8,1.9,1.2v24.4
		C59.2,83.4,58.6,83.9,58,84.5z M33.3,73.8l23.3,13.4c0,0.3-0.2,0.7-0.2,1.2c0,0.3,0,0.7,0.2,1.2L33.3,103L33.3,73.8L33.3,73.8z
		 M33.3,172.2V145c0.5-0.3,1-0.7,1.5-1l23.6,13.7L33.3,172.2z M60.1,154.9l-23.8-13.7c0-0.3,0.2-0.7,0.2-1c0-0.2,0-0.5,0-0.7
		L58,126.9c0.5,0.5,1.4,1,2,1.2L60.1,154.9L60.1,154.9z M60.1,48.5c-0.8,0.2-1.5,0.7-2,1.2L36.5,37.1c0-0.3,0-0.5,0-0.8s0-0.5,0-0.8
		l23.8-13.7v26.8H60.1z M63.3,21.8l23.1,13.2c-0.2,0.3-0.2,0.8-0.2,1.2s0,0.8,0.2,1.2l-20.9,12c-0.7-0.5-1.4-1-2-1.2V21.8H63.3z
		 M63.1,58.8c0.8-0.2,1.5-0.7,2.2-1.2l21,12.2c-0.2,0.3-0.2,0.8-0.2,1.2s0,0.8,0.2,1.2l-21,12.2c-0.7-0.5-1.4-1-2.2-1.2L63.1,58.8
		L63.1,58.8z M67,87.2L87.9,75c0.5,0.5,1.4,1,2,1.2v24.3c-0.8,0.3-1.5,0.7-2.2,1.4l-20.9-12c0.2-0.3,0.2-0.8,0.2-1.2
		C67.2,88,67,87.5,67,87.2z M63.1,93.6c0.8-0.2,1.5-0.7,2-1.2l21,12c0,0.3-0.2,0.7-0.2,1s0,0.8,0.2,1.2l-21,12
		c-0.7-0.5-1.4-1-2.2-1.2V93.6H63.1z M63.3,128.1c0.7-0.2,1.5-0.7,2-1.2l20.9,12c0,0.3-0.2,0.7-0.2,1c0,0.5,0,1,0.2,1.4l-23.1,13.4
		v-26.6H63.3z M90.1,172.2L65,157.6l23.3-13.4c0.5,0.5,1.2,0.8,2,1v27H90.1z M90.1,134.9c-0.8,0.2-1.7,0.7-2.2,1.4l-20.9-12
		c0.2-0.3,0.2-0.8,0.2-1.2s0-0.7-0.2-1.2l21-12.2c0.5,0.5,1.4,0.8,2,1.2V134.9z M90.1,65.8c-0.8,0.2-1.5,0.7-2.2,1.2l-21-12
		c0.2-0.3,0.2-0.8,0.2-1.2c0-0.3,0-0.8-0.2-1.2l21-12c0.7,0.5,1.4,1,2,1.2v24.1H90.1z M90.1,31.2c-0.8,0.2-1.5,0.7-2,1.2L65,18.9
		L90.1,4.4V31.2z M93.3,4.4l25.1,14.6L95.4,32.4c-0.5-0.5-1.2-1-2-1.2V4.4z M93.3,41.5c0.7-0.2,1.4-0.7,2-1.2l21.2,12.2
		c-0.2,0.3-0.2,0.8-0.2,1.2c0,0.3,0,0.7,0.2,1.2L95.4,67.1c-0.5-0.5-1.2-0.8-1.9-1.2V41.5H93.3z M116.4,124l-21,12.2
		c-0.7-0.7-1.4-1-2-1.4v-24.3c0.7-0.2,1.4-0.5,1.9-1l21.2,12.2c0,0.3-0.2,0.7-0.2,1C116.4,123.3,116.4,123.7,116.4,124z M96.9,106.7
		c0.2-0.3,0.2-0.8,0.2-1.2s0-0.7-0.2-1l21-12.2c0.5,0.5,1.2,1,2,1.2v24.3c-0.7,0.2-1.4,0.7-1.9,1.2L96.9,106.7z M118.1,84.5
		L96.9,72.2c0.2-0.3,0.2-0.8,0.2-1.2s0-0.7-0.2-1.2l21.2-12.2c0.5,0.5,1.2,0.8,1.9,1.2v24.4C119.3,83.4,118.6,83.9,118.1,84.5z
		 M93.2,76.1c0.7-0.2,1.5-0.7,2-1.2l21.2,12.2c0,0.3-0.2,0.7-0.2,1.2c0,0.3,0,0.7,0.2,1.2l-21,12c-0.7-0.7-1.4-1-2.2-1.4V76.1z
		 M93.3,172.2v-27c0.7-0.2,1.4-0.7,1.9-1l23.3,13.4L93.3,172.2z M120.2,154.9l-23.3-13.4c0.2-0.5,0.2-0.8,0.2-1.4c0-0.3,0-0.7-0.2-1
		l21.2-12.2c0.5,0.5,1.4,1,2,1.2V154.9z M120.2,48.5c-0.8,0.2-1.5,0.7-2,1.2L96.9,37.4c0.2-0.3,0.2-0.7,0.2-1.2s0-0.7-0.2-1.2
		l23.3-13.4V48.5z M123.4,21.8l23.1,13.4c-0.2,0.3-0.2,0.8-0.2,1.2s0,0.8,0.2,1.2l-21,12.2c-0.7-0.5-1.4-1-2-1.2V21.8z M123.2,58.8
		c0.8-0.2,1.5-0.7,2.2-1.2l23.1,13.4l-23.1,13.4c-0.7-0.5-1.4-1-2.2-1.2V58.8z M127.1,87.2l23.1-13.2v29.2l-23.1-13.2
		c0.2-0.3,0.2-0.8,0.2-1.2C127.1,88,127.1,87.5,127.1,87.2z M123.2,93.6c0.8-0.2,1.5-0.7,2.2-1.2l22.9,13.2l-22.9,13.2
		c-0.7-0.5-1.4-1-2.2-1.2V93.6z M123.4,128.1c0.7-0.2,1.5-0.7,2-1.2l21,12.2c0,0.3-0.2,0.7-0.2,1c0,0.5,0,0.8,0.2,1.4l-23.1,13.4
		V128.1z M150.2,172.2l-25.1-14.6l23.3-13.4c0.5,0.5,1.2,0.8,1.9,1V172.2L150.2,172.2z M150.2,134.9c-0.8,0.3-1.5,0.7-2.2,1.4
		l-20.9-12c0.2-0.3,0.2-0.8,0.2-1.2s0-0.7-0.2-1.2l23.1-13.4V134.9L150.2,134.9z M150.2,68.2l-23.1-13.4c0.2-0.3,0.2-0.8,0.2-1.2
		c0-0.3,0-0.8-0.2-1.2l21-12.2c0.5,0.5,1.4,1,2,1.2V68.2z M150.2,31.2c-0.7,0.2-1.5,0.7-2,1.2l-23.3-13.4L150,4.4v26.8H150.2z
		 M180.2,154.9l-23.1-13.4c0.2-0.5,0.2-0.8,0.2-1.4c0-0.3,0-0.7-0.2-1l23.1-13.4V154.9z M153.4,108.4l25.1,14.6l-23.1,13.2
		c-0.7-0.7-1.4-1-2.2-1.4v-26.5H153.4z M153.4,145.2c0.7-0.2,1.4-0.5,1.9-1l23.3,13.4l-25.1,14.6V145.2z M153.4,4.4l25.1,14.6
		l-23.1,13.4c-0.5-0.5-1.4-1-2-1.2V4.4L153.4,4.4z M153.4,68.2V41.5c0.7-0.2,1.5-0.7,2-1.2l23.1,13.4L153.4,68.2z M180.2,50.9
		l-23.1-13.4c0.2-0.3,0.2-0.8,0.2-1.2s0-0.8-0.2-1.2l23.1-13.4V50.9z"/>
</g>
</svg>
