<?xml version="1.0" encoding="utf-8"?>
<!-- Generator: Adobe Illustrator 23.0.3, SVG Export Plug-In . SVG Version: 6.00 Build 0)  -->
<svg version="1.1" id="Layer_1" xmlns="http://www.w3.org/2000/svg" xmlns:xlink="http://www.w3.org/1999/xlink" x="0px" y="0px"
	 viewBox="0 0 200 200" style="enable-background:new 0 0 200 200;" xml:space="preserve">
<style type="text/css">
	.st0{fill:#0092AA;}
</style>
<g>
	<path class="st0" d="M191.6,42.2c0-0.5-0.3-0.8-0.8-1.2L161,23.8c-0.5-0.3-1.2-0.3-1.7,0l-29.2,16.8l-29-16.8l-0.2-0.2h-0.2
		c-0.5-0.2-1-0.2-1.4,0.2L70.1,40.6L40.9,23.8c-0.5-0.3-1.2-0.3-1.7,0l-30,17.3c-0.6,0.3-0.9,0.8-0.9,1.3V77c0,0.5,0.3,1.2,0.8,1.4
		l29,16.8V128l-29,16.8c-0.5,0.3-0.8,0.8-0.8,1.4v34.6c0,0.5,0.3,1.2,0.8,1.4l30,17.6c0.5,0.3,1,0.3,1.5,0l29.2-17l29.2,17
		c0.5,0.3,1,0.3,1.5,0l29.2-17l29.2,17c0.2,0.2,0.5,0.2,0.8,0.2s0.5,0,0.8-0.2l30-17.3l0,0l0,0l0,0c0.5-0.3,0.7-0.8,0.7-1.4v-34.6
		l0,0v-0.2l0,0c0-0.5-0.3-0.8-0.8-1.2l-29.4-17V95.5l29.2-17l0.2-0.2c0.5-0.3,0.7-0.8,0.7-1.4V42.3l0,0L191.6,42.2L191.6,42.2z
		 M11.5,45.2l22.6,13.1c-0.2,0.5-0.2,1-0.2,1.5s0,1,0.2,1.5L11.5,74.5V45.2z M11.5,149.1l22.6,13.1c-0.2,0.5-0.2,0.8-0.2,1.4
		s0.2,1.2,0.3,1.7l-22.5,13v-29.2H11.5z M38.3,195.6L13.2,181l22.9-13.2c0.7,0.5,1.5,0.8,2.2,1V195.6z M38.3,158.1
		c-1,0.2-1.9,0.7-2.5,1.2l-22.6-13.1l25.1-14.6V158.1z M38.3,91.6L13.2,77l22.7-13.1c0.7,0.5,1.5,1,2.4,1.2
		C38.3,65.1,38.3,91.6,38.3,91.6z M38.3,54.5c-0.8,0.2-1.7,0.5-2.4,1.2L13.2,42.3l25.1-14.5V54.5z M41.6,27.8l25.3,14.6L43.3,56
		c-0.5-0.5-1-0.8-1.7-1.2V27.8z M41.6,64.7c0.7-0.3,1.2-0.7,1.7-1.2l21.4,12.4c0,0.5,0,0.8,0,1.4c0,0.3,0,0.7,0.2,1.2L41.6,91.6
		V64.7z M64.8,147.5l-21.4,12.4c-0.5-0.5-1.2-1-1.9-1.4V132l23.1,13.5c0,0.3-0.2,0.7-0.2,1C64.6,146.8,64.6,147.1,64.8,147.5z
		 M43.3,129.1l23-13.4c0.5,0.5,1.2,1,2,1.2v24.3c-0.7,0.2-1.4,0.7-1.9,1.2L43.3,129.1z M66.3,108l-23-13.4l23-13.5
		c0.5,0.5,1.2,0.8,1.9,1.2v24.4C67.6,106.9,66.9,107.4,66.3,108z M41.6,97.3l23.3,13.4c0,0.3-0.2,0.7-0.2,1.2c0,0.3,0,0.7,0.2,1.2
		l-23.3,13.4L41.6,97.3L41.6,97.3z M41.6,195.6v-27.2c0.5-0.3,1-0.7,1.5-1l23.6,13.7L41.6,195.6z M68.4,178.3l-23.8-13.7
		c0-0.3,0.2-0.7,0.2-1c0-0.2,0-0.5,0-0.7l21.5-12.6c0.5,0.5,1.4,1,2,1.2L68.4,178.3L68.4,178.3z M68.4,72c-0.8,0.2-1.5,0.7-2,1.2
		L44.8,60.5c0-0.3,0-0.5,0-0.8s0-0.5,0-0.8l23.8-13.7V72H68.4L68.4,72z M71.6,45.2l23.1,13.2c-0.2,0.3-0.2,0.8-0.2,1.2
		s0,0.8,0.2,1.2l-20.9,12c-0.7-0.5-1.4-1-2-1.2V45.2H71.6z M71.4,82.3c0.8-0.2,1.5-0.7,2.2-1.2l21,12.2c-0.2,0.3-0.2,0.8-0.2,1.2
		s0,0.8,0.2,1.2l-21,12.2c-0.7-0.5-1.4-1-2.2-1.2V82.3L71.4,82.3z M75.3,110.6l20.9-12.2c0.5,0.5,1.4,1,2,1.2v24.3
		c-0.8,0.3-1.5,0.7-2.2,1.4l-20.9-12c0.2-0.3,0.2-0.8,0.2-1.2C75.5,111.5,75.3,111,75.3,110.6z M71.4,117c0.8-0.2,1.5-0.7,2-1.2
		l21,12c0,0.3-0.2,0.7-0.2,1s0,0.8,0.2,1.2l-21,12c-0.7-0.5-1.4-1-2.2-1.2V117H71.4z M71.6,151.6c0.7-0.2,1.5-0.7,2-1.2l20.9,12
		c0,0.3-0.2,0.7-0.2,1c0,0.5,0,1,0.2,1.4l-23.1,13.4v-26.6L71.6,151.6L71.6,151.6z M98.4,195.6L73.3,181l23.4-13.3
		c0.5,0.5,1.2,0.8,2,1v27L98.4,195.6L98.4,195.6z M98.4,158.3c-0.8,0.2-1.7,0.7-2.2,1.4l-20.9-12c0.2-0.3,0.2-0.8,0.2-1.2
		s0-0.7-0.2-1.2l21-12.2c0.5,0.5,1.4,0.8,2,1.2L98.4,158.3L98.4,158.3z M98.4,89.3c-0.8,0.2-1.5,0.7-2.2,1.2l-21-12
		c0.2-0.3,0.2-0.8,0.2-1.2c0-0.3,0-0.8-0.2-1.2l21-12c0.7,0.5,1.4,1,2,1.2v24.1L98.4,89.3L98.4,89.3z M98.4,54.7
		c-0.8,0.2-1.5,0.7-2,1.2L73.3,42.3l25.1-14.5V54.7z M101.7,27.8l25.1,14.6l-23,13.4c-0.5-0.5-1.2-1-2-1.2L101.7,27.8L101.7,27.8z
		 M101.7,65c0.7-0.2,1.4-0.7,2-1.2L124.9,76c-0.2,0.3-0.2,0.8-0.2,1.2c0,0.3,0,0.7,0.2,1.2l-21.1,12.2c-0.5-0.5-1.2-0.8-1.9-1.2V65
		H101.7z M124.8,147.5l-21,12.2c-0.7-0.7-1.4-1-2-1.4V134c0.7-0.2,1.4-0.5,1.9-1l21.2,12.2c0,0.3-0.2,0.7-0.2,1
		C124.8,146.8,124.8,147.1,124.8,147.5z M105.3,130.1c0.2-0.3,0.2-0.8,0.2-1.2s0-0.7-0.2-1l21-12.2c0.5,0.5,1.2,1,2,1.2v24.3
		c-0.7,0.2-1.4,0.7-1.9,1.2L105.3,130.1z M126.4,108l-21.2-12.3c0.2-0.3,0.2-0.8,0.2-1.2s0-0.7-0.2-1.2l21.2-12.2
		c0.5,0.5,1.2,0.8,1.9,1.2v24.4C127.7,106.9,126.9,107.4,126.4,108z M101.5,99.5c0.7-0.2,1.5-0.7,2-1.2l21.2,12.2
		c0,0.3-0.2,0.7-0.2,1.2c0,0.3,0,0.7,0.2,1.2l-21,12c-0.7-0.7-1.4-1-2.2-1.4V99.5z M101.7,195.6v-27c0.7-0.2,1.4-0.7,1.9-1
		l23.3,13.4L101.7,195.6z M128.5,178.3l-23.3-13.4c0.2-0.5,0.2-0.8,0.2-1.4c0-0.3,0-0.7-0.2-1l21.2-12.2c0.5,0.5,1.4,1,2,1.2v26.8
		L128.5,178.3L128.5,178.3z M128.5,72c-0.8,0.2-1.5,0.7-2,1.2l-21.3-12.3c0.2-0.3,0.2-0.7,0.2-1.2s0-0.7-0.2-1.2l23.3-13.4V72z
		 M131.8,45.2l23.1,13.4c-0.2,0.3-0.2,0.8-0.2,1.2s0,0.8,0.2,1.2l-21,12.2c-0.7-0.5-1.4-1-2-1.2V45.2H131.8z M131.5,82.3
		c0.8-0.2,1.5-0.7,2.2-1.2l23.1,13.4l-23.1,13.4c-0.7-0.5-1.4-1-2.2-1.2C131.6,106.7,131.6,82.3,131.5,82.3z M135.4,110.6l23.1-13.2
		v29.2l-23.1-13.2c0.2-0.3,0.2-0.8,0.2-1.2C135.4,111.5,135.4,111,135.4,110.6z M131.5,117c0.8-0.2,1.5-0.7,2.2-1.2l22.9,13.2
		l-22.9,13.2c-0.7-0.5-1.4-1-2.2-1.2C131.5,141.1,131.5,117,131.5,117z M131.8,151.6c0.7-0.2,1.5-0.7,2-1.2l21,12.2
		c0,0.3-0.2,0.7-0.2,1c0,0.5,0,0.8,0.2,1.4l-23.1,13.4v-26.8L131.8,151.6L131.8,151.6z M158.5,195.6L133.4,181l23.3-13.4
		c0.5,0.5,1.2,0.8,1.9,1L158.5,195.6L158.5,195.6z M158.5,158.3c-0.8,0.3-1.5,0.7-2.2,1.4l-20.9-12c0.2-0.3,0.2-0.8,0.2-1.2
		s0-0.7-0.2-1.2l23.1-13.4L158.5,158.3L158.5,158.3z M158.5,91.6l-23.1-13.4c0.2-0.3,0.2-0.8,0.2-1.2c0-0.3,0-0.8-0.2-1.2l21-12.2
		c0.5,0.5,1.4,1,2,1.2L158.5,91.6L158.5,91.6z M158.5,54.7c-0.7,0.2-1.5,0.7-2,1.2l-23.3-13.4l25.1-14.6v26.8
		C158.4,54.6,158.5,54.6,158.5,54.7z M188.5,178.3l-23.1-13.4c0.2-0.5,0.2-0.8,0.2-1.4c0-0.3,0-0.7-0.2-1l23.1-13.4V178.3z
		 M161.8,131.9l25.1,14.6l-23.1,13.2c-0.7-0.7-1.4-1-2.2-1.4v-26.5L161.8,131.9L161.8,131.9z M161.8,168.6c0.7-0.2,1.4-0.5,1.9-1
		L187,181l-25.1,14.6L161.8,168.6L161.8,168.6z M161.8,27.8l25.1,14.6l-23.1,13.4c-0.5-0.5-1.4-1-2-1.2V27.8L161.8,27.8z
		 M161.8,91.6V65c0.7-0.2,1.5-0.7,2-1.2l23.1,13.4L161.8,91.6z M188.5,74.4L165.4,61c0.2-0.3,0.2-0.8,0.2-1.2s0-0.8-0.2-1.2
		l23.1-13.4V74.4z"/>
</g>
</svg>
