<?xml version="1.0" encoding="utf-8"?>
<!-- Generator: Adobe Illustrator 23.0.3, SVG Export Plug-In . SVG Version: 6.00 Build 0)  -->
<svg version="1.1" id="Layer_1" xmlns="http://www.w3.org/2000/svg" xmlns:xlink="http://www.w3.org/1999/xlink" x="0px" y="0px"
	 viewBox="0 0 200 200" style="enable-background:new 0 0 200 200;" xml:space="preserve">
<style type="text/css">
	.st0{fill:#FFFF00;}
</style>
<g>
	<path class="st0" d="M90.2,190.7c0,0.5,0.2,1,0.5,1.4c0.3,0.3,0.8,0.5,1.4,0.5s1-0.2,1.4-0.5l11.9-11.9c0.7-0.7,0.7-1.9,0-2.7
		c-0.7-0.7-1.9-0.7-2.7,0l-11.9,11.7C90.4,189.9,90.2,190.2,90.2,190.7z M103.1,178.3L103.1,178.3L103.1,178.3L103.1,178.3
		L103.1,178.3z M91.4,191.6L91.4,191.6L91.4,191.6L91.4,191.6z"/>
	<path class="st0" d="M97.2,190.7c0,0.5,0.2,1,0.5,1.4c0.3,0.3,0.8,0.5,1.4,0.5s1-0.2,1.4-0.5l11.9-11.9c0.7-0.7,0.7-1.9,0-2.7
		c-0.7-0.7-1.9-0.7-2.7,0l-12,11.9C97.5,189.9,97.2,190.2,97.2,190.7z M110.3,178.3L110.3,178.3L110.3,178.3L110.3,178.3z"/>
	<path class="st0" d="M21.3,191.2c3.6,0,6.3-2.9,6.3-6.3c0-3.4-2.9-6.3-6.3-6.3s-6.3,2.9-6.3,6.3C15,188.3,17.8,191.2,21.3,191.2z
		 M21.3,182.2c1.4,0,2.5,1.2,2.5,2.5c0,1.3-1.2,2.5-2.5,2.5s-2.5-1.2-2.5-2.5C18.8,183.4,20,182.2,21.3,182.2z"/>
	<path class="st0" d="M116.7,169.9H7.8c-1,0-1.9,0.8-1.9,1.9v26.3c0,1,0.8,1.9,1.9,1.9h109c1,0,1.9-0.8,1.9-1.9v-26.4
		C118.6,170.7,117.7,169.9,116.7,169.9z M114.9,196.2H9.6v-22.6h105.3V196.2z"/>
	<path class="st0" d="M63.8,131.2c1,0,1.7-0.7,1.9-1.7c1.3-11.6,11.1-20.2,22.7-20.2c1,0,1.9-0.8,1.9-1.9s-0.8-1.9-1.9-1.9
		c-13.4,0-24.8,10-26.5,23.4c-0.2,1,0.7,2,1.7,2L63.8,131.2z"/>
	<path class="st0" d="M161.5,121.5c-1.7,0-3.6,0.2-5.3,0.5c-6.2-10.5-17.6-17.1-29.8-17.1c-5.8,0-11.4,1.5-16.5,4.2
		C103.8,102,95,97.9,85.7,97.9c-17.3,0-31.4,13.4-32.3,30.7c-13.9,2.4-24.3,14.6-24.3,28.9c0,3.1,0.5,6.3,1.5,9.2
		c0.3,1,1.4,1.5,2.4,1.2c0.5-0.2,0.8-0.5,1-1c0.2-0.5,0.3-1,0.2-1.4c-0.8-2.5-1.4-5.3-1.4-8c0-12.9,9.7-23.8,22.6-25.3l1.5-0.3v-1.5
		c0-15.6,12.7-28.5,28.5-28.5c8.8,0,17,3.9,22.4,10.9l1,1.4l1.4-0.8c4.8-2.9,10.4-4.4,16-4.4c11.4,0,21.9,6.3,27.3,16.3l0.7,1.2
		l1.4-0.3c1.9-0.3,3.9-0.7,5.9-0.7c16,0,28.9,12.9,28.9,28.9s-12.9,28.5-28.9,28.5h-36.8c-1,0-1.9,0.8-1.9,1.9s0.8,1.9,1.9,1.9h36.8
		c18,0,32.6-14.6,32.6-32.6S179.5,121.5,161.5,121.5z"/>
	<path class="st0" d="M76.2,190.7c0,0.5,0.2,1,0.5,1.4c0.3,0.3,0.8,0.5,1.4,0.5c0.5,0,1-0.2,1.4-0.5l11.9-11.9
		c0.7-0.7,0.7-1.9,0-2.7c-0.7-0.7-1.9-0.7-2.7,0l-12,11.7C76.3,189.9,76.2,190.2,76.2,190.7z M77.3,191.6L77.3,191.6L77.3,191.6
		L77.3,191.6z"/>
	<path class="st0" d="M71.1,192.6c0.5,0,1-0.2,1.4-0.5l11.9-11.9c0.7-0.7,0.7-1.9,0-2.7c-0.7-0.7-1.9-0.7-2.7,0l-12,11.9
		c-0.3,0.3-0.5,0.8-0.5,1.4s0.2,1,0.5,1.4C70.1,192.4,70.6,192.6,71.1,192.6z M82.1,178.3L82.1,178.3L82.1,178.3L82.1,178.3z"/>
	<path class="st0" d="M83.8,192.1c0.3,0.3,0.8,0.5,1.4,0.5c0.5,0,1-0.2,1.4-0.5l11.9-11.9c0.7-0.7,0.7-1.9,0-2.7
		c-0.7-0.7-1.9-0.7-2.7,0l-12,11.9C82.9,190.2,82.9,191.4,83.8,192.1z M96.2,178.3L96.2,178.3L96.2,178.3L96.2,178.3z"/>
</g>
</svg>
