<?xml version="1.0" encoding="utf-8"?>
<!-- Generator: Adobe Illustrator 17.1.0, SVG Export Plug-In . SVG Version: 6.00 Build 0)  -->
<!DOCTYPE svg PUBLIC "-//W3C//DTD SVG 1.1//EN" "http://www.w3.org/Graphics/SVG/1.1/DTD/svg11.dtd">
<svg version="1.1" id="Layer_1" xmlns="http://www.w3.org/2000/svg" xmlns:xlink="http://www.w3.org/1999/xlink" x="0px" y="0px"
	 viewBox="0 0 103.7 176.5" enable-background="new 0 0 103.7 176.5" xml:space="preserve">
<g>
	<path fill="#FFFF00" d="M65,139.3c0.3,0.3,0.8,0.5,1.4,0.5s1-0.2,1.4-0.5l10.9-10.9c0.7-0.7,0.7-1.9,0-2.5c-0.7-0.7-1.9-0.7-2.5,0
		l-10.9,10.9C64.3,137.5,64.3,138.7,65,139.3z"/>
	<path fill="#FFFF00" d="M71.4,139.3c0.3,0.3,0.8,0.5,1.4,0.5s1-0.2,1.4-0.5L85,128.5c0.7-0.7,0.7-1.9,0-2.5c-0.7-0.7-1.9-0.7-2.5,0
		l-10.9,10.9C70.8,137.5,70.8,138.7,71.4,139.3z"/>
	<path fill="#FFFF00" d="M14.4,138.7c3.2,0,5.9-2.7,5.9-5.9s-2.7-5.9-5.9-5.9s-5.9,2.7-5.9,5.9S11.2,138.7,14.4,138.7z M14.4,130.3
		c0.7,0,1.2,0.2,1.7,0.7c0.5,0.5,0.7,1,0.7,1.7c0,1.4-1,2.4-2.4,2.4s-2.4-1-2.4-2.4C12,131.4,13.1,130.3,14.4,130.3z"/>
	<path fill="#FFFF00" d="M77.9,139.3c0.3,0.3,0.8,0.5,1.4,0.5s1-0.2,1.4-0.5l10.9-10.9c0.7-0.7,0.7-1.9,0-2.5
		c-0.7-0.7-1.9-0.7-2.5,0l-10.9,10.9C77.2,137.5,77.2,138.7,77.9,139.3z"/>
	<path fill="#FFFF00" d="M59.9,139.8c0.5,0,1-0.2,1.4-0.5l10.9-10.9c0.7-0.7,0.7-1.9,0-2.5c-0.7-0.7-1.9-0.7-2.5,0l-10.9,10.9
		c-0.7,0.7-0.7,1.9,0,2.5C58.9,139.7,59.4,139.8,59.9,139.8z"/>
	<path fill="#FFFF00" d="M59.9,169.7c0.5,0,1-0.2,1.4-0.5l10.9-10.9c0.7-0.7,0.7-1.9,0-2.5s-1.9-0.7-2.5,0l-10.9,10.9
		c-0.7,0.7-0.7,1.9,0,2.5C58.9,169.5,59.4,169.7,59.9,169.7z"/>
	<path fill="#FFFF00" d="M77.9,169.2c0.3,0.3,0.8,0.5,1.4,0.5s1-0.2,1.4-0.5l10.9-10.9c0.7-0.7,0.7-1.9,0-2.5s-1.9-0.7-2.5,0
		l-10.9,10.9C77.2,167.3,77.2,168.5,77.9,169.2z"/>
	<path fill="#FFFF00" d="M84.3,169.2c0.3,0.3,0.8,0.5,1.4,0.5c0.5,0,1-0.2,1.4-0.5l10.9-10.9c0.7-0.7,0.7-1.9,0-2.5s-1.9-0.7-2.5,0
		l-10.9,10.9C83.7,167.3,83.7,168.5,84.3,169.2z"/>
	<path fill="#FFFF00" d="M71.4,169.2c0.3,0.3,0.8,0.5,1.4,0.5s1-0.2,1.4-0.5L85,158.3c0.7-0.7,0.7-1.9,0-2.5s-1.9-0.7-2.5,0
		l-10.9,10.9C70.8,167.3,70.8,168.5,71.4,169.2z"/>
	<path fill="#FFFF00" d="M85.7,0.7C85.4,0.2,84.9,0,84.2,0H19.3c-0.5,0-1.2,0.3-1.5,0.7L0.5,24.9c-0.3,0.5-0.5,1.2-0.2,1.9
		c0.3,0.7,0.8,1,1.5,1h100c1,0,1.9-0.8,1.9-1.9c0-0.5-0.2-1-0.5-1.4L85.7,0.7z M5.4,24.3L20.4,3.6h63.1l14.9,20.7H5.4z"/>
	<path fill="#FFFF00" d="M65,169.2c0.3,0.3,0.8,0.5,1.4,0.5s1-0.2,1.4-0.5l10.9-10.9c0.7-0.7,0.7-1.9,0-2.5s-1.9-0.7-2.5,0
		l-10.9,10.9C64.3,167.3,64.3,168.5,65,169.2z"/>
	<path fill="#FFFF00" d="M14.4,168.4c3.2,0,5.9-2.7,5.9-5.9c0-3.2-2.7-5.9-5.9-5.9s-5.9,2.7-5.9,5.9
		C8.5,165.6,11.2,168.4,14.4,168.4z M14.4,160.2c1.2,0,2.4,1,2.4,2.4c0,1.4-1,2.4-2.4,2.4s-2.4-1-2.4-2.4
		C12,161.2,13.1,160.2,14.4,160.2z"/>
	<path fill="#FFFF00" d="M101.8,148.5H1.9c-1,0-1.9,0.8-1.9,1.9v24.3c0,1,0.8,1.9,1.9,1.9h99.8c1,0,1.9-0.8,1.9-1.9v-24.3
		C103.5,149.3,102.7,148.5,101.8,148.5z M100,172.8H3.7v-20.7H100V172.8z"/>
	<path fill="#FFFF00" d="M101.8,118.6H1.9c-1,0-1.9,0.8-1.9,1.9v24.3c0,1,0.8,1.9,1.9,1.9h99.8c1,0,1.9-0.8,1.9-1.9v-24.3
		C103.5,119.5,102.7,118.6,101.8,118.6z M100,142.9H3.7v-20.5H100V142.9z"/>
	<path fill="#FFFF00" d="M84.3,139.3c0.3,0.3,0.8,0.5,1.4,0.5c0.5,0,1-0.2,1.4-0.5l10.9-10.9c0.7-0.7,0.7-1.9,0-2.5
		c-0.7-0.7-1.9-0.7-2.5,0l-10.9,10.9C83.7,137.5,83.7,138.7,84.3,139.3z"/>
	<path fill="#FFFF00" d="M77.9,109.5c0.3,0.3,0.8,0.5,1.4,0.5s1-0.2,1.4-0.5l10.9-10.9c0.7-0.7,0.7-1.9,0-2.5
		c-0.7-0.7-1.9-0.7-2.5,0l-10.9,10.9C77.2,107.8,77.2,108.8,77.9,109.5z"/>
	<path fill="#FFFF00" d="M84.3,49.9c0.3,0.3,0.8,0.5,1.4,0.5c0.5,0,1-0.2,1.4-0.5L97.9,39c0.7-0.7,0.7-1.9,0-2.5
		c-0.7-0.7-1.9-0.7-2.5,0L84.5,47.3C83.7,48,83.7,49.2,84.3,49.9z"/>
	<path fill="#FFFF00" d="M77.4,48.7c0,0.5,0.2,1,0.5,1.4c0.3,0.3,0.8,0.5,1.4,0.5c0.5,0,1-0.2,1.4-0.5l10.9-10.9
		c0.7-0.7,0.7-1.9,0-2.5c-0.7-0.7-1.9-0.7-2.5,0L78.1,47.5C77.6,47.7,77.4,48.2,77.4,48.7z"/>
	<path fill="#FFFF00" d="M59.9,80.3c0.5,0,1-0.2,1.4-0.5l10.9-10.9c0.7-0.7,0.7-1.9,0-2.5s-1.9-0.7-2.5,0L58.7,77.2
		c-0.7,0.7-0.7,1.9,0,2.5C58.9,80.1,59.4,80.3,59.9,80.3z"/>
	<path fill="#FFFF00" d="M71.4,49.9c0.3,0.3,0.8,0.5,1.4,0.5s1-0.2,1.4-0.5L85,39c0.7-0.7,0.7-1.9,0-2.5c-0.7-0.7-1.9-0.7-2.5,0
		L71.6,47.3C70.8,48,70.8,49.2,71.4,49.9z"/>
	<path fill="#FFFF00" d="M14.4,78.9c3.2,0,5.9-2.7,5.9-5.9S17.6,67,14.4,67S8.5,69.8,8.5,73C8.5,76.4,11.2,78.9,14.4,78.9z
		 M14.4,70.8c1.2,0,2.4,1,2.4,2.4s-1,2.4-2.4,2.4s-2.4-1-2.4-2.4C12,71.8,13.1,70.8,14.4,70.8z"/>
	<path fill="#FFFF00" d="M101.8,59.1H1.9c-1,0-1.9,0.8-1.9,1.9v24.3c0,1,0.8,1.9,1.9,1.9h99.8c1,0,1.9-0.8,1.9-1.9V60.9
		C103.5,59.9,102.7,59.1,101.8,59.1z M100,83.3H3.7V62.6H100V83.3z"/>
	<path fill="#FFFF00" d="M14.4,49.2c3.2,0,5.9-2.7,5.9-5.9c0-3.2-2.7-5.9-5.9-5.9s-5.9,2.7-5.9,5.9C8.5,46.5,11.2,49.2,14.4,49.2z
		 M14.4,40.9c0.7,0,1.2,0.2,1.7,0.7c0.5,0.5,0.7,1,0.7,1.7c0,1.4-1,2.4-2.4,2.4s-2.4-1-2.4-2.4C12,41.9,13.1,40.9,14.4,40.9z"/>
	<path fill="#FFFF00" d="M101.8,29.4H1.9c-1,0-1.9,0.8-1.9,1.9v24.3c0,1,0.8,1.9,1.9,1.9h99.8c1,0,1.9-0.8,1.9-1.9V31.1
		C103.5,30,102.7,29.4,101.8,29.4z M100,53.5H3.7V32.9H100V53.5z"/>
	<path fill="#FFFF00" d="M59.9,50.4c0.5,0,1-0.2,1.4-0.5L72.1,39c0.7-0.7,0.7-1.9,0-2.5c-0.7-0.7-1.9-0.7-2.5,0L58.7,47.3
		c-0.3,0.3-0.5,0.8-0.5,1.4s0.2,1,0.5,1.4C58.9,50.2,59.4,50.4,59.9,50.4z"/>
	<path fill="#FFFF00" d="M64.5,48.7c0,0.5,0.2,1,0.5,1.4c0.3,0.3,0.8,0.5,1.4,0.5s1-0.2,1.4-0.5l10.9-10.9c0.7-0.7,0.7-1.9,0-2.5
		c-0.7-0.7-1.9-0.7-2.5,0L65.2,47.5C64.7,47.7,64.5,48.2,64.5,48.7z"/>
	<path fill="#FFFF00" d="M65,79.8c0.3,0.3,0.8,0.5,1.4,0.5s1-0.2,1.4-0.5l10.9-10.9c0.7-0.7,0.7-1.9,0-2.5c-0.7-0.7-1.9-0.7-2.5,0
		L65.2,77.2C64.3,77.9,64.3,79.1,65,79.8z"/>
	<path fill="#FFFF00" d="M84.3,109.5c0.3,0.3,0.8,0.5,1.4,0.5c0.5,0,1-0.2,1.4-0.5l10.9-10.9c0.7-0.7,0.7-1.9,0-2.5
		c-0.7-0.7-1.9-0.7-2.5,0l-10.9,10.9C83.7,107.8,83.7,108.8,84.3,109.5z"/>
	<path fill="#FFFF00" d="M59.9,110.1c0.5,0,1-0.2,1.4-0.5l10.9-10.9c0.7-0.7,0.7-1.9,0-2.5c-0.7-0.7-1.9-0.7-2.5,0l-10.9,10.9
		c-0.7,0.7-0.7,1.9,0,2.5C58.9,109.8,59.4,110.1,59.9,110.1z"/>
	<path fill="#FFFF00" d="M65,109.5c0.3,0.3,0.8,0.5,1.4,0.5s1-0.2,1.4-0.5l10.9-10.9c0.7-0.7,0.7-1.9,0-2.5c-0.7-0.7-1.9-0.7-2.5,0
		l-10.9,10.9C64.3,107.8,64.3,108.8,65,109.5z"/>
	<path fill="#FFFF00" d="M71.4,109.5c0.3,0.3,0.8,0.5,1.4,0.5s1-0.2,1.4-0.5L85,98.6c0.7-0.7,0.7-1.9,0-2.5c-0.7-0.7-1.9-0.7-2.5,0
		l-10.9,10.9C70.8,107.8,70.8,108.8,71.4,109.5z"/>
	<path fill="#FFFF00" d="M14.4,108.8c3.2,0,5.9-2.7,5.9-5.9s-2.7-5.9-5.9-5.9c-3.2,0-5.9,2.7-5.9,5.9S11.2,108.8,14.4,108.8z
		 M14.4,100.5c0.7,0,1.2,0.2,1.7,0.7c0.5,0.5,0.7,1,0.7,1.7c0,1.4-1,2.4-2.4,2.4s-2.4-1-2.4-2.4S13.1,100.5,14.4,100.5z"/>
	<path fill="#FFFF00" d="M71.4,79.8c0.3,0.3,0.8,0.5,1.4,0.5s0.8-0.2,1.4-0.5L85,68.9c0.7-0.7,0.7-1.9,0-2.5c-0.7-0.7-1.9-0.7-2.5,0
		L71.6,77.2C70.8,77.9,70.8,79.1,71.4,79.8z"/>
	<path fill="#FFFF00" d="M77.9,79.8c0.3,0.3,0.8,0.5,1.4,0.5s0.8-0.2,1.4-0.5l10.9-10.9c0.7-0.7,0.7-1.9,0-2.5
		c-0.7-0.7-1.9-0.7-2.5,0L78.1,77.2C77.2,77.9,77.2,79.1,77.9,79.8z"/>
	<path fill="#FFFF00" d="M84.3,79.8c0.3,0.3,0.8,0.5,1.4,0.5c0.5,0,0.8-0.2,1.4-0.5l10.9-10.9c0.7-0.7,0.7-1.9,0-2.5
		c-0.7-0.7-1.9-0.7-2.5,0L84.5,77.2C83.7,77.9,83.7,79.1,84.3,79.8z"/>
	<path fill="#FFFF00" d="M101.8,88.9H1.9c-1,0-1.9,0.8-1.9,1.9v24.3c0,1,0.8,1.9,1.9,1.9h99.8c1,0,1.9-0.8,1.9-1.9V90.6
		C103.5,89.8,102.7,88.9,101.8,88.9z M100,113.2H3.7V92.5H100V113.2z"/>
</g>
</svg>
