<?xml version="1.0" encoding="utf-8"?>
<!-- Generator: Adobe Illustrator 17.1.0, SVG Export Plug-In . SVG Version: 6.00 Build 0)  -->
<!DOCTYPE svg PUBLIC "-//W3C//DTD SVG 1.1//EN" "http://www.w3.org/Graphics/SVG/1.1/DTD/svg11.dtd">
<svg version="1.1" id="Layer_1" xmlns="http://www.w3.org/2000/svg" xmlns:xlink="http://www.w3.org/1999/xlink" x="0px" y="0px"
	 viewBox="0 0 188.2 102" enable-background="new 0 0 188.2 102" xml:space="preserve">
<g>
	<path fill="#FFFF00" d="M84.3,92.8c0,0.5,0.2,1,0.5,1.4c0.3,0.3,0.8,0.5,1.4,0.5s1-0.2,1.4-0.5l11.9-11.9c0.7-0.7,0.7-1.9,0-2.7
		c-0.7-0.7-1.9-0.7-2.7,0L84.9,91.3C84.5,92,84.3,92.3,84.3,92.8z M97.2,80.4L97.2,80.4L97.2,80.4L97.2,80.4L97.2,80.4z M85.5,93.7
		L85.5,93.7L85.5,93.7L85.5,93.7z"/>
	<path fill="#FFFF00" d="M91.3,92.8c0,0.5,0.2,1,0.5,1.4c0.3,0.3,0.8,0.5,1.4,0.5s1-0.2,1.4-0.5l11.9-11.9c0.7-0.7,0.7-1.9,0-2.7
		c-0.7-0.7-1.9-0.7-2.7,0L91.8,91.5C91.6,92,91.3,92.3,91.3,92.8z M104.4,80.4L104.4,80.4L104.4,80.4L104.4,80.4z"/>
	<path fill="#FFFF00" d="M15.4,93.3c3.6,0,6.3-2.9,6.3-6.3s-2.9-6.3-6.3-6.3s-6.3,2.9-6.3,6.3S11.9,93.3,15.4,93.3z M15.4,84.3
		c1.4,0,2.5,1.2,2.5,2.5s-1.2,2.5-2.5,2.5s-2.5-1.2-2.5-2.5S14.1,84.3,15.4,84.3z"/>
	<path fill="#FFFF00" d="M110.8,72H1.9c-1,0-1.9,0.8-1.9,1.9v26.3c0,1,0.8,1.9,1.9,1.9h109c1,0,1.9-0.8,1.9-1.9V73.8
		C112.7,72.8,111.8,72,110.8,72z M109,98.3H3.7V75.7H109V98.3z"/>
	<path fill="#FFFF00" d="M57.9,33.3c1,0,1.7-0.7,1.9-1.7C61.1,20,70.9,11.4,82.5,11.4c1,0,1.9-0.8,1.9-1.9s-0.8-1.9-1.9-1.9
		c-13.4,0-24.8,10-26.5,23.4c-0.2,1,0.7,2,1.7,2L57.9,33.3z"/>
	<path fill="#FFFF00" d="M155.6,23.6c-1.7,0-3.6,0.2-5.3,0.5C144.1,13.6,132.7,7,120.5,7c-5.8,0-11.4,1.5-16.5,4.2
		C97.9,4.1,89.1,0,79.8,0C62.5,0,48.4,13.4,47.5,30.7c-13.9,2.4-24.3,14.6-24.3,28.9c0,3.1,0.5,6.3,1.5,9.2c0.3,1,1.4,1.5,2.4,1.2
		c0.5-0.2,0.8-0.5,1-1c0.2-0.5,0.3-1,0.2-1.4c-0.8-2.5-1.4-5.3-1.4-8c0-12.9,9.7-23.8,22.6-25.3l1.5-0.3v-1.5
		c0-15.6,12.7-28.5,28.5-28.5c8.8,0,17,3.9,22.4,10.9l1,1.4l1.4-0.8c4.8-2.9,10.4-4.4,16-4.4c11.4,0,21.9,6.3,27.3,16.3l0.7,1.2
		l1.4-0.3c1.9-0.3,3.9-0.7,5.9-0.7c16,0,28.9,12.9,28.9,28.9S171.6,85,155.6,85h-36.8c-1,0-1.9,0.8-1.9,1.9s0.8,1.9,1.9,1.9h36.8
		c18,0,32.6-14.6,32.6-32.6C188.2,38.2,173.6,23.6,155.6,23.6z"/>
	<path fill="#FFFF00" d="M70.3,92.8c0,0.5,0.2,1,0.5,1.4c0.3,0.3,0.8,0.5,1.4,0.5c0.5,0,1-0.2,1.4-0.5l11.9-11.9
		c0.7-0.7,0.7-1.9,0-2.7c-0.7-0.7-1.9-0.7-2.7,0L70.8,91.3C70.4,92,70.3,92.3,70.3,92.8z M71.4,93.7L71.4,93.7L71.4,93.7L71.4,93.7z
		"/>
	<path fill="#FFFF00" d="M65.2,94.7c0.5,0,1-0.2,1.4-0.5l11.9-11.9c0.7-0.7,0.7-1.9,0-2.7c-0.7-0.7-1.9-0.7-2.7,0L63.8,91.5
		c-0.3,0.3-0.5,0.8-0.5,1.4s0.2,1,0.5,1.4C64.2,94.5,64.7,94.7,65.2,94.7z M76.2,80.4L76.2,80.4L76.2,80.4L76.2,80.4z"/>
	<path fill="#FFFF00" d="M77.9,94.2c0.3,0.3,0.8,0.5,1.4,0.5c0.5,0,1-0.2,1.4-0.5l11.9-11.9c0.7-0.7,0.7-1.9,0-2.7
		c-0.7-0.7-1.9-0.7-2.7,0L77.9,91.5C77,92.3,77,93.5,77.9,94.2z M90.3,80.4L90.3,80.4L90.3,80.4L90.3,80.4z"/>
</g>
</svg>
