<?xml version="1.0" encoding="utf-8"?>
<!-- Generator: Adobe Illustrator 23.0.3, SVG Export Plug-In . SVG Version: 6.00 Build 0)  -->
<svg version="1.1" id="Layer_1" xmlns="http://www.w3.org/2000/svg" xmlns:xlink="http://www.w3.org/1999/xlink" x="0px" y="0px"
	 viewBox="0 0 200 200" style="enable-background:new 0 0 200 200;" xml:space="preserve">
<style type="text/css">
	.st0{fill:#FFFF00;}
</style>
<g>
	<path class="st0" d="M100,11.6c-51.9,0-94.2,42.3-94.2,94.2c0,1.7,0,3.4,0.2,5.4c-0.2,0.4-0.2,0.7-0.2,0.9c0,0.3,0.2,0.5,0.3,0.8
		C9.8,161.8,50.9,200,100,200c51.9,0,94.2-42.3,94.2-94.2S151.9,11.6,100,11.6z M9.4,105.8c0-49.9,40.5-90.5,90.4-90.5
		c9,0,17.8,1.4,26.3,3.9c2.9,6.6,5.1,13.9,6.4,21.6c-2,0.7-3.6,1.7-4.9,3.2c-1.5,1.9-2.5,4.2-2.9,7v0.8c0,0.2,0,0.3,0,0.7
		c0,0.2,0,0.5,0,0.7C93.5,61.3,64.1,81,43.6,107c-1.7-0.8-3.4-1.2-5.4-1.2c-5.1,0-9.2,2.7-11,7.1C20.6,111,14.3,110,9.6,110
		C9.5,108.7,9.4,107.1,9.4,105.8z M47.7,110.4c-0.3-0.3-0.7-0.8-1-1.2c19.9-25.3,48.4-44.3,78.7-52.3c1.5,4.2,4.8,7.1,9.2,7.8
		c-0.5,36.5-15.6,73.3-40.2,98.8c-2-1.4-4.4-2-7-2c-0.5,0-1,0-1.5,0.2c-8.1-15.4-21.2-29-36.5-38.5c0.7-1.5,1-3.1,1-4.8
		C50.4,115.3,49.4,112.6,47.7,110.4z M128.5,52.5c0-0.2,0-0.5,0-0.7v-0.2c0.5-4.2,4.1-7.5,8.3-7.5c2.5,0,4.9,1.2,6.6,3.2
		c1,1.5,1.5,3.2,1.5,5.3c0,1.9-0.5,3.7-1.5,5.1c-1.5,2-4.1,3.2-6.6,3.2C132.2,60.8,128.5,57.1,128.5,52.5z M46.4,118.2
		c0,1.9-0.5,3.7-1.5,5.1c-1.5,2-4.1,3.2-6.6,3.2c-4.6,0-8.3-3.7-8.3-8.3c0-4.6,3.7-8.3,8.3-8.3c2.5,0,4.9,1.2,6.6,3.2
		C45.9,114.4,46.4,116.3,46.4,118.2z M9.9,113.9c4.2,0,10.5,1.2,16.5,2.7c0,0.5-0.2,1-0.2,1.5c0,3.7,1.5,7.3,4.1,9.5
		c-3.6,7-7,13.9-9.2,22.6C14.8,139.1,10.9,126.8,9.9,113.9z M24,154.8c2-9.8,5.6-17.3,9.7-25.1c1.4,0.5,3.1,0.8,4.6,0.8
		c3.7,0,6.8-1.4,9-3.9c0.2-0.2,0.2-0.3,0.3-0.3l0,0c14.6,9,26.8,21.9,34.8,36.3c-4.2,1.9-6.8,6.3-6.8,11.2c0,1.7,0.3,3.4,1,4.9
		c-4.9,3.4-10.2,6.3-15.4,8.8C45.9,180.3,33.1,168.9,24,154.8z M65.4,189.5c4.4-2.2,8.8-4.8,12.9-7.5c2.2,2.7,5.4,4.1,9.2,4.1
		c1.2,0,2.2-0.2,3.2-0.3c0.7,3.4,1,6.8,1.2,10.2C82.7,195.2,73.9,193,65.4,189.5z M87.6,182c-4.6,0-8.3-3.7-8.3-8.3v-0.3
		c0-0.3,0-0.5,0-0.8c0.5-4.2,4.1-7.3,8.3-7.3c1.9,0,3.7,0.7,5.3,1.9c1.9,1.5,2.9,4.1,2.9,6.8c0,1.5-0.3,3.1-1,4.4
		C93,180.5,90.5,182,87.6,182z M190.4,105.8c0,49.9-40.6,90.5-90.5,90.5c-1.4,0-2.7,0-4.2-0.2c-0.2-4.1-0.5-8.1-1.4-12
		c0.8-0.5,1.5-1.2,2.2-2c0.5-0.7,1-1.4,1.4-2c1.2-1.9,1.9-4.2,1.9-6.4c0-2.7-0.8-5.4-2.5-7.5c25.3-26.1,40.6-64,41.2-101.3
		c3.1-0.3,5.6-1.7,7.3-3.7c0.2-0.2,0.2-0.3,0.3-0.3l-0.2-0.3c1.7-2,2.7-4.8,2.9-7.3c8.5-0.5,17.1-0.2,25.3,1.4
		C184.8,69.5,190.4,87.3,190.4,105.8z M156,49.1c-2.5,0-4.9,0-7.5,0.2c-0.5-1.7-1.4-3.2-2.4-4.6c-2.2-2.9-5.6-4.6-9.5-4.6
		c-0.2,0-0.2,0-0.3,0c-1.2-6.6-3.1-13.1-5.4-19.3c16,5.8,29.7,15.8,40.2,29.2C166.2,49.4,161.1,49.1,156,49.1z"/>
</g>
</svg>
