<?xml version="1.0" encoding="utf-8"?>
<!-- Generator: Adobe Illustrator 17.1.0, SVG Export Plug-In . SVG Version: 6.00 Build 0)  -->
<!DOCTYPE svg PUBLIC "-//W3C//DTD SVG 1.1//EN" "http://www.w3.org/Graphics/SVG/1.1/DTD/svg11.dtd">
<svg version="1.1" id="Layer_1" xmlns="http://www.w3.org/2000/svg" xmlns:xlink="http://www.w3.org/1999/xlink" x="0px" y="0px"
	 viewBox="0 0 188.4 188.4" enable-background="new 0 0 188.4 188.4" xml:space="preserve">
<g>
	<path fill="#FFFF00" d="M94.2,0C42.3,0,0,42.3,0,94.2c0,1.7,0,3.4,0.2,5.4C0,100,0,100.3,0,100.5c0,0.3,0.2,0.5,0.3,0.8
		c3.7,48.9,44.8,87.1,93.9,87.1c51.9,0,94.2-42.3,94.2-94.2S146.1,0,94.2,0z M3.6,94.2C3.6,44.3,44.1,3.7,94,3.7
		c9,0,17.8,1.4,26.3,3.9c2.9,6.6,5.1,13.9,6.4,21.6c-2,0.7-3.6,1.7-4.9,3.2c-1.5,1.9-2.5,4.2-2.9,7v0.8c0,0.2,0,0.3,0,0.7
		c0,0.2,0,0.5,0,0.7c-31.2,8.1-60.6,27.8-81.1,53.8c-1.7-0.8-3.4-1.2-5.4-1.2c-5.1,0-9.2,2.7-11,7.1c-6.6-1.9-12.9-2.9-17.6-2.9
		C3.7,97.1,3.6,95.5,3.6,94.2z M41.9,98.8c-0.3-0.3-0.7-0.8-1-1.2c19.9-25.3,48.4-44.3,78.7-52.3c1.5,4.2,4.8,7.1,9.2,7.8
		c-0.5,36.5-15.6,73.3-40.2,98.8c-2-1.4-4.4-2-7-2c-0.5,0-1,0-1.5,0.2c-8.1-15.4-21.2-29-36.5-38.5c0.7-1.5,1-3.1,1-4.8
		C44.6,103.7,43.6,101,41.9,98.8z M122.7,40.9c0-0.2,0-0.5,0-0.7v-0.2c0.5-4.2,4.1-7.5,8.3-7.5c2.5,0,4.9,1.2,6.6,3.2
		c1,1.5,1.5,3.2,1.5,5.3c0,1.9-0.5,3.7-1.5,5.1c-1.5,2-4.1,3.2-6.6,3.2C126.4,49.2,122.7,45.5,122.7,40.9z M40.6,106.6
		c0,1.9-0.5,3.7-1.5,5.1c-1.5,2-4.1,3.2-6.6,3.2c-4.6,0-8.3-3.7-8.3-8.3c0-4.6,3.7-8.3,8.3-8.3c2.5,0,4.9,1.2,6.6,3.2
		C40.1,102.8,40.6,104.7,40.6,106.6z M4.1,102.3c4.2,0,10.5,1.2,16.5,2.7c0,0.5-0.2,1-0.2,1.5c0,3.7,1.5,7.3,4.1,9.5
		c-3.6,7-7,13.9-9.2,22.6C9,127.5,5.1,115.2,4.1,102.3z M18.2,143.2c2-9.8,5.6-17.3,9.7-25.1c1.4,0.5,3.1,0.8,4.6,0.8
		c3.7,0,6.8-1.4,9-3.9c0.2-0.2,0.2-0.3,0.3-0.3l0,0c14.6,9,26.8,21.9,34.8,36.3c-4.2,1.9-6.8,6.3-6.8,11.2c0,1.7,0.3,3.4,1,4.9
		c-4.9,3.4-10.2,6.3-15.4,8.8C40.1,168.7,27.3,157.3,18.2,143.2z M59.6,177.9c4.4-2.2,8.8-4.8,12.9-7.5c2.2,2.7,5.4,4.1,9.2,4.1
		c1.2,0,2.2-0.2,3.2-0.3c0.7,3.4,1,6.8,1.2,10.2C76.9,183.6,68.1,181.4,59.6,177.9z M81.8,170.4c-4.6,0-8.3-3.7-8.3-8.3v-0.3
		c0-0.3,0-0.5,0-0.8c0.5-4.2,4.1-7.3,8.3-7.3c1.9,0,3.7,0.7,5.3,1.9c1.9,1.5,2.9,4.1,2.9,6.8c0,1.5-0.3,3.1-1,4.4
		C87.2,168.9,84.7,170.4,81.8,170.4z M184.6,94.2c0,49.9-40.6,90.5-90.5,90.5c-1.4,0-2.7,0-4.2-0.2c-0.2-4.1-0.5-8.1-1.4-12
		c0.8-0.5,1.5-1.2,2.2-2c0.5-0.7,1-1.4,1.4-2c1.2-1.9,1.9-4.2,1.9-6.4c0-2.7-0.8-5.4-2.5-7.5c25.3-26.1,40.6-64,41.2-101.3
		c3.1-0.3,5.6-1.7,7.3-3.7c0.2-0.2,0.2-0.3,0.3-0.3l-0.2-0.3c1.7-2,2.7-4.8,2.9-7.3c8.5-0.5,17.1-0.2,25.3,1.4
		C179,57.9,184.6,75.7,184.6,94.2z M150.2,37.5c-2.5,0-4.9,0-7.5,0.2c-0.5-1.7-1.4-3.2-2.4-4.6c-2.2-2.9-5.6-4.6-9.5-4.6
		c-0.2,0-0.2,0-0.3,0c-1.2-6.6-3.1-13.1-5.4-19.3c16,5.8,29.7,15.8,40.2,29.2C160.4,37.8,155.3,37.5,150.2,37.5z"/>
</g>
</svg>
