<?xml version="1.0" encoding="utf-8"?>
<!-- Generator: Adobe Illustrator 17.1.0, SVG Export Plug-In . SVG Version: 6.00 Build 0)  -->
<!DOCTYPE svg PUBLIC "-//W3C//DTD SVG 1.1//EN" "http://www.w3.org/Graphics/SVG/1.1/DTD/svg11.dtd">
<svg version="1.1" id="Layer_1" xmlns="http://www.w3.org/2000/svg" xmlns:xlink="http://www.w3.org/1999/xlink" x="0px" y="0px"
	 viewBox="0 0 190.9 78.9" enable-background="new 0 0 190.9 78.9" xml:space="preserve">
<path fill="#581845" d="M11.3,45.2c-1.1,0-2.2-0.7-2.7-1.7l-8.5-18c-0.4-1-0.1-1.7,0.8-1.7h3.8c1.1,0,2.2,0.7,2.7,1.7l5.3,12.2
	l5.3-12.2c0.4-1,1.6-1.7,2.7-1.7h3.8c0.9,0,1.2,0.8,0.8,1.7l-8.5,18c-0.5,1-1.6,1.7-2.7,1.7H11.3z M50.1,34.5
	c0,7.4-4.3,11.2-11.9,11.2c-7.6,0-11.9-3.8-11.9-11.2c0-7.4,4.3-11.1,11.9-11.1C45.8,23.3,50.1,27.1,50.1,34.5z M43.3,34.5
	c0-4.7-1.6-6.7-5.1-6.7c-3.4,0-5.1,1.9-5.1,6.7c0,4.7,1.6,6.7,5.1,6.7C41.6,41.2,43.3,39.2,43.3,34.5z M53.7,19
	c0-1.4,0.8-2.2,2.2-2.2h2.4c1.4,0,2.3,0.8,2.3,2.2v0.7c0,1.4-0.8,2.3-2.3,2.3h-2.4c-1.4,0-2.2-0.8-2.2-2.3V19z M55,45.2
	c-0.7,0-1.2-0.5-1.2-1.2V25.4c0-0.7,0.5-1.2,1.2-1.2h4.4c0.7,0,1.2,0.5,1.2,1.2V44c0,0.7-0.5,1.2-1.2,1.2H55z M71.3,34.5
	c0,4.4,1.3,6.4,5.3,6.4c2,0,3.5-0.8,4.2-1.8c0.6-0.9,1.2-1.4,2.2-1.4H86c0.7,0,1.2,0.5,1.2,1.2c0,4.6-4.2,6.8-11.1,6.8
	c-7.6,0-11.9-3.8-11.9-11.1c0-7.4,4.3-11.2,11.7-11.2c6.9,0,11.1,2.2,11.1,6.8c0,0.7-0.5,1.2-1.2,1.2h-2.9c-1,0-1.7-0.6-2.3-1.4
	c-0.7-1.1-2.2-1.8-4.2-1.8C72.6,28.1,71.3,30,71.3,34.5z M96.1,36.5c0.3,3.2,1.7,4.6,5,4.6c1.7,0,3.2-0.5,3.9-1.3
	c0.5-0.6,1.2-1,2.2-1h2.9c0.7,0,1.2,0.5,1.2,1.2c0,4.2-4.3,5.6-10.7,5.6c-7.2,0-11.4-3.9-11.4-11.1c0-7.2,4.3-11.2,11.4-11.2
	c7.2,0,11.5,3.8,11.5,10.9v1.1c0,0.7-0.5,1.2-1.2,1.2H96.1z M96.1,32.4h9.1c-0.1-3-1.6-4.6-4.5-4.6C97.8,27.8,96.3,29.4,96.1,32.4z
	 M34.6,67.8c0,4.4,1.3,6.4,5.3,6.4c2,0,3.5-0.8,4.2-1.8c0.6-0.9,1.2-1.4,2.2-1.4h2.9c0.7,0,1.2,0.5,1.2,1.2c0,4.6-4.2,6.8-11.1,6.8
	c-7.6,0-11.9-3.8-11.9-11.1c0-7.4,4.3-11.2,11.6-11.2c6.9,0,11.1,2.2,11.1,6.8c0,0.7-0.5,1.2-1.2,1.2h-2.9c-1,0-1.7-0.6-2.2-1.4
	c-0.7-1.1-2.2-1.8-4.2-1.8C36,61.4,34.6,63.3,34.6,67.8z M55,78.5c-0.7,0-1.2-0.5-1.2-1.2V51.6c0-0.7,0.5-1.2,1.2-1.2h4.4
	c0.7,0,1.2,0.5,1.2,1.2v25.7c0,0.7-0.5,1.2-1.2,1.2H55z M87.9,67.7c0,7.4-4.3,11.2-11.9,11.2c-7.6,0-11.9-3.8-11.9-11.2
	c0-7.4,4.3-11.1,11.9-11.1C83.7,56.6,87.9,60.4,87.9,67.7z M81.1,67.7c0-4.7-1.6-6.7-5.1-6.7c-3.4,0-5.1,1.9-5.1,6.7
	c0,4.7,1.6,6.7,5.1,6.7C79.5,74.5,81.1,72.5,81.1,67.7z M98.4,69.5c0,3.3,1.5,4.7,3.7,4.7c2,0,3.8-1.4,5.3-2.8V58.2
	c0-0.7,0.5-1.2,1.2-1.2h4.4c0.7,0,1.2,0.5,1.2,1.2v19.1c0,0.7-0.5,1.2-1.2,1.2h-4.4c-0.7,0-1.2-0.5-1.2-1.2v-1.2
	c-1.8,1.6-3.9,2.9-6.9,2.9c-5.2,0-8.9-2.8-8.9-9.4V58.2c0-0.7,0.5-1.2,1.2-1.2h4.4c0.7,0,1.2,0.5,1.2,1.2V69.5z M117.8,67.8
	c0-7.4,4.3-11.2,10.5-11.2c2.4,0,4,0.5,5.7,1v-6c0-0.7,0.5-1.2,1.2-1.2h4.4c0.7,0,1.2,0.5,1.2,1.2v25.7c0,0.7-0.5,1.2-1.2,1.2h-3.8
	c-0.7,0-1.2-0.5-1.2-1.2v-0.6c-1.8,1.3-4,2.2-6.9,2.2C122,78.9,117.8,75.1,117.8,67.8z M134,72.4V62.2c-1.6-0.5-3.3-0.8-4.3-0.8
	c-3.6,0-4.9,2-4.9,6.4c0,4.4,1.3,6.4,4.5,6.4C130.7,74.2,132.6,73.3,134,72.4z M124.5,16.3c-0.3,0.3-0.4,0.7-0.4,1.1v23.2
	c0,0.4,0.1,0.8,0.4,1.1c0.3,0.3,0.7,0.5,1.2,0.5c0.5,0,0.9-0.2,1.2-0.5c0.3-0.3,0.4-0.7,0.4-1.1V17.4c0-0.5-0.1-0.8-0.4-1.1
	C126.3,15.6,125.1,15.7,124.5,16.3z M119.2,24.7c-0.3,0.3-0.4,0.7-0.4,1.1v6.7c0,0.4,0.1,0.8,0.4,1.1c0.3,0.3,0.7,0.5,1.2,0.5
	c0.5,0,0.9-0.2,1.2-0.5c0.3-0.3,0.4-0.7,0.4-1.1v-6.7c0-0.5-0.1-0.8-0.4-1.1C121,24,119.8,24,119.2,24.7z M129.8,13.6
	c-0.3,0.3-0.4,0.7-0.4,1.1v28.5c0,0.4,0.1,0.8,0.4,1.1c0.3,0.3,0.7,0.5,1.2,0.5c0.5,0,0.9-0.2,1.2-0.5c0.3-0.3,0.4-0.7,0.4-1.1V14.7
	c0-0.5-0.1-0.8-0.4-1.1C131.6,13,130.4,13,129.8,13.6z M135.2,11.8c-0.3,0.3-0.4,0.7-0.4,1.1v30.5c0,0.4,0.1,0.8,0.4,1.1
	c0.3,0.3,0.7,0.5,1.2,0.5c0.5,0,0.9-0.2,1.2-0.5c0.3-0.3,0.4-0.7,0.4-1.1V12.9c0-0.5-0.1-0.8-0.4-1.1
	C136.9,11.2,135.7,11.2,135.2,11.8z M140.5,5c-0.3,0.3-0.4,0.7-0.4,1.1v37.4c0,0.4,0.1,0.8,0.4,1.1c0.3,0.3,0.7,0.5,1.2,0.5
	c0.5,0,0.9-0.2,1.2-0.5c0.3-0.3,0.4-0.7,0.4-1.1V6.1c0-0.5-0.1-0.8-0.4-1.1C142.2,4.3,141,4.3,140.5,5z M145.8,2
	c-0.3,0.3-0.4,0.7-0.4,1.1v40.3c0,0.4,0.1,0.8,0.4,1.1c0.3,0.3,0.7,0.5,1.2,0.5s0.9-0.2,1.2-0.5c0.3-0.3,0.4-0.7,0.4-1.1V3.2
	c0-0.5-0.1-0.8-0.4-1.1C147.5,1.4,146.3,1.4,145.8,2z M151.1,0.5c-0.3,0.3-0.4,0.7-0.4,1.1v41.9c0,0.4,0.1,0.8,0.4,1.1
	c0.3,0.3,0.7,0.5,1.2,0.5c0.5,0,0.9-0.2,1.2-0.5c0.3-0.3,0.4-0.7,0.4-1.1V1.6c0-0.5-0.1-0.8-0.4-1.1C152.8-0.2,151.6-0.2,151.1,0.5z
	 M156.4,0.5c-0.3,0.3-0.4,0.7-0.4,1.1v41.9c0,0.4,0.1,0.8,0.4,1.1c0.3,0.3,0.7,0.5,1.2,0.5c0.5,0,0.9-0.2,1.2-0.5
	c0.3-0.3,0.4-0.7,0.4-1.1V1.6c0-0.5-0.1-0.8-0.4-1.1C158.1-0.2,156.9-0.2,156.4,0.5z M161.7,1.8c-0.3,0.3-0.4,0.7-0.4,1.1v40.6
	c0,0.4,0.1,0.8,0.4,1.1c0.3,0.3,0.7,0.5,1.2,0.5c0.5,0,0.9-0.2,1.2-0.5c0.3-0.3,0.4-0.7,0.4-1.1V2.9c0-0.5-0.1-0.8-0.4-1.1
	C163.4,1.2,162.2,1.2,161.7,1.8z M167,5c-0.3,0.3-0.4,0.7-0.4,1.1v37.4c0,0.4,0.1,0.8,0.4,1.1c0.3,0.3,0.7,0.5,1.2,0.5
	c0.5,0,0.9-0.2,1.2-0.5c0.3-0.3,0.4-0.7,0.4-1.1V6.1c0-0.5-0.1-0.8-0.4-1.1C168.7,4.3,167.5,4.3,167,5z M172.3,11.1
	c-0.3,0.3-0.4,0.7-0.4,1.1v31.2c0,0.4,0.1,0.8,0.4,1.1c0.3,0.3,0.7,0.5,1.2,0.5c0.5,0,0.9-0.2,1.2-0.5c0.3-0.3,0.4-0.7,0.4-1.1V12.2
	c0-0.5-0.1-0.8-0.4-1.1C174,10.5,172.8,10.5,172.3,11.1z M177.6,19.8c-0.3,0.3-0.4,0.7-0.4,1.1v22.3c0,0.4,0.1,0.8,0.4,1.1
	c0.3,0.3,0.7,0.5,1.2,0.5c0.5,0,0.9-0.2,1.2-0.5c0.3-0.3,0.4-0.7,0.4-1.1V20.9c0-0.5-0.1-0.8-0.4-1.1
	C179.3,19.2,178.1,19.2,177.6,19.8z M182.9,21.9c-0.3,0.3-0.4,0.7-0.4,1.1v18.1c0,0.4,0.1,0.8,0.4,1.1c0.3,0.3,0.7,0.5,1.2,0.5
	c0.5,0,0.9-0.2,1.2-0.5c0.3-0.3,0.4-0.7,0.4-1.1V23.1c0-0.5-0.1-0.8-0.4-1.1C184.6,21.3,183.4,21.3,182.9,21.9z M188.2,28.4
	c-0.3,0.3-0.4,0.7-0.4,1.1v5.4c0,0.4,0.1,0.8,0.4,1.1c0.3,0.3,0.7,0.5,1.2,0.5s0.9-0.2,1.2-0.5c0.3-0.3,0.4-0.7,0.4-1.1v-5.4
	c0-0.5-0.1-0.8-0.4-1.1C189.9,27.8,188.7,27.8,188.2,28.4z"/>
</svg>
