<?xml version="1.0" encoding="utf-8"?>
<!-- Generator: Adobe Illustrator 17.1.0, SVG Export Plug-In . SVG Version: 6.00 Build 0)  -->
<!DOCTYPE svg PUBLIC "-//W3C//DTD SVG 1.1//EN" "http://www.w3.org/Graphics/SVG/1.1/DTD/svg11.dtd">
<svg version="1.1" id="Layer_1" xmlns="http://www.w3.org/2000/svg" xmlns:xlink="http://www.w3.org/1999/xlink" x="0px" y="0px"
	 viewBox="0 0 272.7 112.7" enable-background="new 0 0 272.7 112.7" xml:space="preserve">
<path fill="#FFFFFF" d="M16.2,64.6c-1.6,0-3.1-1-3.8-2.5L0.3,36.4c-0.6-1.4-0.2-2.5,1.1-2.5h5.4c1.6,0,3.2,1,3.8,2.5l7.6,17.4
	l7.6-17.4c0.6-1.5,2.2-2.5,3.8-2.5h5.4c1.3,0,1.8,1.1,1.1,2.5L24.1,62.1c-0.7,1.5-2.2,2.5-3.8,2.5H16.2z M71.5,49.2
	c0,10.6-6.1,16-16.9,16c-10.8,0-16.9-5.4-16.9-16c0-10.6,6.1-15.9,16.9-15.9C65.4,33.3,71.5,38.7,71.5,49.2z M61.8,49.2
	c0-6.8-2.4-9.5-7.2-9.5c-4.9,0-7.2,2.8-7.2,9.5c0,6.8,2.4,9.6,7.2,9.6C59.5,58.8,61.8,56,61.8,49.2z M76.7,27.1c0-2,1.2-3.2,3.2-3.2
	h3.5c2,0,3.2,1.2,3.2,3.2v1c0,2-1.2,3.2-3.2,3.2h-3.5c-2,0-3.2-1.2-3.2-3.2V27.1z M78.5,64.6c-1,0-1.7-0.7-1.7-1.7V36.3
	c0-1,0.7-1.7,1.7-1.7h6.3c1,0,1.7,0.7,1.7,1.7v26.6c0,1-0.7,1.7-1.7,1.7H78.5z M101.8,49.3c0,6.3,1.9,9.1,7.6,9.1
	c2.9,0,5.1-1.1,6-2.6c0.8-1.3,1.8-2.1,3.2-2.1h4.2c1,0,1.7,0.7,1.7,1.7c0,6.5-6,9.8-15.8,9.8c-10.9,0-16.9-5.4-16.9-15.9
	c0-10.6,6.1-16,16.6-16c9.9,0,15.8,3.2,15.8,9.8c0,1-0.7,1.7-1.7,1.7h-4.2c-1.4,0-2.4-0.8-3.2-2.1c-1-1.5-3.1-2.6-6-2.6
	C103.7,40.1,101.8,42.9,101.8,49.3z M137.3,52.2c0.4,4.6,2.5,6.6,7.2,6.6c2.4,0,4.5-0.7,5.5-1.9c0.7-0.9,1.8-1.5,3.2-1.5h4.2
	c1,0,1.7,0.7,1.7,1.7c0,6-6.1,8-15.3,8c-10.2,0-16.4-5.5-16.4-15.9c0-10.3,6.2-16,16.4-16c10.2,0,16.4,5.5,16.4,15.6v1.6
	c0,1-0.7,1.7-1.7,1.7H137.3z M137.3,46.3h13c-0.2-4.3-2.2-6.6-6.5-6.6C139.7,39.7,137.5,42,137.3,46.3z M49.5,96.8
	c0,6.3,1.9,9.1,7.6,9.1c2.9,0,5-1.1,6-2.6c0.8-1.3,1.8-2.1,3.2-2.1h4.2c1,0,1.7,0.7,1.7,1.7c0,6.5-6,9.8-15.8,9.8
	c-10.9,0-16.9-5.4-16.9-15.9c0-10.6,6.1-16,16.6-16c9.9,0,15.8,3.2,15.8,9.8c0,1-0.7,1.7-1.7,1.7h-4.2c-1.4,0-2.4-0.8-3.2-2.1
	c-1-1.5-3.1-2.6-6-2.6C51.4,87.7,49.5,90.5,49.5,96.8z M78.6,112.2c-1,0-1.7-0.7-1.7-1.7V73.7c0-1,0.7-1.7,1.7-1.7h6.3
	c1,0,1.7,0.7,1.7,1.7v36.7c0,1-0.7,1.7-1.7,1.7H78.6z M125.6,96.8c0,10.6-6.1,16-16.9,16s-16.9-5.4-16.9-16
	c0-10.6,6.1-15.9,16.9-15.9S125.6,86.2,125.6,96.8z M115.9,96.8c0-6.8-2.4-9.5-7.2-9.5s-7.2,2.8-7.2,9.5c0,6.8,2.4,9.6,7.2,9.6
	S115.9,103.5,115.9,96.8z M140.5,99.2c0,4.8,2.2,6.7,5.3,6.7c2.8,0,5.5-2,7.5-4V83.2c0-1,0.7-1.7,1.7-1.7h6.3c1,0,1.7,0.7,1.7,1.7
	v27.3c0,1-0.7,1.7-1.7,1.7h-6.3c-1,0-1.7-0.7-1.7-1.7v-1.8c-2.6,2.2-5.5,4.1-9.8,4.1c-7.5,0-12.7-4-12.7-13.5V83.2
	c0-1,0.7-1.7,1.7-1.7h6.3c1,0,1.7,0.7,1.7,1.7V99.2z M168.2,96.8c0-10.6,6.1-16,15-16c3.4,0,5.7,0.7,8.1,1.4v-8.6
	c0-1,0.8-1.7,1.7-1.7h6.3c1,0,1.7,0.7,1.7,1.7v36.7c0,1-0.7,1.7-1.7,1.7H194c-1,0-1.7-0.7-1.7-1.7v-0.9c-2.6,1.8-5.7,3.2-9.8,3.2
	C174.3,112.7,168.2,107.3,168.2,96.8z M191.4,103.4V88.8c-2.3-0.7-4.6-1.1-6.1-1.1c-5.2,0-7.1,2.8-7.1,9.2c0,6.3,1.9,9.1,6.5,9.1
	C186.8,106,189.4,104.7,191.4,103.4z M177.9,23.2c-0.4,0.4-0.6,1-0.6,1.6V58c0,0.6,0.2,1.2,0.6,1.6c0.4,0.4,1,0.7,1.7,0.7
	c0.7,0,1.3-0.2,1.7-0.7c0.4-0.4,0.6-1,0.6-1.6V24.9c0-0.6-0.2-1.2-0.6-1.6C180.5,22.4,178.7,22.4,177.9,23.2z M170.4,35.2
	c-0.4,0.4-0.6,1-0.6,1.6v9.5c0,0.6,0.2,1.2,0.6,1.6c0.4,0.4,1,0.7,1.7,0.7c0.7,0,1.3-0.2,1.7-0.7c0.4-0.4,0.6-1,0.6-1.6v-9.5
	c0-0.6-0.2-1.2-0.6-1.6C172.9,34.3,171.1,34.3,170.4,35.2z M185.5,19.4c-0.4,0.4-0.6,1-0.6,1.6v40.7c0,0.6,0.2,1.2,0.6,1.6
	c0.4,0.4,1,0.7,1.7,0.7c0.7,0,1.3-0.2,1.7-0.7c0.4-0.4,0.6-1,0.6-1.6V21c0-0.6-0.2-1.2-0.6-1.6C188,18.5,186.3,18.5,185.5,19.4z
	 M193.1,16.9c-0.4,0.4-0.6,1-0.6,1.6v43.6c0,0.6,0.2,1.2,0.6,1.6c0.4,0.4,1,0.7,1.7,0.7c0.7,0,1.3-0.2,1.7-0.7
	c0.4-0.4,0.6-1,0.6-1.6V18.5c0-0.6-0.2-1.2-0.6-1.6C195.6,16,193.9,16,193.1,16.9z M200.6,7.1c-0.4,0.4-0.6,1-0.6,1.6v53.4
	c0,0.6,0.2,1.2,0.6,1.6c0.4,0.4,1,0.7,1.7,0.7c0.7,0,1.3-0.2,1.7-0.7c0.4-0.4,0.6-1,0.6-1.6V8.7c0-0.6-0.2-1.2-0.6-1.6
	C203.2,6.2,201.4,6.2,200.6,7.1z M208.2,2.9c-0.4,0.4-0.6,1-0.6,1.6v57.6c0,0.6,0.2,1.2,0.6,1.6c0.4,0.4,1,0.7,1.7,0.7
	c0.7,0,1.3-0.2,1.7-0.7c0.4-0.4,0.6-1,0.6-1.6V4.5c0-0.6-0.2-1.2-0.6-1.6C210.7,2,209,2,208.2,2.9z M215.8,0.7
	c-0.4,0.4-0.6,1-0.6,1.6v59.8c0,0.6,0.2,1.2,0.6,1.6c0.4,0.4,1,0.7,1.7,0.7c0.7,0,1.3-0.2,1.7-0.7c0.4-0.4,0.6-1,0.6-1.6V2.3
	c0-0.6-0.2-1.2-0.6-1.6C218.3-0.2,216.6-0.2,215.8,0.7z M223.4,0.7c-0.4,0.4-0.6,1-0.6,1.6v59.8c0,0.6,0.2,1.2,0.6,1.6
	c0.4,0.4,1,0.7,1.7,0.7c0.7,0,1.3-0.2,1.7-0.7c0.4-0.4,0.6-1,0.6-1.6V2.3c0-0.6-0.2-1.2-0.6-1.6C225.9-0.2,224.2-0.2,223.4,0.7z
	 M230.9,2.6c-0.4,0.4-0.6,1-0.6,1.6v57.9c0,0.6,0.2,1.2,0.6,1.6c0.4,0.4,1,0.7,1.7,0.7c0.7,0,1.3-0.2,1.7-0.7c0.4-0.4,0.6-1,0.6-1.6
	V4.2c0-0.6-0.2-1.2-0.6-1.6C233.5,1.7,231.7,1.7,230.9,2.6z M238.5,7.1c-0.4,0.4-0.6,1-0.6,1.6v53.4c0,0.6,0.2,1.2,0.6,1.6
	c0.4,0.4,1,0.7,1.7,0.7c0.7,0,1.3-0.2,1.7-0.7c0.4-0.4,0.6-1,0.6-1.6V8.7c0-0.6-0.2-1.2-0.6-1.6C241,6.2,239.3,6.2,238.5,7.1z
	 M246.1,15.9c-0.4,0.4-0.6,1-0.6,1.6v44.6c0,0.6,0.2,1.2,0.6,1.6c0.4,0.4,1,0.7,1.7,0.7c0.7,0,1.3-0.2,1.7-0.7
	c0.4-0.4,0.6-1,0.6-1.6V17.5c0-0.6-0.2-1.2-0.6-1.6C248.6,15,246.9,15,246.1,15.9z M253.7,28.3c-0.4,0.4-0.6,1-0.6,1.6v31.8
	c0,0.6,0.2,1.2,0.6,1.6c0.4,0.4,1,0.7,1.7,0.7c0.7,0,1.3-0.2,1.7-0.7c0.4-0.4,0.6-1,0.6-1.6V29.9c0-0.6-0.2-1.2-0.6-1.6
	C256.2,27.4,254.5,27.4,253.7,28.3z M261.2,31.3c-0.4,0.4-0.6,1-0.6,1.6v25.8c0,0.6,0.2,1.2,0.6,1.6c0.4,0.4,1,0.7,1.7,0.7
	c0.7,0,1.3-0.2,1.7-0.7c0.4-0.4,0.6-1,0.6-1.6V33c0-0.6-0.2-1.2-0.6-1.6C263.8,30.5,262,30.5,261.2,31.3z M268.8,40.6
	c-0.4,0.4-0.6,1-0.6,1.6v7.7c0,0.6,0.2,1.2,0.6,1.6c0.4,0.4,1,0.7,1.7,0.7s1.3-0.2,1.7-0.7c0.4-0.4,0.6-1,0.6-1.6v-7.7
	c0-0.6-0.2-1.2-0.6-1.6C271.3,39.7,269.6,39.7,268.8,40.6z"/>
</svg>
