<?xml version="1.0" encoding="utf-8"?>
<!-- Generator: Adobe Illustrator 17.1.0, SVG Export Plug-In . SVG Version: 6.00 Build 0)  -->
<!DOCTYPE svg PUBLIC "-//W3C//DTD SVG 1.1//EN" "http://www.w3.org/Graphics/SVG/1.1/DTD/svg11.dtd">
<svg version="1.1" id="Layer_1" xmlns="http://www.w3.org/2000/svg" xmlns:xlink="http://www.w3.org/1999/xlink" x="0px" y="0px"
	 viewBox="-0.6 80.5 318.2 157.3" enable-background="new -0.6 80.5 318.2 157.3" xml:space="preserve">
<path fill="#E9E9E9" d="M156.9,141.3c0.2-0.2,0.4-0.3,0.6-0.5c0.2,0,0.2,1.6-0.2,1.7C156.9,142.5,156.4,141.5,156.9,141.3z
	 M83.9,165.4c0.5-0.2,4.2,0.4,4.2-0.6c0-0.7-3.9-1.6-4.3-1.3c-0.4,0.3,0.6,0.9,0.6,1.2c0,0.4-1.6-0.2-1.7,0.3
	C83,165.4,83.4,165.5,83.9,165.4C84.5,165.2,83.3,165.5,83.9,165.4z M117.8,186.7c0.5,1.7,0.3,3.1-1,4.4c-0.6,0.6-0.9,0.6-1.3,1.5
	c-0.5,1.2-0.8,0-1.1,0.4c-0.2,0.3-0.1,2.2,0,2.7c0.1,1.4-0.6,1.9-0.7,3c-0.1,1.1-1.3,3.7-2.3,3.9c-0.6,0.2-1.2-0.1-1.7-0.1
	c-0.5,0-0.6,0.6-1.1,0.6c-0.8,0.3-2.1,1.7-2.8,1.7c-0.7,0-0.2,2.7-0.3,3c-0.2,0.5-0.9,0.6-1.2,1.2c-0.3,0.7-0.7,1.6-1.5,1.9
	c0.1,0,0.8-1.2,0.6-1.4c-0.4-0.4-1.5,2.6-1.6,2.8c-0.6,1-2.2,2.4-3.5,1.8c-0.2-0.1-1.4-0.6-1.6-0.6c-0.6,0.2,0.1,0.8,0.4,0.8
	c1.1,0.3-0.2,1.1,0.7,1.3c1,0.2,0,1.1-0.2,1.4c-0.5,0.8-0.9,1-1.9,1.2c-0.2,0-2.5,0.1-2.6,0.1c-0.5,0.8,0.8,3.2-1.6,2.2
	c-1.8-0.8-0.4,1.7-0.1,1.5c0.4-0.2,1.1-0.1,0.5,0.4c-0.2,0.2-1.1-0.4-1.1,0c0.1,0.1,0.2,0.2,0.3,0.4c-0.3,0.5-0.7,0.2-0.7,1
	c0,0.4-0.3,1.1-0.7,1.1c-0.6,0.1-1.6,0.6-1.3,1.4c0.1,0.4,1.6,1.1,1.6,0.9c0,0.6-0.3,1.1-0.7,1.4c-0.8,0.5-0.7,1.4-1.3,1.9
	c-0.4,0.3-1,0.1-1.1,0.9c0,0.1,0.5,2,0.6,1.9c0,0-1,0-0.9,0c0.1-0.2,1.8,1.2,1,1.2c0.1,0,2.4,1.5,2.8,1.7c0,0-2.2,0.7-2.7,0.6
	c-0.1,0,0.2,0.5,0.2,0.6c0,0.3-0.9-0.8-1.1-0.6c-0.1,0.1-0.1,0.2,0,0.4c-0.2,0.3-1-0.8-0.9-0.9c-0.1,0-0.2,0.8-0.3,0.7
	c0.1,0-1.2-1.4-1.2-0.9c0,0.2,0.7-0.9,0.6-0.8c0.1-0.1,0.4,0.4,0.6,0.5c-0.1,0-0.3-0.8,0.2-0.8c0.1,0.1,0.1,0.9,0.4,0.7
	c-0.1,0.1,0.1-1.3,0.4-1c-0.1-0.1-1.2,0.1-1-0.4c0.1-0.2,0.8-0.3,0.6-0.6c-0.1-0.3-1.2,0.4-1.1,0.9c0.2,1.1-0.8,0.2-1.1,0.6
	c-0.3,0.4,0.5,0.2,0.2,0.6c-0.2,0.2-1.6-0.5-1.7-0.8c0,0.1,2.4-0.4,2.3-0.9c-0.3-0.4-1.8,0.8-2,0.4c-0.4-0.9,1.9-0.4,1.9-0.9
	c0-0.7-1.6,0.1-1.8,0.2c-0.9,0.5,0.6-1.3,0.8-0.9c-0.4-0.7-0.5,0-0.7,0.1c0.2-0.1-0.8-0.4-0.7-0.3c-0.2-0.2,0.7-0.4,0.5-0.6
	c-0.2-0.3-1.1,0.2-1.3,0c0,0,0.2-0.6-0.1-0.6c0.5-0.1,1.1-1.5,0.8-1.7c-0.5-0.3-0.2,0.8-0.7,0.8c-1.1-0.4,0.6-1.9,0.4-1.8
	c-0.3,0-0.6,0.7-0.7,0.3c-0.2-0.3-0.4-0.5,0.1-0.7c0.2-0.1,1.5-0.1,1.5-0.2c0,0.2-1.7-1-0.6-1c0.3,0,0-0.6-0.4-0.5
	c0.2-0.1-1-0.1-0.7,0c-0.5-0.1,1.4-1.9,1.4-1.7c0-0.1-0.5-0.6-0.3-0.7c0.8-0.3,0.3,0.9,0.2,1c-0.3,0.4,0.4,0.7,0.5,0.5
	c0.4-0.9-0.1-2.1,0.4-3.2c0.1-0.2,0.6-2,0-1.8c-0.7,0.2-0.1,1.9-0.7,1.9c-1.2,0.2,0.2-1.7,0.1-2.1c-0.1-0.3,0-1.1,0.2-1.4
	c0.5-0.8-0.1-1.1,0-1.8c0-0.2-0.4-1.2,0-1.2c0.3,0,0.8-1.7,0.9-2c0.4-1.1,0.7-2.3,0.7-3.5c0-2.2,0.5-3.7,0.9-6
	c0.1-0.7,0.8-6.8,0.3-6.8c-0.8-0.8-2.1-1.6-3.1-2.1c-1.6-0.8-1.7-1.2-2.4-2.5c-0.7-1.4-1.5-2.8-2.2-4.3c-0.3-0.6-2.1-2-2.1-2.4
	c0.3-0.6-0.3-1.1,0.3-1.9c0.6-0.7,0.9-0.3,0.4-1c-1-1,0.1-3,1.1-3.5c0.4-0.2,0.2-1.3,0.8-1.3c1.4,0,0.7-1.8,0.7-2.4
	c-0.1-1.3-0.2-1.3-0.9-2.4c-0.3-0.5,0.4-0.8-0.4-1c-0.3-0.1-1.5,0.3-1.5,0.7c0.4,0.9,0,0.7-0.7,0.5c-0.3-0.1-1.9-0.6-2.1-0.8
	c-0.3-0.3-0.4-1.3-1.1-1.3c-1.3,0-0.2-0.8-0.9-1.5c-0.2-0.1-1.4-1.1-1.2-1.3c0-0.3-1.6-0.4-2-0.6c-1-0.4-1.6-0.5-2.5-1.2
	c-1.4-0.8-1.6-1-3.3-0.7c-1.1,0.3-2.1-0.8-3.1-1c-0.6-0.1-2.8-0.9-3.2-1.3c-0.6-0.5-2-1-2-2c0-0.7,0.5-1,0-2c-0.9-1.2-3-2.6-3.1-3.9
	c-0.1-1-2.5-1.8-2.9-2.1c-0.1-0.1-0.4-2.4-0.5-2.3c0,0.1-1.4-0.7-1.7-0.7c-0.1,0,0.2,1.7,0.4,1.9c0.2,0.2,0.5,0.4,0.7,0.4
	c0.6,0.2,0,0.6,0.2,0.7c1.4,0.7,1.7,4.3,3,4.5c0.5,0.1,0.7,1,0.3,1.3c0.1-0.1-1.5-1.4-1.6-1.5c-0.8-0.6-0.3-1.4-1.3-2.1
	c-0.3-0.2-1.5-0.3-1.5-0.9c0.1-0.2,1.7-0.4,0.3-1.3c-1.1-0.7-1.8-2.2-2.4-3.3c-0.7-1.4-1.1-1.4-2.3-2.1c-0.5-0.3-1.9-1.3-1.9-2
	c0-1.9-2.6-2.7-2.1-5c0.1-0.7-0.5-1.2-0.4-1.9c0.1-0.5,0.3-0.9,0.3-1.4c0-0.6,0-1.2,0-1.8c-0.1,0.6,0.4-1.3,0.4-0.8
	c0-1.1-1.4-2.4-2-3.1c-0.4-0.8-1.8-1.4-2.5-2c-0.4-0.4,1.7,0.2,1.6,0.2c1.1,0.2,1,1.2,1.9,1.4c0.8,0.2,1.2,0.3,1.2,1.1
	c0,0.1,0.5,1.4,0.4,1.4c0.9,0,0-3-0.7-2.7c-0.2,0.1-2.2-1-2.3-1.1c-0.4-0.7-2-0.4-2-1.5c0-0.6,0.7-0.1-0.1-0.9
	c-0.1-0.2-0.2-0.3-0.5-0.3c-0.6,0.6-0.3-0.7-0.3-0.7C33,128,31.9,129,32,128c0,0-0.2-0.9,0.1-0.7c-0.2-0.2-1-1.3-0.9-1.3
	c0,0-0.9,0.4-0.9,0c0,1-0.4,0-0.7,0.3c0,0.1,0,0.2-0.1,0.4c-0.4,0.2-0.4-1.7-0.3-1.7c0.2,0,1.8,0.8,1.2-0.4
	c-0.7-1.4-0.9,0.3-0.2,0.3c-0.7,0-0.5-0.9-1.2-0.4c0.2-0.1-0.7,0.2-0.6,0.2c-0.5,0,1.1-1.8,0.4-2.4c0,0-0.2,1.7-0.7,1.3
	c0-0.2,0-0.4-0.1-0.6c-0.3-0.1,0.2,1.4,0,1.6c0.1-0.1-1.8-1.9-1.2-2.2c0.6-0.3,0.3,0.4,0.8,0.3c0.9-0.1,0.1-1.9-0.2-1.8
	c-0.3,0.1,0.3,0.9,0.1,1.2c-0.1,0.1-1.1-0.7-1.2-0.5c0,0.2,0,0.3,0,0.5c0,0.1-2-1.3-2.3-1.4c-0.4-0.2-0.2-1.1-0.5-0.9
	c-0.6,0.4-4.2,0.1-4.5-0.5c0.1,0.1-1.6,0.2-1.6,0.2c0.1-0.3,0.3-0.4,0.6-0.4c0,0-1.4-0.7-1.7-0.7c-1-0.1,0.2,1.5-0.1,1.6
	c-0.4,0.2-0.8-0.2-1.3,0.1c-0.5,0.3-1.6,1.4-2.3,0.9c-0.1-0.1,0.5-0.4,0.6-0.5c-0.2-0.1-0.3-0.2-0.4-0.3c0.1-0.3,0.2-0.5,0.3-0.8
	c0.2-1,1-0.3,1.4-0.7c0,0-1.3-0.9-1.8,0.2c-0.1,0.3-2,2.2-2.1,2.1c0.2,0.2,1.1,0.2,0.6,0.7c-0.3,0.3-0.6,0.8-1,0.9
	c-1,0.3-1.7,1.3-2.6,1.7c-0.9,0.5-1.2,1.3-2.4,1.3c-0.3,0-2.4,0.9-2.4,0.9c-0.1-0.1,0.8-1.2,1-1.2c1.1-0.2,0.8,0.3,1.7-0.5
	c0.4-0.3,1.6-1.4,2-1.6c0.1,0,0.3-2.1,0.6-1.9c0.2,0.1-1.8,0.1-1.4-0.1c-0.1,0.1-0.4,0.8-0.4,0.8c-0.5-0.2-0.7-1-1.5-0.8
	c-0.4,0.1-0.4,0.6-1,0.5c-0.3,0-0.1-2.9-0.8-1.8c-0.9,1.3-1.7-0.7-2.4-0.7c0.6,0.2-0.8-1.9-0.9-1.7c0-0.1,1.1-1,1.3-1
	c0.8-0.2-0.2-1.4,1.4-0.7c0.3,0.1,0.7-0.7,1.3-0.7c1.4,0.1,0.3-1.2,0.9-1.7c0.4-0.4-1.1-0.2-1.2,0c-0.8,0.6-0.8,0.2-1.6,0.3
	c-0.7,0.1-1.5,0.3-2-0.5c-0.1-0.1-0.5-0.7-0.1-0.7c0.2,0,0.1,0.5,0.8,0.2c0.5-0.3,1-0.6,1.6-0.5c0.4,0.1,1.6-1.8,1.6-0.2
	c0,0.3,3.2,0,3.1-0.3c-0.2-0.6-0.9,0.2-1-0.8c-0.1-0.5-1.3-0.2-1.6-0.2c-0.4-0.1-0.8-1.1-1.2-1.4c-0.9-0.6-1.4-0.2-1.5-1.3
	c0-0.4,1.2-0.3,1.4-0.3c1.1-0.2,0.8-0.9,1.3-1.4c0.5-0.5,0.7-0.9,1.4-0.8c0.1,0,1.7-0.2,1.6-0.2c0.3-0.3-0.2-0.3-0.2-0.5
	c0,0,3.8-1.5,3.8-0.9c-0.2,0.1-0.3,0.2-0.4,0.4c0.3,0.3,3.2-0.6,3.2,0.6c0,0.3,1,0.4,1.2,0.3c1.3-0.3,2,0,3.2,0.4
	c0.7,0.2,2.3,0.5,3.1,0.3c1.2-0.2,1.8,0.4,2.9,0.4c1,0.1,1.3,0.1,2.1,0.5c0.3,0.2,2.7,1.1,2.9,1c0.2-0.2-0.6-0.4-0.5-0.7
	c0.2-0.5,0.8-0.2,1.2-0.5c0.6-0.4,0.4,0.2,0.7,0.2c0.3,0,3.9-2,3.9-1.2c0,0.8-3.6,1-3.5,2.1c0,0.6,1.1-0.7,1.2-0.7
	c0.6-0.4,1-0.1,1.4-0.3c0.3-0.3,0.6-0.5,0.9-0.7c0.4-0.1,0.3,0.4,0.6,0.3c0.9-0.4,0.5-1,0.7-1.5c0.3-0.7,1.5,1.6,1.6,1.7
	c0.8,1.1,1-1,1.5-1c0.5,0.2,0.2,0.9,0.1,1.2c-0.3,0.6,1.5-0.5,1.4-0.5c1.1-0.4,1.9,0.4,2.9,0.7c1.2,0.3,4.5,0.2,4.9,1.5
	c0.1,0.2-1.6,0.4-1.1,0.9c0.4,0.4,1.5,0.3,2.1,0.2c0.6,0,1.6,0,2.1-0.3c0.6-0.3,1.1,0.5,1.5,0.5c1.3,0-0.2,1.2,1.3,0.8
	c0.3-0.1-0.6-1.2-0.5-1.5c0.1-0.3,2.1-0.6,1.8-1c-0.2-0.4-2.1,1-2.4,0.5c-0.4-0.7,2.2-1.1,2.5-1.1c0.5,0,0.9,1.2,1.6,1.2
	c1.3,0,1.9,0.6,3.3,0.3c0.6-0.1,1,0.2,1.5,0.1c0.3-0.1,0.1-0.9,0.2-1c0,0,1,0.1,0.8-0.3c-0.2-0.4-1.8-0.4-1.5-0.9
	c0.1-0.1,1.5-1.1,1.5-1.1c0.3,0.1,1.9,0.5,2,0.7c0.1,0.2-0.8,0-0.8,0.2c0-0.5,2.5,1.2,0.7,1.1c-0.3,0-1.7,0.4-1.7,0.4
	c0.1,0.2,1.1,0.3,1.2,0.4c0,0.3-0.5,0.7-0.2,1.1c0.6,0.7,1,0.3,0.8-0.4c-0.1-0.4,2.6-1.5,1.5-2.1c-0.2,0.1-0.4,0.3-0.5,0.5
	c-0.1,0,0.3-1,0.4-1.1c0.1-0.3-1.3-0.6-1.4-0.6c-1.3-0.4-0.3-1-0.6-1.4c-1-1.3,0.6-1,0.6-1.1c-0.1-0.2-0.2-0.4-0.3-0.5
	c0.6-0.6,0.9-0.9,0.2-1.7c-0.1-0.2-0.3-1.7-0.1-1.8c0.2,0.1,0.4,0.1,0.6,0.1c0.3-0.6-0.4-0.6,1-0.8c0.9-0.1,1.9,0.2,2.8,0.2
	c0.9,0.1-0.5,1.6-0.7,1.9c-0.3,0.4-2,0.3-2,0.3c0,0.6,0.7,0,0.1,0.8c-0.1,0.1-0.8,0.6-0.8,0.7c0.2,0.6,1.7,0.3,1.3,1.4
	c-0.1,0.4,1.5,1.2,1.3,1.5c-0.2,0.3-1,0.2-0.6,1c-0.1-0.1,2-0.1,1.7,0.4c0,0-1,1.7-0.1,1.7c0.3-0.2,0.5-1.1,0.7-1.3
	c0.3-0.3,1.4,0.4,1.4,0.8c0,1-0.6,1.4,0.5,2.4c0.6,0.5,0.7-1.8,0.6-1.8c0.3,0,0.1,0.7,0.4,0.6c0.1,0,1-1.7,1.1-1.5
	c0.1-0.1,0.2-0.3,0.2-0.5c-0.3-0.4-0.7-0.1-0.6-0.8c0.1-1,3.3,0.4,3.7,0.7c0.6,0.6-1.1,1.4-1.1,1.2c0.2,1.1,1.5,1.2,0.5,2.2
	c-0.3,0.3-0.9,0.9-1.3,0.8c-0.2,0-1.1-1.1-1.2-0.7c0,0.1,0.7,0.4,0.7,0.6c0.1,0.3-3.2-0.3-2,0.3c0.7,0.3-0.7,1.3-1.1,1.3
	c-0.3,0-2-1.2-2.1-0.8c-0.3,1.1,2.5,0.7,2.6,1.1c0,0.1-0.9,1.1-1,1.2c-0.4,0.4-1.7,0-1.8,0.1c-0.3,0.6,0.3,0.9-0.7,0.8
	c-0.3,0-2.4-1.1-2.6-0.6c0.1-0.2,1.5,0.8,1.6,0.8c2,0.6,0.4,0.4-0.4,1c-0.5,0.4-1.6,2.3-1.9,3.1c-0.4,0.8-0.6,2.8,0.9,2.4
	c0.6-0.2,1.4,2.1,1,2.3c0.6,0,1-0.6,1.7-0.3c0.7,0.4,1.5,0.5,2.3,0.8c1.7,0.7,2.7,1.8,4.8,1.8c1,0,0.2,0.9,0.4,1.3
	c0.1,0.3,0.1,0.6,0.1,0.9c0,0.6,0.6,0.9,0.6,1.3c0,0.2,0.9,1.2,1.2,1.3c0.9,0.5,0.5-0.7,1.4-0.2c-0.3-0.2,0.2-0.8,0.3-1
	c0.1-0.2-0.5-2.2-0.6-2.4c-1-1.3,3.7-1.9,2.1-4.5c-0.5-0.9-1.9-0.8-1-2c0.7-0.7,0.6-0.9,0.3-1.8c-0.1-0.4-0.5-0.8,0.1-1.1
	c0.1,0-1.2-1.7,0.3-1.6c0.5,0,1.8,0.7,2.2,0.4c0.6-0.3,1.2-0.4,1.8,0.1c1.1,1,1.3,1.4,2.8,1.6c0.3,0-0.5,2.9,0.9,2.9
	c0.1,0,0.7,0.5,0.8,0.7c0.3,0.4,1.8-0.8,1.7-0.4c0.1-0.5,0.6-2.1,1.1-2.4c0.1-0.1,1.9,2.8,1.9,3.1c0,0.4,0.8,1.1,1,1.3
	c0.7,0.6-1,0.7-1,0.7c0,0.1,2.4,1.6,2.4,1.6c0.3-0.2,2.2,0.8,2.2,0.9c0,0-3,1-2.4,1.4c0,0,1.1-0.5,1.2-0.5c1.4-1.2,1.2,0.4,1.5,0.4
	c0.7,0.2,0.4-0.3,1.2,0.2c0.5,0.4-0.4,1-0.4,1c0.2,0.1,0.4,0.2,0.6,0.3c0.1,0.3-1.2,1-1.4,1c-1.1-0.2-1.3,0.8-2.2,1.2
	c-1.2,0.6-3.4,0.1-4.7,0.2c-1,0.1-2.3,0.7-2.9,1.3c-0.4,0.3-2,2.5-2.2,2.5c0.5,0,1.1-1.1,1.5-1.4c0.6-0.6,1.6-0.9,2.4-1.1
	c3.2-0.8,0.9,1.8,0.7,1.7c0.2,0.1,0.7-0.5,0.9-0.1c0,0,0,1.1,0,1.2c0.1,0.4,1.3,1,1.7,1.1c0.9,0.1,2.1-0.7,2.4-1.3
	c-0.5,0.9,0.4,0.2,0.5,0.7c0.1,0.4-3.1,1.8-3.6,1.8c0.1,0-3,1.9-2.4,0.4c0.5-1.2,1.4-0.8,2.3-1.2c-0.1,0.1-0.8-0.1-1-0.2
	c-0.1-0.1,0.4-0.4,0.1-0.6c0.1,0.1-5,2.4-5.4,2.9c-0.4,0.5-0.1,1.9-0.1,1.9c-0.2,0.1-2.6,0-2.6,0.8c0,0.1,1.6-0.4,1.4,0.1
	c-0.2,0.2-2,0.5-1.8,0.7c0.7,0.4-1.3,1.7-1.3,1.3c-0.1,0.7,0.4,1.5-0.4,2c0.2-0.1-0.6-2.4-0.2-2.4c-0.2,0-0.4,1.9-0.7,1.6
	c0.7,0.5,0.5,0.5,0.4,1.1c0.1-0.5,0.6,1.3,0.3,0.9c0.2,0,0.4,0.1,0.6,0.2c-0.1,0.8-1,0.1-1.2,0.3c-0.2,0.2,0.3,0.5,0.2,0.7
	c0-0.1-1.4,1.1-1.4,1.1c-1,0.1-2.3,1.6-2.7,2.5c-0.5,1.3,0.8,2.8,1,4c0.2,1-0.3,2.8-1.2,1.3c-0.4-0.6-1.4-1.7-1.2-2.5
	c0.5-1.9-2.3-1.6-2.3-1.5c-0.5-0.9-2.1-0.5-2.6-0.5c-2,0-0.5,0.3-0.6,1.2c0-0.4-3.9-0.6-4.4-0.9c-0.1,0-1,0.5-1,0.6
	c0.2,0.7-1,0.6-1.3,0.6c-1.4,0.4-0.7,2.1-0.7,2.8c-0.4-0.4,0.1,0.1-0.1,0.4c-0.3,0.8-0.3,1.6-0.3,2.5c0,1.5,0.8,2.2,1.4,3.5
	c0.6,1.3,3.9,0.5,4.5,0c0.6-0.5,0.2-1.6,0.9-2c0.3-0.1,2.7-0.7,2.9-0.1c0.1,0.5-2.4,4.8-1.7,5.2c1.3,0.9,3.9-1.5,4.9,0.7
	c-0.4,2.1-0.9,3.4,0.7,5.1c1.1,1.1,1.9-0.5,2.9-0.3c0.3,0.1,1.9,1.3,2,1.2c0.7-0.7,0.8-1.6,1.4-2.2c0.5-0.7,1.1-0.2,1.8-0.7
	c0.4-0.1,1.4-1.2,1.8-1c0.7,0.3-1,0.7-0.3,1.4c0.2,0.3-1.1,1.7,0.3,1.7c0.3,0-0.3-1.7,0.8-2.1c0.4-0.1,0.6-1,1-0.6
	c0.1,0.2,0.3,0.3,0.5,0.4c0.9-0.2,0.4,0.8,0.9,1c0.6,0.3,1.5,0.1,2.3,0.4c0.9,0.3,1.9-1.1,2.9-0.5c-0.1,0.2-0.2,0.3-0.4,0.3
	c-0.2,0.7,2-0.1,1.2,1.4c0.2-0.4,2.8,0.5,2.6,1.1c-0.2,0.7,2.1,1.4,2.6,1.3c2-0.3,3.8,0.9,4.3,2.8c0.1,0.5,1.1,0.8,0.9,1.4
	c-0.1,0.3-1.7,1.5-1.1,1.8c0,0,1.1-0.8,1.7-0.7c1.7,0.4-0.5,1.2-0.2,1.7c0.3,0.5,1.6-1.2,1.7-1.2c0.6,0,4,1.9,2.6,2.4
	c0.4-0.1,0.7-0.7,1.2-0.6c0.9,0.2,1.4,0.4,2.4,0.3c1.7-0.2,2.5,2.4,4.1,2c-0.4-0.4-0.8-0.9-1.1-1.5
	C117.7,186.4,117.8,186.6,117.8,186.7C118,187.4,117.7,186,117.8,186.7z M78.1,140.3c0.2,0.7,3,0,3-0.9
	C80.9,139.1,77.9,139.7,78.1,140.3C78.2,140.6,78,139.9,78.1,140.3z M78,141.2c-0.5,0.4-1.5,0-2.2,0.5c-0.4,0.2-1.1-0.5-1.1,0.3
	c0,2.1,3.8-1.1,3.7-1.1C78.3,141,78.1,141.1,78,141.2z M72.5,137.7c-1.5,0.4-1,1-1.3,1.9c-0.2,0.6-0.4,1.5-0.1,2.1
	c0.3,0.8,1.2,0,1.3-0.5c0.1-0.6-0.2-1.2,0-1.9c0.2-0.7,0.9-0.7,1-1.2c0.6-1.5,2.3,1.4,1.1,1.9c1.6-0.7,0.5,0.4,1.2,0.8
	c0.6-0.5,0.3-1.4,0.8-1.9c0.2-0.3,1.4,0,1.4-0.2C77.4,136.2,74,137.3,72.5,137.7z M67.2,136.6c0.7,0.7,3.3-0.7,3.3-0.6
	c0.3,0.4,0.2,1.4,1.3,1.2c2-0.5,2,0.8,1.6-1.2c0,0-1.1-1.1-1.2-1.1c-0.4-0.3-1.6-0.6-2-0.2C69.9,134.9,67.1,136.5,67.2,136.6z
	 M44.1,111.6c-0.3,0.5-1.9,0.2-1.6-0.1c0.2-0.1,0.4-0.3,0.5-0.5c-0.2-0.7-4,1.3-4.5,1.1c0.4,0.2,2.8-0.8,2.8,0.1c0,0.3-0.9,0-1,0.2
	c0-0.1-0.5,1.5-0.7,1.2c0.7,1.2,1.8-1.3,2.4-0.7c0.2,0.2-0.6,1.1-0.6,1.1c0.1,0.1,1.5-0.6,1.5-0.7c0.1-0.3-0.6-0.9,0.4-0.7
	c0.4,0.1,1.7-0.5,1.3-1.1C44.5,111.3,44.3,111.4,44.1,111.6z M51.6,116.9c0-0.5-2.2,0.7-2.4,0.9c-0.7,0.7-2.3-1.7-2.8-0.7
	c0,0,1.2,1,0.4,1c-0.3,0-1.1,1.5-1.6,1C45.9,120.5,51.6,117.8,51.6,116.9z M62.4,130.9c0.5,0.2,0.4,1.6,0.8,1.6
	c0.9-0.2-0.6-3.1-0.8-3.5C61.7,127.5,60.4,129.8,62.4,130.9C63.2,131.3,61.5,130.4,62.4,130.9z M69.4,165.6c-0.4,0-0.8,0-1,0
	C68.6,165.6,69,165.6,69.4,165.6z M81.7,181.8L81.7,181.8L81.7,181.8L81.7,181.8z M86.7,185.4c-0.2,0-0.3-0.1-0.5-0.1
	C86.4,185.3,86.6,185.4,86.7,185.4z M86.6,191.4c-0.1,0-0.1,0-0.2,0.1C86.5,191.5,86.5,191.4,86.6,191.4z M87,191.4
	c-0.2,0-0.3,0-0.4,0C86.8,191.4,86.9,191.4,87,191.4z M98.1,209.1c-0.2,0.2-0.3,0.3-0.5,0.5C97.7,209.4,97.9,209.2,98.1,209.1z
	 M98.9,180C98.8,180,98.8,180,98.9,180L98.9,180C98.8,179.9,98.8,180,98.9,180z M100.6,204c-0.1,0.2-0.1,0.5-0.1,0.7
	C100.5,204.5,100.6,204.2,100.6,204z M82.9,163.4c0.2-0.2-3.5-1.7-3.7-1.9c-1-0.4-2-1-3.1-0.9c-0.1,0-2.7,0.7-2.2,1.2
	c0.4,0.5,1.5-1.3,2.2-0.6c0.7,0.8,1.8,0.4,2.6,1.1c0.2,0.1,1.6,1.3,1.3,1.2C80.4,163.7,82.7,163.8,82.9,163.4
	C83.1,163.2,82.8,163.6,82.9,163.4z M79.3,165.2c0.2,0.3,1.7,0.7,1.8,0.3C81.2,165.1,79.1,164.8,79.3,165.2z M89.3,165.2
	c0.4,0.6,1.4,0.2,1.5,0C90.9,164.8,89,164.7,89.3,165.2z M95.9,231.6c-0.4-0.1-1.5,0.8-1,1C95.4,232.9,96.4,231.7,95.9,231.6z
	 M96.1,232.7c0.3,0.2,1.6-0.4,1.5-0.7C97.2,231.5,95.8,232.6,96.1,232.7z M67.8,181.5c-0.4,0.6,0.4,1.2,0.6,0.9
	C68.5,182.1,68.2,180.9,67.8,181.5z M129.4,105.9c-0.3,0.2-3.9-0.2-3.9-0.1c-0.1-0.7,1-0.5,0.8-1.4c-0.1-0.3,2.6,1.3,3.2,1.1
	c2-0.6-2-3-2-3.2c-0.1-0.4,1.5,0.3,1.7,0.2c0.3-0.1,0.6-0.9,0.2-1.1c-0.5-0.3-1.5-0.1-1.9,0.2c-0.6,0.4-1.3-0.5-0.4-0.6
	c1-0.1,0-0.4,0.4-0.7c0.3-0.3,1.3,0.5,1.6,0.6c3,0.8,1.3-2,0.7-1.7c0.4-0.2,2.7,0.3,2.4-0.6c0,0-1.4-0.3-1.6-0.4
	c-1.2-0.9,0.9-0.7,1.2-0.9c2-1.2-3.1-2.3-2.7-2.7c0.6-0.4,4.2,0,3.7-0.8c-0.5-0.7-1.3,0-1.9-0.4c-1-0.6,0.9-0.5,1-0.6
	c0.6-0.9-2.9-0.3-2.6-0.1c-0.2-0.1,1-2.3,1.5-2.5c0.1,0,2.4-2.3,2.5-1.8c-0.3-1.3-1.9,0.3-2.3,0c-0.3-0.2,3.5-1.2,3.5-1.2
	c-0.2-0.2-2.2-0.3-2.2-0.3c0.4-0.7,6-0.5,6-2c0-0.5-2.1-0.8-2.5-0.9c-0.6-0.1-1.3-0.1-1.8,0.1c-0.4,0.2-0.4,0.8-0.8,0.9
	c-0.5,0.1-2.1-0.6-2.3-0.5c-1,0.6-2.1,1.9-3.2,2.2c0.3-0.1,3.1-3.3,0.9-3.1c-0.4,0-3.7,2.2-3.9,1.5c-0.1-0.6,2-0.7,1.8-1.2
	c0-1-6.6,0.7-6.7,0.4c-0.2-0.5,9.4-1.2,10.1-1.9c-0.1,0.2-3.9-1.8-4.6-1.8c-2.7-0.2-5.2-0.4-7.9-0.4c-0.3,0-2.8,0.2-2.6,0.6
	c0.8,0.8-1.6,0-1.6,0c-0.4,0-5.9,0.6-5.8,0.6c0.1,0.3,1,0.4,1,0.7c-0.1,0.4-1.3,0-1.6,0.3c-0.3,0.4,2.8,1.5,2.5,1.9
	c-0.3,0.4-3.7-1.5-4.3-1.7c-2.9-0.8-0.4,0.7-0.4,1.2c0,0.8-2.3-0.6-2.4-0.6c-1.4-0.8,0.1,2.1-1.2,1.7c-0.2,0,0.6-2.2-0.9-2
	c-0.6,0.1-3.1,0.3-3.5,0.7c0.1,0.3,0.2,0.5,0.4,0.7c-0.1,0.2-1.7-0.3-1.9-0.3c-1.5,0.1-0.5,0.4-0.5,1.3c0,1-1.3,0.1-1.8,0.1
	c-0.7,0.1-1.4,0.5-2.1,0.8c-1,0.5-3.1,1.7-0.7,1.7c0.6,0,1.4,0.1,1,0.9c-0.6,1-1.3,1-2.3,1c-1.1,0-2.3,0.7-3.4,1
	c-0.3,0.1-1.2,0.2-1.2,0.6c0,1.1,1.5,0.5,2,1.1c0.5,0.6,1.8,0.4,2.4,0.2c0.9-0.3,1.9,0.7,0.9,0.7c-0.4,0-4.2,0.2-4.1,0.4
	c0.2,0.7,1.8,0,1.9,0.6c0.1,0.5-0.8,0.6,0.2,0.9c0.5,0.2,1.5,0.9,2,0.7c0-0.1-0.1-0.3-0.1-0.4c0.2-0.2,1.3,0.1,1.7-0.1
	c1-0.3,1.6-0.1,2.6,0.1c1,0.2,2.2,0.5,3.1,1c0.4,0.3,0.2,0.9,0.7,1.2c0.6,0.4,1.2,0.5,1.4,1.3c0.1,0.6,0.4,1.3,0.7,1.8
	c0.6,1.1,0.2,0.9,0,2.1c-0.3,1.8,1.9-0.3,1.9,0.3c0.1,1.3,2,0.9,2.1,2c0,0.1-3.1-0.9-3.1-0.3c0,1.1,2.9,0.8,3.2,1.6
	c0.9,2.2-2,1.2-2,2.3c0,0.5-1.1,1.2-0.6,1.7c0.4,0.4,1.3,0.3,0.4,0.9c-0.7,0.5,0.1,1.1,0.6,1.4c0.5,0.3,0.4,1.9,0.7,1.9
	c-0.1,0,1.5,1.9,1.5,2c-0.5,1.2,2.4,3.2,3.3,3.2c0.7-0.2,1.2,0.7,1.8,0.9c1,0.3,0.8,0,1.5-0.5c1-0.7,0.3-2.3,0.2-3
	c0,0.5,1.8-1.7,1.8-1.6c0.6-0.3-0.7-1,0.4-1c0.8-0.3-0.8-0.9-0.4-1.1c0.3,0,0.5,0.1,0.8,0.2c0.6-0.3-0.6-0.8,0.8-0.8
	c0.6-0.1,0.7-1.3,1.1-1.1c0.1,0.2,0.2,0.5,0,0.7c0.3,0.8,3.8-1.3,4-2.1c0.1-0.5,1.2-0.6,1.1-1.1c-0.2-1,1-0.1,1.3-0.5
	c0.6-0.6,3.1-0.6,3.9-0.9c0.8-0.3,1.5-0.8,2.3-1.2C128.4,107.1,129.8,105.7,129.4,105.9z M102.9,106.8c0-0.9-2-1.5-2.6-0.8
	C99.6,106.9,102.9,108.1,102.9,106.8z M115.3,235.1c0.1,0.3,1.6,1.3,1.8,0.9C117.5,235.2,115.3,235.1,115.3,235.1
	C115.4,235.5,115.3,235,115.3,235.1z M58.2,106.3c0,0,2.6,0.2,0.7-0.8c-0.5-0.3-3-1-2.7-1.9c0.3-0.8-1.5-1.7-0.5-2.6
	c1.9-1.9-1.8-1.2-1.6-0.9c0.2,0.4,1.1,0.5,1.1,1c0-0.2-3.1-1.7-1.7,1.4c0.4,0.8-0.5,1.2-0.8,0.3c-0.1-0.3-1.8-2.5-2-1.5
	c-0.1,0.3,0.8,0.3,0.7,0.8c0-0.1-1.2,0.3-1.3,0.3c0.1,0-0.5-1.2-1.4-1.1c-0.2,0-1.2,1.6-1.5,0.7c0,0.1,1.4-1.8-0.3-1.2
	c-0.7,0.2-2.5,1.4-3,1.4c0.5,0.2-0.6,0.6-0.5,1c0.1,0.5,0.7,0.2,0.8,0.5c0.4,0.9,1.6-0.5,2.3,0c0.1,0.1-2.9,0.6-2.1,1.2
	c0.6,0.5,5.4,0.1,5.4,0.7c0-0.1-6.4,0.4-4.4,1.3c0.3,0.2,2.8,0.6,2.7,0.7c-0.2,1.2,2.6,0.9,3.3,0.7c0.6-0.2,1.9-0.3,2.3-0.6
	c1-0.9,0.6-0.3,1.8,0c1.1,0.3,1.9,0.8,3.1,0.2c1.1-0.5-1.3-1-1.3-0.9C57.2,106.6,58.1,106.5,58.2,106.3z M60.8,103.8
	c0.9,0.6,2.4-0.8,2.6-1.7c0.1-0.3,0.5-1.3-0.1-1.3c-0.7,0,0.1,0.8-0.3,1c0.4-0.2-1.2-0.7-1.2-0.6c-0.3-0.4,2-1,0.8-1.4
	c-0.3-0.1-1-1.1-1.5-0.2c0.1,0.1,0.2,0.2,0.4,0.3c0,0.2-2.2-0.6-2.4,0.4c-0.2,0.9,2-0.1,1.1,1.1c-0.7,0.9-1.7-0.8-2.1,0
	C57.9,101.7,60.3,103.5,60.8,103.8z M57,97.5c0.3-0.3-0.6-1-0.8-0.4C55.9,97.6,56.7,97.8,57,97.5z M65.8,98.3
	c0.9-0.1-0.5-2.2-1.9-1.4C62,97.9,64.9,98.4,65.8,98.3z M66.2,92.6c-0.1-0.2-3.1,0.1-2.6,0.5C64.4,93.7,66.3,92.9,66.2,92.6z
	 M69.2,92.9c-0.7-0.4-1.6,0.4-0.9,0.7C68.9,93.8,69.9,93.3,69.2,92.9z M68.3,84.7c0.2-0.2,0.5-0.3,0.7-0.1c-0.2,0.1-0.3,0.3-0.5,0.5
	c0.3,0.1,0.6,0.1,0.9,0.1c0,0.1-0.5,0.4-0.5,0.6c0,0.4,0.8,0.2,0.8,0.6c0.3,1.2,2.3-0.2,2.5-0.1c0.4,0.2-0.3,0.6,0.4,0.8
	c0.3,0.1,1.9,0.4,2.1,0c-0.1,0.5,4-1.2,3.9-1.2c0.9,0.1-0.7,1.2-0.8,1.2c-0.2,0.1-2.5,0.2-2.4,0.5c0.1,0.4,1.6,0.9,1.5,1.2
	c-0.2,0.4-3.9-2.2-4.8-1c-1.1,1.3,3.9,2.6,3.9,3.4c0-0.1-3.4-0.5-3.8-0.3c-0.4,0.2-1.4,1.1-0.4,1.2c0.8,0.1,1.3-0.5,2-0.5
	c-1.7,0,1.5,3.3-0.6,2.1c-0.7-0.4-1.1-1.8-2.3-0.9c-0.8,0.6,1.3,0.8,0.9,1.2c-0.1,0.1-4.2,1.2-1.4,1.3c0.4,0,1.6-0.3,1.9,0.1
	c0.9,0.7,1.7-0.2,2.6-0.1c0.7,0,1.5-0.1,2.1,0.4c0.3,0.2,2.8-0.2,2.9-0.6c0.4-0.8-3.8-1-3.7-1.2c0.5-1.3,3.2,1,3.2-1.2
	c0,0.4,2.9-0.7,3.3-1.3c1.1-1.9-2.3-0.6-2.4-1.1c-0.1-0.6,2.9-0.3,3.2-0.6c0.7-0.9,0.6-0.1,1.9-0.5c0.4-0.1,1.6-1.1,2-1.4
	c0.5-0.3,4.5-1.8,4.5-2.2c0-0.3-2.7-0.3-2.6-0.3c0.6-0.5,1.7-0.4,2.4-0.4c0.6,0,3.6-1.5,3.3-1.7c-0.4-0.2-1,0-1.4,0
	c-0.7-0.1-0.4-0.6-0.8-0.8c-1-0.4-2.6,0.6-3.3,0.3c-0.1-0.1,0.8-0.8,0.8-0.8c-0.9-0.4-2.3,0.3-3.1-0.3c-0.5-0.4-1.1,0.6-1.6,0.1
	c-0.9-0.9-1.2,0.3-1.5,0.6c-0.3,0.3-2.7-1.1-3.6-0.2c-0.4,0.4-1.5-0.2-2-0.1c-0.9,0.1,0.1,0.3-0.5,0.4c-0.9,0.2-1.2,0.3-2.3,0.5
	c-0.5,0.1-0.4,1.1-1.3,0.4C74,83,73,82.6,72.7,82.9c-0.1,0.1-0.4,0.3-0.8,0.5c-0.2,0.1,0.4,0.4-0.1,0.6c-0.5,0.2-0.8-0.4-1.3-0.4
	c-0.4,0-3,1.5-3.2,1.2C67.6,84.9,67.9,84.9,68.3,84.7z M82,110.1c0.9-0.2-0.2-2.3-1.5-1.2C78.9,110.1,81.2,110.2,82,110.1z
	 M78.1,118.4c0.3-0.1,0.8-1,0.1-1C77.5,117.5,77.7,118.5,78.1,118.4z M67.2,97.6c0.2,0.6,2,1.2,2.5,0.8c0.7-0.5,1,0.1,2,0.2
	c1,0.1,2.3,0.4,3.1-0.4c0.3-0.3,2.2,0.3,2.8,0.2c1-0.2,1.1-1.5,0.1-1.7c-1-0.2-2.1-0.3-3.2-0.3c-1.1,0-2,0.2-3.1,0.2
	c-0.5,0-2.1,0.1-2.5-0.5c-0.1-0.2,0.6-0.6,0.7-0.7c0.4-0.4-3-0.7-3.1-0.7c-0.7-0.1-2.7-1.6-3.4-0.6c-0.4,0.6,2.3,1.2,2.6,1.2
	C67.5,95.2,66.8,96.6,67.2,97.6z M84.8,104.5c1.8-0.4-0.1-1.6-0.5-0.6c-0.1,0.3-1.3-1-1.6-1c-0.7-0.1-0.6-0.9-1.5-1.1
	c-0.4-0.1-0.9-0.2-1.4,0c-0.2,0.1-0.6,0.9-0.6,0.9c-0.4,0.1-0.4-0.6-0.7-0.5c-0.4,0.1-0.8,0.6-1.3,0.6c0.5,0-0.5-2.5-0.5-2.6
	c-0.3-1-2,0.2-2.5,0.3c-2,0.4-0.4,1.7-0.9,2c-0.7,0.6,0.6,1.4,0.4,1.4c-1.4,0.3-1.1-1.4-1.6-1.9c-0.8-0.8,1.4-1.6,1.4-2.1
	c0-0.4-1.5-0.1-1.6-0.1c-1.2,0.3-2.4,1-2.7,2.2c-0.9,3,1.7,1,2.3,2.5c0.1,0.4-2-0.1-1.9,0.3c0.3,1.1,1.6,0.6,2.3,0.8
	c0.6,0.1,0.6,0.6,1.4,0.6c0.8,0,1.5,0.1,2.2,0.3c1,0.2,1.5-0.4,2.6-0.1c1.8,0.4,0.2-0.5,0.7-0.8c0.2-0.1,3.2,1.7,3.2,2
	c0.1,0.3-1.2,0.5-0.9,0.8c0.5,0.4,1.2-0.8,1.7-0.3c0.6,0.7,0.2,0.5,1,0.8c0.8,0.3,1.2,1.4,0.9,2.1c-0.4,1,1.6,0.1,1.9,0.2
	c1.8,0.7,0.2,2-0.4,1.1c-0.4-0.6-1.5-0.9-2.2-0.6c-1.4,0.5,0.3,1.3-0.3,1.8c-1.1,0.9-2.5-0.6-3.6,0.5c-0.9,0.9,0.6,1.1,1.2,1.1
	c0.4-0.1,0.8-0.1,1.3,0c0.5,0.1,0.2-0.4,0.6-0.5c0.8-0.1,1.2,0.2,1.6,0.8c0.3,0.3,1,1.5,1.4,1.6c0.5,0.1,4.1,2,4.4,1.6
	c0.4-0.6-2.3-2.7-2.4-2.5c0.5-0.5,1.6,0.5,2,0.7c0.6,0.3,2.6-0.3,1.8-0.8c-0.7-0.3-0.5-1.6-1.4-1.6c-0.3,0-2-1.1-1.5-1.3
	c0.4-0.1-0.2-1.4,0.6-1.1c1,0.4,1.4,1,2.2,1.8c0.8,0.8,3-2.1,3-2.1c-0.5-0.6-1.5,0-1.8-0.7c-0.3-0.6-0.9-1.3-1.7-1.1
	c-0.5,0.1-2.3-0.7-2.6-1.1c-0.9-1,0.9-0.5,1-0.8c0.2-0.4-1-0.2-1-0.5c-0.2-0.5,0.9-0.1,0.4-0.8c-0.7-0.9-0.5-0.1-1-0.1
	c-0.3,0,0.4-0.7,0.1-0.9c-0.5-0.4-1.5,0.1-1.8-0.2C86.2,105.2,84.3,104.6,84.8,104.5z M77.5,115.4c0.3-1-4-1.9-4-2.8
	c0-0.9-1.1,1.1-1.1,1.1c0,0.1-0.8,2.1-0.9,1.9c0-0.2,2.1,0.5,2.2,0.5c0.7-0.3,1.1-1.3,2-0.8C76,115.6,77.3,116,77.5,115.4z
	 M74.7,117.6c0.6,0.4,1.6-0.7,1.5-1C76.1,116.3,73.9,117.1,74.7,117.6z M61.4,94.7c-0.2,0.6-1.7-0.7-2-0.4c-0.3,0.2,0.7,1.3,0.8,1.2
	c-0.6,0.1-1-0.8-1.6-0.7c-0.6,0.1,0.3,0.9,0.3,1c0,0-3.5-2.6-2.6-0.7c0.4,0.7,1,0.9,1.6,1.4c0.3,0.2,2.3-0.1,2.2,0.1
	c-0.1,0.4-0.9,1.1,0.1,1.1c0.5,0,1.6,0.1,1.9-0.5c0.3-0.6-0.1-0.7,0.1-1.2C62.9,95.3,61.4,94.5,61.4,94.7z M43.3,96.7
	c0.7,0.1,1.4-0.6,1.4-0.9C44.6,95.4,43,96.7,43.3,96.7z M48.2,92.6c0.2-0.5-1.3-0.4-1.2-0.2C47.3,92.7,48,93.1,48.2,92.6z
	 M63.5,88.6c0.6,0.3,0.5,1,1.3,1c0.4,0,2-0.5,2.2,0c0.2,0.5-1.7,0.6-1.6,0.8c1.3,1.3,2.4,1.3,3.9,1.3c0.9,0,1.4-0.3,1.9-1
	c0.3-0.4,2.2-1.3,2.1-1.5c-0.3-0.4-1.1-0.1-1.5-0.2c-0.8-0.2,0-0.5-0.3-0.8c-0.2-0.3-0.5-1.1-0.9-0.9c-0.3,0.1,0.1,0.8-0.6,0.2
	c-0.5-0.4-0.3-0.6-1-0.9c-0.5-0.2-3.5-2.1-3.8-1.4c0.2,0.1,0.4,0.3,0.7,0.4c0,0.3-1.4,0-1.3,0.4c0.2,0.1,0.4,0.3,0.6,0.4
	c0.1,0.2-1.4,0.2-1.5,0.4c-0.7,0.7,0.8,0.8,1,1c0.3,0.3-1.8,0.1-1.6,0.6C63.3,88.4,63.4,88.5,63.5,88.6z M40.1,95.6
	c0.2,0.1,0.1,0.6,0.3,0.5c0.5-0.4,0.8,0,1.3-0.5c-0.8,0.8,1.9,0.3,1.4,0c0.5,0.2,1.3-2,1.3-0.8c0,1.9,2.3-1.5,2.2-1.5
	c-1.4-0.6-1.2,0.7-2.5,0c-0.5-0.2-1.8,0.9-2.1,1.2C41.9,94.6,39.9,95.5,40.1,95.6z M31.1,128.4c-0.7,0.4,0.9,2.3,1.4,1.9
	C32.7,130.1,32.1,127.8,31.1,128.4z M38.6,103.1c0.3,0.1,1.2,1.8,1.5,1.3c0.3-0.6,1.2-0.3,1.8-0.5c0.3-0.1,0.5-0.3,0.4-0.7
	c0-1,0.9-0.5,1.1-1.1c0.3-1,1.7-1.1,2.5-1.5c3.1-1.4-7.9-2.8-7.6-1.7c0.1,0.3,0.8,0.5,0.6,0.9c-0.1,0.2-0.9,0.9-0.7,1.1
	C39.1,101.6,35.9,102.7,38.6,103.1C39.3,103.3,37.9,103,38.6,103.1z M46.2,95.4c-0.1,0.1-0.2,0.1-0.4,0.2c-0.2,0.4,1,0.5,0.9,0.5
	c-0.1,0-1.9,0-1.5,0.6c0.1,0.2,1-0.2,1.3-0.1c-0.1,0-1.7,0.7-1.7,0.6c0.7,1.4,2.5-0.4,3-0.4c0.2,0-0.3,0.7,0.4,0.6
	c0.2,0,1.7-0.4,1.8-0.2c0.2,0.6-2.5,0.5-2.5,1c0.1,1.3,3.4-0.2,3.8-0.6c0.9-0.9,3.4,0.8,3.9-0.9c0.1-0.4,0-1.5-0.8-1.1
	c-0.9,0.4-0.8,0.4-1.6-0.4c-0.5-0.5-0.1-1.3-1.1-0.8c-1.1,0.6-0.5,0.5-0.1,1c-0.3-0.5,0.2,1.7,0.4,1.1c-0.9,0.9-2-0.7-2.6-1
	c-0.4-0.2-1.7-0.1-1.9-0.4C46.7,94.5,47,95.4,46.2,95.4C45.6,95.5,46.7,95.4,46.2,95.4z M61.4,88.6c0.3-0.5-1.7-0.8-1.2-0.4
	C60.5,88.4,61.2,89.1,61.4,88.6z M51.4,92.4c0.7-0.1-2.8-0.9-2.8,0.3c0,0.8,1.3,0.9,1.8,0.7c0.8-0.3,0.5-0.8,0.5-0.8
	C51.1,92.5,51.2,92.5,51.4,92.4z M56.1,90.4c0.3-0.2,1.3,0,1.2,0.6c-0.1,0.3-1.4,0.1-1.4,0.2c0.4,0.4,0.5,0.5,1.1,0.3
	c1.3-0.4,1.9,0.3,3,0.8c1.5,0.7,1.1-1.8-0.4-1.8c-0.8,0-1.4-0.9-2.1-1.1c-0.6-0.2-1.4-0.2-2.1,0C55,89.7,55.6,90.8,56.1,90.4
	C56.6,90.1,55.6,90.8,56.1,90.4z M63.1,92.4c0.4,0,1.9,0,1.6-0.6c0.1-0.2,0.1-0.4,0.1-0.6c-0.1-0.1-0.9-0.3-0.9-0.1
	c-0.1,0.3-1.5-1-1.8-0.6C61.7,90.9,62.4,92.4,63.1,92.4z M49.5,91.7c0.3,0.1,3.3,0.1,2.4-0.6c-0.6-0.5-3-0.3-3.5,0.3
	C48.2,91.7,49.5,91.7,49.5,91.7z M56.3,93.7c0.3-0.4-1.3-1.7-1.3-1.1C54.9,93.3,56,94.1,56.3,93.7z M77.1,100
	c-0.2,0.4,0.9,1.7,1.4,1.7c0.3,0,2.6-0.5,2.6-0.6C81.1,100.2,77.4,99.4,77.1,100C76.9,100.5,77.4,99.5,77.1,100z M91.8,133.2
	c0.1,0.3,2.4,1.3,2.4,0.8C94.3,133.6,91.7,133,91.8,133.2z M99.5,131.6c0.5-0.2-0.2-0.4-0.4-0.3c-0.4,0.2-0.8,0.8-1,1.2
	c-0.4,0.6-0.2,0.8-0.4,1.4c-0.1,0.4-0.8,0.1-0.9,0.5c-0.2,0.5-0.6,1.5,0.5,1.4c0.2,0,3.1-0.2,3,0c-0.1,0.2-0.2,0.3-0.3,0.5
	c0-0.7,1.4,0.2,1.5,0.2c0.2,0.2,0.9,0.2,1-0.1c0.4-0.9-0.4-0.6-0.6-0.7c-0.3-0.3,0.3-0.6,0.2-0.8c-0.2-0.4-1,0.6-0.7-0.5
	c0.3-1-0.1-0.4-0.7-0.4c-0.4,0-0.7-0.5-1-0.7c0,0-1-0.4-0.8-0.1C98.6,132.9,99.3,131.7,99.5,131.6z M0.6,129.1
	c0.5-0.2,0.7-0.4,0.5-0.7C0.8,128.2,0.2,129.2,0.6,129.1z M8.6,162.4c0.2,0.3,0.4,0.4,0.6,0.1C9.3,162.3,8.3,162.1,8.6,162.4z
	 M3.9,127.3c-0.4-0.2-1.3,0.6-1.2,0.6C2.9,128,4.3,127.5,3.9,127.3z M7.2,161.8c0.3,0.3,0.5,0.2,0.5-0.1
	C7.8,161.5,6.9,161.5,7.2,161.8z M10.2,162.8c-0.3,0.1-0.1,0.6,0.1,0.4C10.6,163,10.5,162.8,10.2,162.8z M13.8,122.7
	c0,0.3-2.8,1.3-2.1,2.1c0.2,0.2,1-0.1,1.1-0.1c1-0.6,0.5-0.5,0.5-1.1c0.2-0.2,0.4-0.3,0.6-0.3C14,123,14,122.8,13.8,122.7z
	 M10.9,163.6c-0.6,0.1-0.1,1.3,0.1,1.1C11.2,164.5,12.2,163.3,10.9,163.6z M1.3,120.4c-0.1-0.3-1.6,0.5,0,0.7
	C2.9,121.4,1.3,120.3,1.3,120.4z M152,144.3c-0.1-0.5-1,0.1-0.8,0.3C151.6,144.8,152.1,144.7,152,144.3z M170.7,149.1
	c0.5,0,0.9-0.1,1.2-0.4c0,0-2.4-0.4-2.6-0.2C169.1,148.8,170.7,149.1,170.7,149.1z M178.5,149c0-0.4,0.7-0.6,0.7-0.8
	c0,0.2-1.9,0.4-2.1,0.6C176.8,149.3,178.5,149.6,178.5,149z M135.6,114.7c0.2,0,0.9-0.7,1.1-0.8c0.8-0.8-0.1-0.9-0.6-1.3
	c-0.3-0.3-1-1.5-1.8-1.1c-0.2,0.1-0.5,1.1-1,0.6c-0.4-0.4-1.7,0.5-1.7,0.5c-0.1-0.2-0.3-0.4-0.6-0.6c0,0-0.5,1.8-1,1.1
	c-0.3-0.3,0.1-0.6-0.1-0.9c-0.1-0.1-1.5-1-1.6-0.6c0,0.1,0.4,0.5,0.4,0.5c-0.4,0.3-0.6-0.2-1.3,0.4c-0.8,0.8,1.5,0.2,1.8,0.5
	c0.5,0.5-1.8,0.8-1.7,1c0-0.1,1.9,0.1,1.6,0.3c0.8-0.3-0.3,1.4-0.5,1c0.4,0.4,1.1-0.2,1.6,0c0.8,0.3,1.3,1,2.3,0.5
	C133.5,115.3,134.5,114.7,135.6,114.7z M140.7,131.2c0.6,0,2.1-0.5,2.6-0.8c0.7-0.3,0-1.7,0-2.2c0.2-0.3,1.1-0.2,0.7-0.9
	c-0.4-0.6-0.7-0.7-1.3-0.4c-0.7,0.3-0.2-0.1-1.1,0c-0.9,0.1,0.1,0.6,0.1,0.7c0,0.6-1.4,0.3-1.6,0.4c-0.3,0.2,0.4,1.2,0.5,1.3
	c0.5,0.4-0.7,1.2-0.8,1.4C140,130.7,140.4,131.2,140.7,131.2z M147.9,120.6c0.2-0.2,0.5-1.1,0.2-1
	C147.7,119.7,147.8,120.7,147.9,120.6z M143.2,123.8c-0.4,0.3,0.8,0.5,0.7,0.6c-0.7,0.9,0.1,0.5,0.1,1.1c0,0.4-0.7,0.2-0.7,0.6
	c0,0.3,0.6-0.2,0.6-0.2c0.1,0,0,0.6,0.4,0.5c0.3-0.1,0.5-0.7,0.5-0.7c0.4,0-0.2,1.5-0.2,1.5c0,0.5,1.5-0.2,1.6-0.2
	c-0.3-0.1,0.3,1,0.4,1.1c0.4,0.4-0.4,1.2-0.9,1.2c-0.4,0-0.8,0.1-0.8,0.7c0.2,0.1,0.4,0.2,0.5,0.4c0,0.4-1.2,0.5-1.1,0.8
	c0.2,0.4,2.3,0.3,2.3,0.4c0,0.2-3,0.8-2.3,1.7c-0.1-0.1,2.5-0.7,2.8-0.8c0.1,0,3.5-0.8,3.2-0.8c-0.2,0.1-0.4,0-0.6-0.2
	c0.1-0.5,1.9-1.5,0.4-1.8c-0.7-0.2-0.6,0-0.9-0.8c-0.3-0.7-1.6-3.7-2.8-3.1c0.1,0,0.9-1.6,0.9-1.8c0.3-1-1.6-0.1-1.9-0.5
	c-0.1-0.2,1.3-1.2,0.8-1.4c0.1,0.1-1.9,0.7-1.8,0.6c0,0.1-0.6,1.6-0.7,1.4C143.7,123.8,143.5,123.7,143.2,123.8z M142.8,123.4
	c0.4,0,0.8-0.6,0.6-0.8C143.3,122.5,142.6,123.4,142.8,123.4z M160.3,125.7c0,0-0.3,0.1-0.5-0.1c-0.6-0.6-0.7,1.8-0.2,1.4
	c-0.2-0.1-0.4,0-0.4,0.2C159.4,128.1,160.6,126,160.3,125.7z M165.5,123.4c-0.5,0-0.7,1-0.6,1.2C165,124.6,166,123.3,165.5,123.4z
	 M168.2,123.1c0.2,0,1.1-0.7,0.9-0.8C168.2,122,168.2,123.1,168.2,123.1z M169,121.9c0.1-0.2-0.8-0.1-0.6,0.1
	C168.6,122.1,168.9,122.1,169,121.9z M165.2,88c0.1,0.1,0,0.5,0.7,0.5c0.5,0,1.9-0.5,2.4-0.1c0,0-1.8,0.6-1.8,0.6
	c0.6,1.2,6.9,0.4,6.5-1.1c-0.1-0.2-3-0.6-3.1-0.4c-0.3,0.9-0.5-0.3-0.6-0.4c-0.6-0.8-0.6,0.9-0.6,0.9c-0.3,0.3-2-1.1-2.4-1.1
	c0,0.1,0,0.3,0.1,0.4c-0.3,0-0.5-0.1-0.7-0.2c-0.1,0.2-0.1,0.3,0,0.5C165.9,87.2,163.4,87.1,165.2,88z M158.9,91.2
	c0.2,0.2,0.4,0.3,0.6,0.4c-0.3,0-0.6-1.4-1.2-1.3C157.9,90.5,158.7,91.1,158.9,91.2z M159.7,89.6c0.3,0.1-0.5,0.8-0.5,0.9
	c-0.1,0.4,0.7,0.8,0.9,1c1,1,1.6-0.7,2.2-1c0.5-0.2-0.1,0.6,0.1,0.7c0.3,0.1,1-0.5,1.1-0.4c0.4,0.7-2.8,1.4-2.5,1.7
	c0.2,0.1,2.7,0.1,2.8,0c-0.3,0.2-2.5,0.2-2.6,0.6c-0.2,0.7,1.6,0.7,1.8,0.8c0.1,0.1-0.4,0.2-0.4,0.3c0.1-0.1,1.3,1,1.3,0.2
	c0-0.9,1.5-1.6,1.4-2.1c-0.1-0.3,0.2-0.7,0.3-1c0.3-0.9,1.9-0.5,1.9-0.6c-0.1,0.3-1,0.3-0.2,0.8c0.9,0.2-0.2,1.3,0,1.5
	c0.3,0.4,1.2-0.4,1.5-0.2c0.2,0.1-0.2,0.8,0.4,0.6c0.2-0.1,1.6-1,1.6-1.1c0-0.4-1.1-0.1-1.3-0.2c-0.3-0.2,0.7-0.6-0.2-0.6
	c0,0-1.1,0-0.7-0.3c0,0-1-1.2-1.2-1.3c-0.1,0-1-0.3-1-0.3c0-0.3-0.8,0-1-0.5c-0.3-1.1-0.7,0.1-0.9-0.1c-0.4-0.2,0.7-0.8-0.4-1
	c-0.2,0-0.7-0.3-0.8-0.3c-0.7-0.3,0.3,2.1,0.3,2.1c-0.2,0.3-1.1-1.4-1.2-1.5c-0.6-0.8-0.7,0.7-0.9,0.9c0,0-0.6-0.6-0.8-0.6
	c0.1,0,1-0.3,0.8-0.4c-0.5-0.4-1.4,0.2-1.9-0.1c-0.1,0-0.9,0.3-0.9,0.5C158.5,90,159.2,89.4,159.7,89.6
	C160.1,89.7,159.4,89.5,159.7,89.6z M315.9,116c-0.1,0.1-1.3,0.1-1.1,0.4c0.2,0.2,2.8,0.8,2.8,0.2
	C317.5,116.3,316.2,115.7,315.9,116C315.7,116.1,316.1,115.8,315.9,116z M272.1,140.8c-0.8,0.3-0.4,1.8-0.5,1.8
	c-0.1,0.1,0.9-0.5,0.9-0.4c0.1-0.3-0.6-0.4-0.5-0.7c0-0.5,2.5,0.4,2.4,0.4c0.1-0.4,0.3-0.6,0.6-0.8c0.5-0.1,0.9-0.2,1.4-0.3
	c0,0,0.9-1.3,0.9-1.3c0,1.2-3.3-0.4-3.6-1c-0.6-1-0.6,0.8-0.6,0.9C272.8,139.9,273,140.8,272.1,140.8
	C271.8,140.9,272.5,140.8,272.1,140.8z M262.8,150.9c-0.3,0.1-0.4,0.3-0.4,0.6c0.3,0.5,0.5-0.6,0.6-0.3c0.3,0.5-0.3,1.1-0.1,1.6
	c0.4,1.2,1.2-0.9,1.4-1.1C264.9,151.1,263.4,150.4,262.8,150.9z M265.6,151.3c0.2-0.6,0.9,0,1.2-0.5c0.6-0.9-0.6-1.1-0.7-0.7
	c-0.2,0.6-0.9-0.2-1.1,0.5C264.9,151,265.3,152.1,265.6,151.3z M267.5,148.6c0-0.4-2.6,0.4-2.8,0.6c-0.2,0.2-1.2,0.5-1.2,0.8
	c-0.1,0.5,1.1,0.2,1.3,0.1c0.3-0.3,2.8-1,2.6-0.2c-0.1,0.4,0.1,0.8,0.6,0.6c0.9-0.3,0.5-0.7,0.6-1.1c-0.1,0.3,2.9-0.2,3-0.2
	c1.3-0.2,0.5-2.7,1-3.3c0.9-1.2,0.9-1.1,0.4-2.6c-0.2-0.8-1.1-0.6-1.4,0.2c-0.3,0.8,0.2,1.8-0.7,2.6c-0.1,0.1-2.3,1.8-1.7,0.7
	c-0.1,0.2-0.7,0.1-0.7,0.7c0,0-0.5,1.2-0.5,1.2C267.7,148.8,267.6,148.8,267.5,148.6z M245.3,164.8c0.2-0.4,0.3-0.7,0.5-1.1
	c-0.3-0.6-1.8,0.1-2,0.5C243.2,165.3,245.3,165.6,245.3,164.8z M254.5,161.7c0.4-0.3,1.4-2.2,1.1-2.7c-0.4-0.7-1.5,1-1.6,1.2
	C254,160.2,254.1,162.1,254.5,161.7C254.8,161.5,254.4,161.8,254.5,161.7z M253.7,167.1c-0.4,0.8,0.7,1.3,0.4,1.9
	c-0.1,0.3,1.9,0.5,2.2,0.7c0.9,0.5,0.2,1.2,1.1,1.4c0.4,0.1,0.2,1.7,0.8,1.7c0.5,0,1-1.9,0-2.3c-0.4-0.1-1.3-0.7-1.3-1.2
	c0-0.7-1.4,0.3-1.5-0.6c-0.1-0.9-0.3-0.8,0.4-1.7c0.2-0.2,0.1-1.5-0.1-1.7c-0.1-0.1-1.4-0.2-1.5-0.1c-0.6,0.3,0.2,1.7-0.2,2.1
	C253.9,167.3,253.8,167.2,253.7,167.1C253.6,167.3,253.7,167,253.7,167.1z M252.5,172.8c-0.2,0.2-1.3,1.2-1.1,1.5
	c0.2,0.2,1.2-1.1,1.3-1.2c0.3-0.2,0.5-0.5,0.7-0.8c0-0.3-0.1-0.4-0.3-0.5C252.9,172.2,252.7,172.5,252.5,172.8z M258.7,173.4
	c0,0.1-1,1-1.1,1c-0.7-0.1-0.6-0.6-1.3,0c0,0-1.3,1.1-0.8,1.1c0.4,0,1.5-1.1,1.7-0.3c0.2,0.7,0.3,1.7,1.4,1.7c0.3,0,0-1,0-1.1
	c0-0.2,0.8-0.2,0.9-0.4c0.4-0.5-0.2-1.5-0.2-2C259.3,172.8,258.5,173.1,258.7,173.4z M254.1,169.8c0.1,0.4,0.3,1.1,0.8,0.9
	C255.6,170.5,254.1,169.5,254.1,169.8z M255.6,171.1c-1.5,0.4,1,1.7,0.7,0.9c0.2,0.5-0.2,0.9-0.1,1.4c0.3,0.9,1-0.6,1.1-0.8
	C257.4,172.3,256.1,171,255.6,171.1z M257.8,172.9c-0.2-0.3-0.7,0.2-0.7,0.4C257.3,173.6,258.1,173.2,257.8,172.9z M282.5,185.2
	c0.1,0.1,0.4,0.9,0.6,0.8c1-0.2-0.9-1.2-0.9-1.1C282.3,185,282.4,185.1,282.5,185.2z M278.1,187.8c0.1,0,0.3-0.1,0.4-0.1
	c0.1-0.2-3.3-2.5-3.7-2.7c-0.8-0.4-5.3-2.4-5.8-1.8c-0.4,0.5-1.2,1.2-1.9,1.4c-0.6,0.2-0.8-1.6-0.9-1.9c-0.7-2.1-2.6,0.2-2.9,0.2
	c0.5,0,2.2,1.2,2.6,0.9c-0.2,0.2-1.2,0-1.6,0.1c-0.2,0,1.1,1.9,1.1,1c0-0.3,1.4,0.7,1.7,0.7c1,0,2.7,0.5,2.8,1.6
	c0,0.3,1,1.1,0.2,1.1c-0.1,0-1.2,0.3-0.8,0.7c0.2,0.4,1.9-0.3,2.4,0.1c0.9,0.9,2.2,1.1,2.8-0.1c0.8-1.4,2.2,0,2.9,0.8
	c0.3,0.4,3.3,1.7,3.3,1.1C280.9,190.6,277.3,187.8,278.1,187.8z M281.9,186.1c0,1.2-2.9,0.2-3,0.7c0,1.9,4.3-0.2,3.5-1
	C282.1,185.7,282,185.8,281.9,186.1z M219.6,173.1c-0.5,0-0.9,3.8,0.5,3.3C221.6,175.9,220.9,173.1,219.6,173.1z M191.9,192.3
	c0,0.1-1.6,2.7-2.1,2.8c-0.8,0.2-2.4,0.6-2.5,1.4c-0.1,0.9-0.4,1.2-0.1,2.2c0.4,1.2-0.3,1.5-0.6,2.6c-0.8,2.5,2.5,5.1,3.5,2.2
	c0.6-1.6,1.2-3.3,1.6-4.9c0.2-0.5,0.3-2.7,0.6-3c0.2,0.1,0.3,0.2,0.5,0.3C193.5,195.7,191.9,192.6,191.9,192.3
	C191.8,191.9,191.9,192.6,191.9,192.3z M195.7,170.6c0.3,0.3,0.9-0.1,0.9-0.2C196.6,170.3,195.4,170.2,195.7,170.6z M209.5,229
	c-0.1-0.3-0.6,0.5-0.6,0.7c0.1,0.7,0.8,0.1,1,0.3c0.4,0.4,1.1-0.4,0.7-0.6C210.3,229.2,209.6,229.2,209.5,229
	C209.4,228.7,209.6,229.2,209.5,229z M289.1,190.2c0.1,0.4,0.7,0.6,0.9,0.5C290.2,190.6,289,189.8,289.1,190.2z M289.2,189.4
	c0.2-0.1-1.2-0.9-1.2-0.7C288,189,289,189.5,289.2,189.4z M286.3,187.8c0,0.1,0.6,0.7,0.8,0.6C287.2,188.3,286.3,187.7,286.3,187.8z
	 M284.6,186.7c-0.1,0.2,0.8,1.5,1.1,1.3C286.3,187.7,284.7,186.5,284.6,186.7z M290,189.4c-0.2,0.4,0.6,1.2,0.7,1.2
	C290.8,190.6,290.1,189,290,189.4z M290.7,191.1c0.1,0.1,0.6,0.6,0.8,0.4C291.7,191.3,290.6,190.9,290.7,191.1z M283.4,207.4
	c0,0-0.5-2.7-0.2-2.6c-0.4-0.2-0.4,0.3-0.8-0.5c-0.3-0.5-0.8-0.5-0.9-1c-0.1-0.3-0.6-1.9-1.4-1.2c0.2-0.1-0.9-2.2-1.3-2.4
	c-1.2-0.8-1.9-0.8-1.9-2.5c0-0.4-0.7-2.9-1.4-2.8c-1.2,0.2-0.8-2.5-1.6-3.3c-0.5-0.5-0.9,2.4-0.9,2.4c-0.7,0.7,0,2.8-0.8,3.8
	c-0.6,0.8-5.1-2.1-4.9-2.6c0,0,0.7-1.3,0.5-1.2c0.2-0.1,1.2-0.6,0.9-1c-0.3-0.6-0.5,0.1-0.6,0.2c-0.1-0.2-0.2-0.3-0.3-0.5
	c-0.6,0-0.3,0.4-1,0.1c-0.1-0.1-2.3-0.8-2.2-0.8c-0.4,0.1,0.9,0.7-0.1,0.9c-0.3,0.1-1.1-0.1-1.1,0.2c0,0.1-0.9,0.9-1,1.3
	c-0.1,0.2-0.3,0.4-0.4,0.6c0.2,0.2,0.3,0.5,0.4,0.7c0.2-0.2-1.8-0.1-1.4,0.1c-0.1,0-2.2-2.6-2.2-0.7c-0.2-0.7-2.1,1.6-1.6,1.7
	c-0.2-0.1-0.4-0.2-0.6-0.2c-0.3,0.1,0.3,0.8,0.1,1c-0.7,0.7-0.5-0.8-0.9-0.5c-0.5,0.4-0.7,0.7-0.6,1.3c0.1,0.3-1.1,1.2-1.3,1.5
	c-0.1,0.2-3.5,0.9-3.4,1.1c-0.2-0.7-2.5,1.4-2.7,1.6c-0.1-0.2-0.1-0.4-0.1-0.6c0-0.2-0.4,1.7-0.4,1.7c-0.8,1.1,0.8,1.9,0.3,2.6
	c-0.1,0.2-0.5-0.5-0.5-0.5c0.1,0.2,0.2,0.4,0.3,0.6c0,0.1-0.6-0.5-0.6-0.5c-0.2,0.4,1.3,2.7,1.5,3.1c0.5,0.8,1.5,3.5,0.7,4.4
	c0,0-1.2,0.8-0.2,0.8c0.8,0.2,0.9,0.8,1.9,0.8c1.4,0,2-1.2,3.5-1.1c2,0.2,2.3-0.9,4-1.5c1.5-0.6,3.3-0.6,4.9-0.9
	c0.2,0,2.8,0.7,2.8,1.1c0,0.2,1.2,2.4,1.2,2.4c0.4-0.2,1.8-2.2,2.1-2c0.5,0.3-0.9,1.8-1,2c-0.4,1.1,1.3-0.8,0.9-0.6
	c0.6-0.5,0.3,1.2,0.3,1.2c0.1,0.2,1-0.2,1.4,0.6c0.4,1,0,1.1,1.1,1.8c0.6,0.5,1.6,0.3,2.3,0.8c0.7,0.5,1.2-1.3,1.6-0.8
	c0.1,0.2-0.4,0.4,0,0.5c0.2,0,0.3-0.1,0.2-0.4c0,0,0.8,0.8,0.9,0.9c-0.2-0.1,0.9-0.7,0.9-0.8c0.7-0.5,1.1-0.6,2-0.7
	c0.6,0,0.5-1.3,0.6-1.8c0.1-0.6,0.6-1.4,0.9-2c0.2-0.5,1.3-1.5,1.3-1.9C282.4,210.9,283.1,207.7,283.4,207.4
	C283.6,207.3,283.3,207.5,283.4,207.4z M262.7,192.3c0.2,0.2,1.2-0.1,1.1-0.3C263.8,191.8,262.4,192.1,262.7,192.3z M277.1,220.6
	c-0.4,0.1-1.1-0.6-1.5-0.4c-0.4,0.2,0.9,2.8,1.2,3c0.8,0.6,0.4-0.2,0.9-0.2c-0.2,0,0.7-0.4,0.7-0.4c-0.1,0,0.5-1.2,0.5-1.3
	C278.9,219.5,278.1,220.6,277.1,220.6C276.6,220.7,277.6,220.6,277.1,220.6z M268.2,215.2c0.2,0.2,0.9,0.1,1.1-0.1
	C269.4,214.8,268.1,215,268.2,215.2z M301.6,220.5c-0.4-0.3-0.7,0.2-1.3-0.2c-0.4-0.3-1,0.9-1.1,1.1c-0.8,1.6-2.5,2.1-3.7,3.2
	c-1.3,1.2,0.8,2.5,1.9,2c0.7-0.2,1.3-1.2,1.5-1.8c0.4-1.1,0.8-0.6,1.6-1.1c-0.3,0.2,0.5-1.4,0.5-1.3
	C301.1,222,302.5,221.1,301.6,220.5z M296,227.2c0.1,0.1,0.6-0.1,0.3-0.4C296.1,226.5,295.7,227.1,296,227.2z M304.8,217.3
	c-0.6,0.8-1.9-1.3-1.9-1.2c0.1,0.1,0.1,0.3,0.1,0.4c-0.2,0.4-1.1-1.9-1.2-2c-1.6-1.6-0.2,0.9,0.2,1.5c0.7,0.9,0.3,1.7-0.5,2.4
	c-0.3,0.4,1,0.9,1.2,1.1c0.5,0.5-0.5,1-0.3,1.4c1.2,1.2,1.8-2.2,2.4-2.4C306.2,218.2,305.5,216.2,304.8,217.3z M306,197.1
	c0.2,0.1,0.9-0.2,0.9-0.5S305.7,197,306,197.1z M304.8,198.1c0.3,0.3,1,0.3,1-0.3C305.8,197.3,304.5,197.9,304.8,198.1z M199.6,85.9
	c0.3,0,1.6-0.7,1.7-0.6c-0.3-0.4-2.8,0.3-2.8,0.3C198.8,85.8,199.2,85.9,199.6,85.9z M190.2,87c0.2-0.2,1.5-0.2,1.5-0.3
	c0.2-0.5-3.1,0-3,0.3C189.1,87.4,189.8,87.4,190.2,87z M204.2,86.8c0.3-0.3-1.4-0.7-1.9-0.3C200.8,87.8,203.6,87.4,204.2,86.8z
	 M200,86.4c0.1-0.5-2.4-0.4-2.3-0.6c0,0-0.6,1.2-0.8,0.9C197.3,87.1,200,87.1,200,86.4C200.1,85.8,200,86.9,200,86.4z M192.7,86.8
	c0.1,0.1-2.2,0.8-2,1c0.5,0.8,1.9,0,2.3-0.4c0.2-0.2,1.7-0.5,1.5-0.7C194,86,192.3,86.5,192.7,86.8z M191.6,107.8
	c0.5,0.5,1.9-0.4,1.8-0.6C192.7,106.4,190.8,107.3,191.6,107.8C192.3,108.5,191,107.4,191.6,107.8z M206.1,86.7
	c0.3,0,1.4-0.6,0.5-0.8c-0.3-0.1-2,0.7-2,0.7C204.9,86.9,205.7,86.7,206.1,86.7C207.1,86.6,205.6,86.7,206.1,86.7z M197.2,100
	c0.4,0-1.7,1.7-1.8,1.5c0.6,1,0.1,0.9-0.9,1.3c-0.7,0.3,1.4,1.5,1.3,1.6c0-0.2,0-0.4,0.1-0.6c1,0,0.3,1,1.1,1.2
	c0.3,0.1,2.9,0.4,2.9,0.1c0-0.4-1.3-1.2-1.6-1.6c-0.6-1,0.2-1.2,0.5-2.1c0.4-1.1,2.2-1.6,2.2-2.7c-0.2-0.4,9.3-3.5,9.4-4.1
	c0.2-1.2-4.3,0.7-4.8,0.8c-1,0.3-4.3-0.1-4.9,1.1c-0.1,0.3-1.2,0.9-1.5,0.7c-0.5-0.4,0,0.8-0.4,1C198.4,98.3,196.8,100,197.2,100z
	 M199.7,87.3c0.1,0.2-1.1,0.2-1.2,0.4c-0.3,0.3,2.5,0.7,2.8-0.3C201.3,87.3,199.7,86.9,199.7,87.3C199.8,87.5,199.7,87.1,199.7,87.3
	z M274.8,101c1.2-0.2-3.5-2-2.7-0.4C272.6,101,274.1,101.2,274.8,101C275.3,100.9,274.4,101.1,274.8,101z M269.4,97.6
	c0.4,0.2,0.6,0.7,1.1,0.7c0.7-0.1,0.8-0.3,1.4,0c0.2,0.1,1.6-0.3,1.9-0.3c0.8,0-0.6-1.1,0.1-1.1c0,0,2,2.4,2,0.6
	c0-0.7,1.1-0.3,0-1.1c-0.5-0.3-1.9-0.5-2.5-0.6c-0.6-0.1-0.5,0.7-0.8,0.7c-0.6,0-1.1-0.8-1.6-1C270.2,95.4,268.5,97.2,269.4,97.6
	C269.8,97.8,268.5,97.2,269.4,97.6z M306.4,104.9c0.4,0.2,3.2,0.1,3.4-0.3C310.2,103,305.5,104.4,306.4,104.9
	C306.9,105.2,305.8,104.6,306.4,104.9z M277.3,97.6c0.4,0.1,4.2,1.6,4.2,0.3c0-0.6-1.7-0.5-2.1-0.7c-0.5-0.2-1.2,0.4-1.5-0.3
	C277.6,96.5,277.1,97.6,277.3,97.6C277.9,97.7,277,97.6,277.3,97.6z M272.8,99.3c0-0.4-1.4,0.2-0.8,0.4
	C272.2,99.7,272.8,99.6,272.8,99.3z M218.7,101.6c0.4,0.2,0.7,0.1,0.7-0.3C219.3,100.9,218.4,101.4,218.7,101.6z M229.7,86
	c0.1-0.4-1.6-0.2-1.2,0.2C228.7,86.3,229.6,86.4,229.7,86z M211.1,101.2c0.3,0.1,1.2,0,1.4-0.3C213,99.9,210,100.8,211.1,101.2
	C211.5,101.3,210.8,101.1,211.1,101.2z M231.8,88.6c0,0.8-1.3,0.5,0.1,1c0.9,0.3,1.7,0.8,2.8,1c1.6,0.4,1-0.7,1.6-1.6
	c0.7-1.1-1.7-0.5-1.4-0.4c-0.6-0.2-0.4-0.7-1.2-0.6C233.4,88,231.8,88.2,231.8,88.6z M230.4,87.9c0.1,0.1,0.2,0.2,0.3,0.3
	c-0.2,0.3-1,0-1.2,0.3c-0.1,0.1,1,0.6,0.9,0.6c1,0.2,0.9-0.7,1.6-0.9c1.3-0.4,1.9-0.3,2.5-1.2c-0.3,0.5-1.4-1.1-1.4-1.2
	c-0.1-0.1-2.3,0.7-2.4,0.9c0.1,0.2,0.2,0.3,0.3,0.4c-0.1,0.5-0.6,0.2-0.8,0.3C230,87.6,230.1,87.8,230.4,87.9
	C230.9,88.1,229.9,87.6,230.4,87.9z M235.8,92.3c0.9,0.5,3.9-0.4,4.9-0.8c0.8-0.3,0.5-0.6-0.2-0.9c-0.3-0.2-0.6-0.4-1-0.5
	c-0.3,0-0.9,0.6-1,0.6c-0.3-0.1,1-1,0-1.3c-0.1,0-1.1,0.4-1.1,0.5C237.4,90.4,235.3,92,235.8,92.3C236.2,92.5,235.4,92,235.8,92.3z
	 M196.3,87.6c0-0.4-1.4,0.1-1.1,0.1C195.5,87.9,196.3,88.1,196.3,87.6z M273.7,131.8c0.3,0.8,0.1,5.4-0.1,5.9
	c0.5-1.1,0.6-0.3,1.2,0.1c0.2,0.1-0.8-1.7-0.8-1.9c-0.1-0.3,0.2-1.6,0.5-1.7c0.6-0.3,0.8,0.4,1.2,0.4c-0.5,0-0.9-6.7-1.6-6.5
	C273.3,128.6,273.2,131.1,273.7,131.8C273.9,132.3,273.4,131.3,273.7,131.8z M314.1,113.2c0.3,0.1,0.2,1.3,0,1.3
	c-0.1-0.1-0.3-0.2-0.4-0.1c-0.1,0.2,0.6,0.3,0.4,0.5c-0.5,0.5-2.6-0.6-2.8-1c-0.7-0.9-3.2-0.6-2.5-1.9c0.2-0.3-1,0.2-0.9,0.2
	c-0.1,0-0.1,0.9-0.1,1.1c-0.1,0.7-1.3,1-1.8,1c-0.1,0-2.1-0.9-1.9-0.1c0.2,0.2,0.5,0.3,0.8,0.2c0.4-0.1,0.3,0.4,0.5,0.6
	c0.6,0.4,0.5,0.8,1.1,1.3c1.6,1.6-1.6,0.9-2,1.3c-0.9,0.7-2,0.6-2.9,1.2c-0.7,0.4-1.2,1.1-1.9,1.5c-1.2,0.6-0.6,0.7-1.7,0.2
	c-1.2-0.6-2,0.3-2.9,0.8c0,0,0-1.5-0.9-0.3c-0.3,0.5-1.3-0.2-1.5,0.2c-0.3,0.6-1.7,1.7-1.7,2.4c-0.1,0.9,1,0,1.2,0.5
	c0.1,0.2-0.7,0.8-0.6,1.2c0,0.2,1,0.5,0.5,0.8c-0.6,0.4-1,0-1.3,0.8c-0.2,0.5,1,1.5-0.4,1.4c-0.9-0.1-1.4,0.7-1.2,1.4
	c0.1,0.3-0.8,0.5-1.1,0.7c0,0-1.5,2.8-1.9,2.4c-0.8-0.8-0.9-4-1-5c-0.1-1.6,0.8-3.4,2-3.9c1.6-0.7,2.5-2.8,3.9-3.5
	c0.7-0.3,0.9-0.5,1.4-0.8c-0.2,0.1,1.3-2.5,1.3-1.7c0-0.6-1.7-0.1-1.7,1c0,0-2.7,1.6-2.8,1.5c0.1-0.1,0.1-0.2,0.3-0.3
	c-0.4,0.5-0.7-1.5-0.2-1.3c0.2,0.1-1.4,0.1-1.2,0c-0.6,0.3-1.5-0.2-1.9,0.4c-0.4,0.7-0.6,0.7-1.3,1.2c-0.4,0.2-0.6,0.5-0.9,0.9
	c-0.6,1,0.1,0.5,0.5,0.9c0.2,0.2-3.7,0.6-3.4,0.4c0.2,0,0.5-0.1,0.7-0.2c0.4-0.4-1.1-0.4-1.1-0.4c-1.1-0.4-1,0.2-1.8,0.3
	c-1.4,0.2-3.3-0.6-4.5-0.2c-1.5,0.2-2.6,1.8-3.7,2.7c-0.8,0.6-3.8,2.3-3.9,3.3c0.1-0.4,2.2,1,1.4,1.2c0,0,0.8-0.8,0.7-0.5
	c0,0.1-0.2,1-0.1,1c0.3,0.1,1.1-0.8,1.1-1c-0.2-0.4,2,1,2,1c1,0.5-0.3,2.6-0.5,3.4c-0.3,2.6-1.8,4.6-3.6,6.4
	c-0.8,0.8-1.3,1.6-2.3,2.2c-0.5,0.3-2.6-0.7-2.6,0.3c-1.1,0.8-1,1.9-2,2.6c-1.6,1.2-0.8,1.1,0.2,2.5c0.3,0.4,1,2.9,0.2,2.7
	c-0.3-0.1-2.7,1.7-2.6,0.7c0-0.4,0.2-2.3,0.3-2.2c0.5,0.2-0.6-1.9-1.1-0.9c-0.5,1-0.6-2.2-0.2-1.7c-1.3-1.3-3.1,1.3-3.7,0.7
	c-0.4-0.4,1.2-1.8,0.8-2.1c-0.8-0.8-2.2,1.5-2.8,1.7c-0.4,0.1-0.8-0.3-1,0.1c-0.5,0.8,0.2,0.9,0.8,0.9c1.1,0-0.1,1.6,1.8,0.2
	c0.2-0.1,2.1,0.5,1.7,1c-0.4,0.4-1.9,0.4-2.1,1c-0.1,0.4-0.5,0.5-0.7,0.9c-0.2,0.4,0.8,1,1,1.4c0.1,0.2,1.3,2.1,1.4,2
	c-0.3,0.3-1-0.5-1.4-0.2c0,0,1.3,0.8,1.3,0.9c0.5,0.5-1.1,0.6-0.9,0.9c0.2,0.3,1.1,0.1,1.4,0.3c0,0-1.6,2.6-1.9,2.8
	c-0.6,0.6-0.7,1.3-1.5,2.1c0,0.8-2.6,1.8-3.2,1.9c-1.5,0.3-3.6,0.8-4.2,2.3c-0.2,0.5-0.4-1.4-0.6-1.1c-0.4,0.3-1-0.1-1.6,0.2
	c-1.7,0.6-2.2,2.8-0.8,4.1c1.2,1.2,3.5,3.5,1.7,5.4c-0.5,0.6-2.1,0.6-2.2,1.3c-0.1,0.6-1.4,1.8-1.6,0.8c0-0.9,0.6-0.4-0.1-1.1
	c0-0.3-0.7,0-0.8-0.2c-0.2-0.2-0.6-0.6-0.7-1c-0.1-0.8-1.8-0.6-2-1.4c-0.3-1.1-1.2,1.6-1.2,1.6c-0.7,1.6,0.6,3.3,1.9,4.2
	c0.5,0.4,1,1,1.5,1.4c0,0,0.4,3.6,0.8,3.4c-0.9,0.5-2.7-1.9-3.1-2.5c-0.5-0.7-0.3-1.5-0.7-2.3c-0.3-0.5-1.6-1.3-1.7-1.7
	c-0.1-1.4,0.9-2.8,0.3-4.2c-0.4-0.9-0.8-3.2-1.6-3.8c-0.1-0.1-1.1,1.6-1.8,1.1c-0.7-0.5-0.2-1.7-0.5-2.6c-0.4-1-1.7-1.4-1.7-2.5
	c0-0.5-1-1.9-1-0.8c0,0.6-1.5,0.6-1.9,0.6c-1.4,0.2-0.7,0.7-1.5,1.4c-1.2,1.2-3.2,2-4.2,3.4c-0.7,0.9-1.2,0.6-1.3,1.8
	c-0.1,0.9-0.1,1.6-0.3,2.5c-0.3,1.2-1.8,4.5-3,2.2c-0.9-1.8-1.8-4.1-2.4-6.1c-0.4-1.1-0.6-2.3-0.9-3.5c-0.1-0.6,0.3-1.9-0.2-2.4
	c0.1,0.1-0.9,1.3-1.2,1.4c-0.5,0.1-1.9-1-1.9-1.5c0-0.2,1.2,0,1.2-0.4c0,0.5-1.7-0.8-1.8-0.9c-0.9,0-1-0.9-1.5-1.3
	c-1.1-1.1-3.6,0.4-4.6-0.4c0,0.2-3.9,0.1-4.1-0.9c-0.3-1.5-1.5-0.2-2.4-0.4c-0.7-0.1-2.6-1-2.9-1.6c-0.3-0.6-0.6-2-1.4-1.8
	c-0.3,0.1-1.4-0.1-1.4,0.5c0,1,0.8,2,1.4,2.6c0.7,0.7,0.2,1.5,1,2c0-0.3,0.6-1.5,0.8-0.6c0.1,0.5-0.5,1.3,0.3,1.7
	c0.1,0.1,1.8-0.2,2-0.3c0.8-0.2,1.4-1.9,2.1-1.9c-0.1,0,0.8,2.1,1.4,2.3c0.5,0.2,1.3,1.2,1.7,1.2c0.7,0.2-0.6,1.2-0.6,1.5
	c0-0.3-1.6,2-1.1,1.9c-0.4,0-0.6,0.1-0.8,0.5c-0.4,0.7-0.7,0.2-1.3,0.6c-0.7,0.7-0.9,0.6-2,1.1c-1.5,0.7-3,2.1-4.8,2.3
	c-0.5,0.1-4.1,2.2-4.2,1c-0.1-1.7-0.8-3.3-1.7-4.8c-0.5-0.9-1.7-2-2-3c-0.4-1.5-0.7-1.8-1.6-3.1c-0.8-1.1-2.4-3.1-2.4-4.5
	c0,0-0.3,1.3-0.5,1.3c-0.4,0-1.5-2.3-1.5-2.3c-0.6,0.6,1.7,4.1,2.1,4.8c0.4,0.7,0.4,1.7,0.8,2.3c0.3,0.4,1.1,0.6,1.1,1.2
	c0,0.7,0.1,1.5,0.3,2.1c0.2,0.8,1,1,1.4,1.8c0.2,0.5,0.6,2.4,1.4,2.4c1.1,0,1.6,1.6,2.4,2.1c0.9,0.9-1,0.6,0.2,1.2
	c-0.8,0.8,2.2,0.5,2.8,0.5c0.6,0,1.1-0.4,1.8-0.4c0.5,0,2.1-0.8,2.4-0.7c1.2,0.4-1.6,5.2-1.9,5.7c-1.2,2-3,2.9-4.5,4.5
	c-0.9,0.9-2.5,2-3.2,3c-0.5,1-1.3,2.2-1.3,3.3c0-0.1,0.6,1.8,0.3,1.5c0.8,0.8,1.1,3.5,1.1,4.5c-0.2,0.9,0.5,1.5-0.1,2.3
	c-0.7,0.9-1.2,1.2-2.2,1.6c-1.1,0.5-3.3,2.3-2.6,3.5c0.4,0.7,0.5,2.3,0.3,3c-0.2,0.6-2.8,1.1-2.5,1.7c0.6,1.9-0.8,3.1-2.1,4.8
	c-1.8,2.3-3.3,3.2-6,3.2c-0.6,0-4.3,1.6-4.3,0c0-0.2-0.7-1.3-0.1-1.3c0.4-0.1-0.1-1.1-0.2-1.3c-0.7-1.2-2.2-3.1-2.4-4.5
	c-0.5-2.6-0.7-4.8-2-7.1c-0.6-1.1-1.2-2.2-0.5-3.4c0.5-0.9,1.6-3.4,1.2-4.4c-0.5-1.2-0.2-2.1-0.7-3.3c-0.5-1.2-0.6-1.9-1.5-2.9
	c-0.7-0.6-1.2-1.5-1.7-2.2c-0.6-0.8,0.8-1.3,0.6-1.5c-0.4-0.8-0.2-1.4,0.1-2.3c0.6-1.7-1.4-1.9-2.6-1.9c-0.6,0-1.4,0.5-1.4-0.6
	c0-1.3-1.9-0.6-2.1-1.3c-1.3,0-3.1,1.1-4.4,1.6c-0.5,0.2-1.2-0.3-1.7-0.3c-1.3-0.1-2.3,0.6-3.6,0.6c-1.1,0-4.1-2.1-4.7-3.2
	c-0.6-1.1-1.9-2.2-2.2-3.3c-0.1-0.5-1.1-0.5-1.1-1.3c0-0.6-0.6-1.5-0.3-2c0.7-1.5,1.1-3.6,0.1-4.9c-1-1.3,2.4-4.7,3-5.8
	c0.5-1.5,2.8-1.6,3.5-3.2c0.2-0.5,0.1-1.5,0.3-2.2c0.4-1,1.2-1,1.9-1.5c0.7-0.4,0.8-1.3,1.2-1.9c0.4-0.7,1.4,0.4,2.1,0.4
	c1.4-0.1,1.2,0.2,2.5-0.4c0.7-0.4,1.7-0.9,2.5-0.9c1.6-0.1,3.1-0.2,4.6-0.6c0.8-0.2,3.1-0.2,3.5,0.4c0.2,0.3-1,0.6-0.3,1.1
	c1.2,0.9-0.9,1.3-0.7,1.8c0.1,0.3,2.1,1.3,2.5,1.2c0.6-0.1,1,0.2,1.6,0.3c0.9,0.2,0.4,1.1,1.5,1.1c0.9,0,1.5,0.9,2.4,0.9
	c1.3,0,0.2-1.3,0.7-1.8c1.3-1.4,2.5-0.1,3.9,0.1c0.8,0.1,3.9,1.7,4.5,0.9c0.5-0.7,2.8-0.2,3.5-0.1c1.3,0.4,0.6-2.6,1.9-1.9
	c-0.1,0-0.4-0.2-0.5-0.2c0.1-0.3,1.4-3.4,1-3.6c-1-0.5-2.5,1.2-3.4,0.5c-1-0.8-1-0.3-1.9,0.1c-0.7,0.3-1.2-0.4-1.8-0.6
	c-0.9-0.2-1.4-1.2-1.4-1.9c0-0.3,0.4-1.3-0.3-1.3c-0.3-0.3-0.2-0.5,0.2-0.7c0.6-0.3,1.3,0,1.9-0.2c0.5-0.2,0.2-0.8,0.8-0.7
	c1.3,0.1,1.6-0.3,2.7-0.7c2.2-0.8,2.9,1,4.8,1c8.2,0-1.6-4.2-1.2-4.8c0.2-0.2,1.3-0.5,1.3-1c-0.1-0.2-0.3-0.3-0.4-0.5
	c0.1-0.1,1.2-0.5,1.1-0.7c-0.5-0.5-2.7,0.6-3.2,0.8c-1.7,0.9,0.8,1.6,1,1.4c0,0-2.8,0.8-2.8,0.8c0.1,0.1-1-1.6-1-1.1
	c0-0.3,1.2-0.3,1.2-0.7c0,0-2.1-0.8-2.1-0.8c-0.7,0.2-0.7,0.7-1.2,1.1c-0.4,0.3-0.2,1-0.5,1.2c-0.9,0.6-0.8,1.8-1.8,2.3
	c-0.4,0.2,1,2.1,1.2,1.9c0,0-1.9,0.6-2,0.6c-0.4-0.2-0.7-0.4-1.1-0.6c-0.2,0.1-0.5,0.2-0.7,0.3c-0.4-0.4-0.7-0.2-0.6,0.3
	c0.1,0.6-1.1-0.1-1.3,0.1c-0.4,0.4,1.2,1.1,0.5,1.5c-0.4,0.2-0.1,0.4,0.3,0.3c1.9-0.9-0.6,1.8-0.4,0.9c0,0.2,0.9,0.1,0.5,0.5
	c-0.2,0.1-0.4,0.1-0.6,0c-0.1,0.1,0.5,0.8,0.2,0.9c-0.6,0.3-1.2-1-1.4-1.3c-0.7-0.9,0.9-0.4,0.9-0.6c0-0.3-0.6-0.5-0.8-0.3
	c-0.6,0.6-0.6-0.5-0.7-0.7c-0.4-0.6-2.1-1.5-1.1-2.4c0.4-0.4-4.2-2.6-4.2-3.6c0-0.2-1.4-1-1.7-0.9c-0.9,0.3-0.3,1.6,0.2,1.9
	c0.6,0.4,0.5,0.9,0.9,1.5c0.4,0.6,1.2,0.4,1.5,1c0.1,0.2,2.6,1.3,2,1.7c0.2-0.1-2.6-0.8-1.3,0.3c0.3,0.3-0.4,1.6-0.8,1.6
	c-0.3,0,0.1-1.4-0.2-1.7c-0.5-0.5-1.2-1-1.7-1.5c-0.4-0.4-1.6-1-2.1-1.4c-0.7-0.5-0.6-1.1-1.1-1.6c-1.2-1.9-2.6,1.5-3.8,0.9
	c-2.6-1.8-1.6,1.9-3.6,1.9c-0.7,0.1-1.2,0.7-1.5,1.3c-0.2,0.3-0.2,0.6-0.1,1c0.2,0.6-0.4,0.5-0.6,1c0,1.5-2.5,1.2-3.3,1.7
	c-1.2,0.7-1.7-1-2.6-0.6c-2.1,0.7-1.7-2.1-1.4-3.4c0.1-0.5-0.1-1.2,0.1-1.6c0.1-0.3,0-0.6-0.2-0.9c-0.8-0.6,0.4-0.7,0.6-1
	c0.3-0.4,3.6,0.2,4.3,0.1c0.4-0.1,1.3,0.4,1.6,0.2c0.6-0.3,0.3-1.7,0.5-2.2c0.4-1.3-1-2.2-2-2.6c-2.6-1.1-0.1-2,0.5-1.3
	c0.4,0.5,1.6,0.1,0.9-0.8c-0.7-0.9,1.3,0.1,1.2,0.1c1.2,0.2,1.8-2.1,2.6-2.1c0.9-0.5,1.1-0.9,1.7-1.6c0.6-0.7,0.4-0.1,1-0.4
	c-0.3,0.1,1.5-1.3,1.5-0.8c0-0.6,1.3-0.1,1.8-0.4c0.3-0.2-0.7-1.7-0.5-1.8c0.2-0.5-1-1.2-0.4-1.8c0.1-0.3,0.2-0.5,0.5-0.6
	c0.2,0.1,0.3,0.2,0.5,0.3c0-0.1,0-0.3-0.1-0.4c0.2-0.2,1.3-1.2,1.3-0.3c0-0.1-0.2,1.9,0.2,1.4c0.1-0.2-1.6,1.5-0.5,1
	c0.3-0.1,0.6,0.7,0,0.7c-0.2,0-0.6-0.6-0.8-0.2c0,0.9,1.1,0.8,1.5,0.9c0,0-0.2,1.2,0.5,0.7c0.1,0,1.7-1.1,1.8-0.8
	c0.2,0.3-0.2,0.7,0.5,0.9c0.1,0.1,1.9-0.8,2.1-0.9c0.4-0.2,0.9-0.3,1.4-0.4c0.4,0,0,0.6,0.6,0.6c0.4,0,0.4-0.5,0.6-0.5
	c0-0.5,0.8,0.1,1,0.1c0.7-0.3-0.3-2.7,0.3-3c0.9-0.9,0.8-1.4,1.8-0.4c0.9,1,1.4-1.2,1.2-1.4c-0.2-0.1-0.4-0.1-0.6-0.1
	c-0.3-0.2-0.1-0.6-0.4-0.9c-0.4-0.3,1.6-0.7,1.6-0.7c0.9-0.1,1.7,0.2,2.5,0c0.6-0.6,0.9-0.5,1.7-0.6c0.3,0-0.8-0.4-0.8-0.4
	c-0.6-0.6-1.2-0.4-0.6-1c-0.7,0.7-1.8,0.7-2.8,1c-0.7,0.2-1.5-0.2-2.1,0c-1.4,0.5-1.4-2.2-1.3-2.8c0-0.2-0.4-1.4,0.3-1.4
	c0.4,0,1.2-0.7,1.3-1c0.5-0.9,3.5-2.3,0.6-2.8c-0.8-0.1-2.8,1-2.1,1.9c0.5,0.7-3.2,2.1-3.3,3.2c0,0.3-0.1,2.2-0.2,2.3
	c0.1-0.2,1.4,0.7,1.4,1.1c0,0.8-1.4,1.3-1.7,1.7c-0.2,0.3-0.5,1.9-0.5,2.2c0.2-0.1,0.4-0.2,0.5-0.4c0,0-0.4,1.2-0.5,1
	c-0.1-0.1-0.1-0.2-0.2-0.3c0.3,0-1.6,0.8-1.6,1c0,1.8-1.4-0.5-1.2-0.5c-0.3-0.1-1.7-4.7-2.1-4.5c-0.3,0.2,0.1,0.8-0.5,0.6
	c-0.3-0.1-0.7,0.5-0.9,0.7c-0.4,0.3-1.1,0.8-1.7,0.5c-0.1-0.1-1.5-0.7-1.2-0.9c1.2-1.2-0.4-0.5-0.4-0.7c0-0.2,0.1-0.8,0.3-0.9
	c0.1,0.1,0.2,0.2,0.3,0.3c0.1,0,1-0.7,0.7-0.8c-0.6-0.5-1.4,0.9-1.4-0.8c0-0.2,0.3-0.5,0.3-0.7c0-0.6-0.7-0.7,0.3-0.8
	c-0.4,0.1,1.7-1.5,1.7-0.9c-0.2-0.1-0.4-0.2-0.5-0.4c0.8-0.8,1.1,0.1,1.3-1c0.1-0.5,0.7,0.3,0.7,0.3c0.8-0.8,0.9-1.2,2.1-1.5
	c0.4-0.1-0.6-0.7-0.5-0.8c0.7-0.7,1.4,0.1,1.3-1.3c0-0.1,1.2-1.4,1.5-1.7c0.4-0.5,1-1.3,1.3-1.9c-0.2,0.3,1.5,0.2,0.8-0.5
	c-0.4-0.4-3,1.2-3.1,1c0.1,0.1,2.7-2.1,2.7-2.1c0.1,0.2-0.4,0.6-0.2,0.7c0,0,1.5-0.1,1.6-0.1c0.2-0.7-0.7-0.2-0.8-0.4
	c-0.4-0.8,1.3-0.6,1.3-0.6c0.3,0,1.3-2.4,1.4-0.7c-0.1-0.8,0.9,0.5,0.7,0.4c0.4,0.2,0-1-0.1-0.9c0.1-0.1,1.1,0.2,1.3,0.3
	c0-0.1-0.7-0.4-0.5-0.5c0.2-0.1,1,0.2,1.1,0c-0.1-0.2-0.2-0.4-0.4-0.6c0-0.2,1.2-0.4,1.2-0.5c0-0.4-1.2,1.9-0.4,1.5
	c0.5-0.2-0.1-0.5,0.1-0.6c0.5-0.4,0.7-0.2,1-0.4c0,0,1.4-1.5,1.6-0.7c0,0.1-1.4,1.5-0.9,1.5c0.5-0.3,0.8-0.9,1.3-1.2
	c0.3-0.2-0.1,0.9,0.1,0.9c0.8,0,0.2-1.2,1.1-1.2c0.7,0.1,0.2,1.2,0.4,1.2c0.5,0,0.2-1.1,1-0.6c0.3,0.2,1.5-0.1,1.5,0.7
	c-0.2,0.4-1.3,0.4-1.7,0.3c0,1.2,3.5,0.3,3.5,0.8c-0.2,0.1-0.4,0.2-0.7,0.2c-0.1,0.1,2.5,0.5,2.8,0.5c0.4,0.1,4.5,1.8,4.5,2.4
	c0.2,0.3,1.2,0.9,0.6,1.5c-0.6,0.6-1.7,1.3-2.6,1.1c-1.1-0.2-2.1-0.3-3.1-0.7c-0.6-0.2-1.8-1-2.4-1c0.3,0,2.4,1.8,2.5,2.2
	c0,0.3,0,1.1,0,1.5c0,0.3,1.3,1.1,1.6,1.1c2.8,0.2-0.5-1-0.2-1.3c0.7-1.3,2.6,1.3,3.5,0.4c0-0.9-1.2-1-0.1-1.9
	c0.6-0.5,1.6-0.9,2.4-0.9c0.4,0,0.6,0.5,1,0.6c0.1,0,0.4-0.8,0.4-0.8c0-0.9-0.2-0.5-0.7-0.8c-0.1-0.1,0.5-1,0.5-1.3
	c-0.1-0.2-0.6-0.8-0.6-0.9c-0.1-0.6,3.7,0.3,2.8,1.2c0.1-0.2-2.4,0.4-1.4,0.9c0.7,0.2,0.6,0.7,1.5,0.7c1.1,0,0.2-0.9,0.9-1.1
	c0.7-0.2,5.7-1.7,5.7-2.1c0-0.1-0.2,1-0.1,0.8c-0.2,0.1-0.4,0.1-0.6,0.1c-0.2,0.1,1.3,0.2,1.3,0.2c-0.2-0.1,1.6-0.6,1.7-0.6
	c0.8,0.1,2.7-1.4,2.3,0c-0.2,0.8,1.1-0.3,1-0.3c1.3-0.1,0.2-0.5,0.2-1.2c0-0.3-1-0.6-1.3-0.7c-0.5-0.1-0.5-1,0.2-0.6
	c0.2,0.1,1.1,0.8,1.3,0.8c2,0,3.6,0.8,5.4,1.5c0.5,0.2,1.3,1.4,1.7,0.9c0.4-0.5,0.1-1.5-0.6-1.7c-0.4-0.1-0.7-0.3-1.1-0.4
	c-0.2-0.4,0.5-0.5,0.3-0.8c0-0.2,0.1-0.3,0.3-0.5c0.1-0.8-0.4-0.1-0.6-0.5c-0.5-0.5,1.5-1.3,1.6-1.7c0.5-1.6,0.7-1.7,2.3-1.7
	c0.7,0,1.7-0.1,1.6,0.8c-0.1,1.4-1.1,1-0.2,2.2c0.1,0.2,0.2,2.1,0,2.3c-0.5,1.1,0.8,1.3,0.8,1.9c0,0.6-1.2,2-1.8,2.4
	c0,0-2.4,0.7-2.3,0.3c-0.3,0.6,2.2,0.6,2.4,0.7c0.5,0.2,2.1-1.7,2.6-2.2c0.5-0.6-0.9-1.4,0.3-1.8c0.5-0.1,1.2-0.5,1.6,0.2
	c0.1,0.1,0.4,1.4,0.3,1.3c0.1,0.1,1.4,1.3,1.4,0.7c-0.2-0.2-1.5-0.5-0.9-1c0.3-0.3,0.4-0.8,0-1.1c-0.6-0.4-3.5-0.4-3.4-0.8
	c0.1-0.3,0.5-1.9,0.4-2.1c-0.1-0.2-1.1-1.2-1-1.4c1-0.9,1.3-0.9,1.6-2.2c0.1-0.4,0.9,0.4,0.6,1c-0.3,0.5,0,0.7-0.2,1.2
	c-0.1,0.2,2.7,1,2.9,0.8c0.2-0.3-1.7-0.9-1.6-0.9c-1.8-1.1,1.1-0.6,1.2-0.8c0,0-1-0.8-1.1-0.7c0.5-1,3.3,0.4,4,0.8
	c1.1,0.6,1.3-0.5,0.4-0.8c-1.2-0.3-0.7-0.8-1.2-1.3c-1.1-1.1,4.2-1.1,4.3-1.4c0.6-0.6,0.6,0.5,1.2-0.2c0.3-0.4-0.8-0.8-0.8-0.8
	c0.1-0.2,0.7,0.1,0.7-0.1c0-0.2-1-0.5-0.9-0.6c0.3,0,0.5,0.1,0.8,0.1c0.1-0.2,0-0.3-0.2-0.3c-0.1,0,0.6-0.3,0.5-0.3
	c-0.1,0-0.1-0.1-0.2-0.2c0.3-0.3,1.7,0,2.2-0.7c0.1-0.2,3.1-0.7,3.1-0.7c0-0.1-0.7-0.2-0.5-0.4c0.1-0.1,2.9-0.6,2.9-0.5
	c0.2,0.2-0.4,0.4-0.3,0.5c0.2,0.1,2.8-0.5,2.7-0.3c0.1-0.2-0.6-0.3-0.6-0.5c0-0.4,1.5-0.1,1.8-0.2c0.4-0.2-0.3-0.7,0.2-1.1
	c0.4-0.4,4.4-2.3,4.4-0.6c0,0.3-1.1,0.4-1.3,0.5c0.1,0,2.6,0.5,2.6,0.3c0,0.1-0.6,0.8-0.7,0.8c0.7,0.4,1.3-0.4,2.1-0.3
	c0.7,0.1,1.4-0.1,2.2,0.1c0.8,0.2,2.4,0.9,2.5,1.6c0,0.3-0.6,0.1-0.6,0.4c0.5,1.1-1.7,1.6-2.8,2.1c-0.7,0.3-4.1,1.9-4,2.7
	c0-0.6,4.2-0.9,4.2-1.4c-0.2,0-0.3-0.1-0.5-0.2c-0.4-0.4,0.9-0.6,1-0.6c0.5,0.1,0.9,0.6,1.3,0.6c0.4,0,0.5-0.4,0.7-0.3
	c0.7,0.1,0,1.1,0.5,1.1c-0.1,0,0.6-0.6,1-0.6c0.8-0.1,3.3,0.5,3.6,0.3c-1.1,0.5,2.4,1.1,2.9,0.9c0.5-0.1,1.6,0,1.1-0.9
	c-0.2-0.4,0.9-1,1.1-0.7c1,1.3,3.2-0.2,3.9,1.2c0.1,0.2-0.1,1.1,0.2,1.1c0.8,0-0.4,1-0.9,0.5c0.8,0.4,1.1,2.1,2.1,2.1
	c0.5,0,0.5,0.5,0.9-0.2c0.1-0.2,1-1.4,1.1-1.4c1.2,0.4,1,0.9,2.5,0.4c0.2,0,2.5,0.6,2.4,0.4c-0.2-0.1-0.3-0.2-0.5-0.3
	c0.3-0.1,1.9,0.1,1.9,0c0,0-0.5-1.2-0.1-1.1c-0.2,0.1-0.5,0.1-0.7,0c0,0,2-1.3,1.8-1.3c0.4,0,4.7,0.5,4.7,0.9c0,0.1-1.6,0-1.4,0.2
	c0.1,0.2,1,0.1,1,0.3c-0.2,0.2-0.5,0.3-0.7,0.4c-0.2,0.4,1.2,0.3,1.4-0.5c0.1-0.5,0.8-0.3,1.3-0.3c0.4,0,1.5,0.1,1.7,0.5
	c0.4,0.5-0.8,0.3-0.9,0.5c0,0,2.8,1.1,2.9,1.5c0,0.2,5-0.4,5.6-0.1c0.6,0.3,2.1,1,1.2,1.9c0.6-0.6,1.5,1.4,1.4,1.4
	c0.7-0.7,0-0.9,1.3-1c0.9-0.1,1.5,0,2.4,0.2c0.4,0.1,0.7,0.1,1.1,0.1c0.7,0,0.9-0.9,1.5-0.9c0.2,0,1.2,0.1,1.1,0.5
	c-0.3,0.8-0.7,0.1-1.1,0.2c0.2,0,1.4,2.2,2.4,1.2c0.5-0.5-1.1-1.1-0.2-2c0.1-0.1,5.1,0.6,5.3,0.7c0.8,0.6,2.1,0.5,2.9,1.2
	c0.9,0.9,2.6,1.3,3.7,1.9c0.8,0.4,0.8,1.7,1.2,1.9c1.2,0.6,0.3-0.2,0.3-0.7c0-0.5,4.6,0.9,4.3,1.6c-0.3,0.5-1.4,0.3-1.5,0.4
	c0,0.2,0.1,0.3,0.3,0.3c0.3,0.3-1.2-0.2-1-0.1C314,112.7,314,112.9,314.1,113.2C314.3,113.3,314,113.1,314.1,113.2z M167.3,107.6
	c0,0-0.1-0.1-0.1-0.1C167.2,107.6,167.3,107.6,167.3,107.6z M174.6,107.2L174.6,107.2L174.6,107.2L174.6,107.2z M154.2,133.6
	L154.2,133.6L154.2,133.6L154.2,133.6z M154.5,131.6c0,0.2,0,0.3,0,0.4C154.5,131.9,154.5,131.7,154.5,131.6z M154.5,132.8
	L154.5,132.8L154.5,132.8L154.5,132.8z M155.4,138.1c-0.1-0.1-0.2-0.2-0.1-0.4C155.2,137.9,155.3,138,155.4,138.1z M155.8,135.7
	C155.8,135.7,155.8,135.8,155.8,135.7L155.8,135.7L155.8,135.7z M163.4,136.9l-0.1,0.1C163.3,137,163.4,136.9,163.4,136.9z
	 M167,141.6c0,0-0.1-0.1-0.2-0.1C166.9,141.6,167,141.6,167,141.6z M167.4,143L167.4,143L167.4,143L167.4,143z M168.6,139.5
	L168.6,139.5L168.6,139.5L168.6,139.5z M168.7,133.8c0-0.1-0.1-0.3-0.1-0.3C168.7,133.5,168.7,133.6,168.7,133.8z M168.9,135.1
	L168.9,135.1L168.9,135.1L168.9,135.1z M169.5,128.2L169.5,128.2L169.5,128.2L169.5,128.2z M136.9,170.2
	C136.9,170.2,136.9,170.3,136.9,170.2C136.9,170.3,136.9,170.2,136.9,170.2z M138.1,168.4L138.1,168.4L138.1,168.4L138.1,168.4z
	 M138.9,170.6c0,0.1,0,0.1,0,0.1V170.6z M141.6,174.9L141.6,174.9C141.6,174.9,141.6,175,141.6,174.9L141.6,174.9z M144.2,172.3
	L144.2,172.3L144.2,172.3L144.2,172.3z M146.6,172.9L146.6,172.9L146.6,172.9L146.6,172.9z M148.9,171.8c0,0.1-0.1,0.1-0.1,0.1
	C148.8,171.9,148.8,171.8,148.9,171.8z M148.9,168.2c-0.1,0-0.2-0.1-0.2-0.1C148.8,168.2,148.8,168.2,148.9,168.2z M152.1,164.6
	L152.1,164.6L152.1,164.6z M159.4,179.5c-0.1,0-0.3,0.1-0.4,0.1C159.1,179.5,159.2,179.5,159.4,179.5z M159.7,160.3L159.7,160.3
	L159.7,160.3L159.7,160.3z M161,179.5c-0.3,0-0.5,0-0.8,0C160.5,179.5,160.7,179.5,161,179.5z M163,160.3c-0.5,0.3-1,0.5-1.5,0.8
	C162,160.8,162.5,160.5,163,160.3z M163.2,179.1C163.2,179.1,163.2,179.2,163.2,179.1L163.2,179.1
	C163.2,179.2,163.2,179.1,163.2,179.1z M172.6,176.9c-0.1-0.2-0.1-0.3-0.2-0.5L172.6,176.9z M174,201.4c0-0.3-0.2-0.4-0.6-0.4
	C173.8,200.9,174,201.1,174,201.4z M175.4,188.3c-0.4-1.3-0.9-2.7-1.4-3.9c-1,0.5,0.8,5,1.6,4.6
	C175.7,188.7,175.6,188.5,175.4,188.3z M175.7,182.4c0,0-0.2,0.1-0.4,0.1C175.6,182.4,175.7,182.4,175.7,182.4z M179.9,177.4
	c0.1,0,0.2,0.1,0.2,0.1C180.1,177.4,180,177.4,179.9,177.4z M176.6,206L176.6,206L176.6,206z M179,192.1c0-0.3,0.2-2.1-0.5-2.1
	c-0.4,0,0.3,5,1,4.3C179.4,193.7,178.7,192.7,179,192.1C179,192,178.8,192.6,179,192.1z M176.5,182.3c-0.6,1.4,0.2,1.5,1.4,1.5
	c-0.7,0,0.9-2.2,0.9-2.1C178.8,180.8,176.7,181.4,176.5,182.3C176.2,183,176.6,181.9,176.5,182.3z M179.8,152.7c0,0.1,0,0.2-0.1,0.3
	C179.7,152.9,179.8,152.8,179.8,152.7z M179.8,152.1c0,0.2,0,0.3,0,0.5C179.8,152.4,179.8,152.3,179.8,152.1z M179.9,151.3
	c0,0.1,0,0.3,0,0.4C179.9,151.5,179.9,151.4,179.9,151.3z M183.4,152c-0.1,0-0.2,0-0.3,0C183.3,152,183.3,152,183.4,152z M186,146.9
	c-0.1,0-0.3-0.1-0.4-0.1L186,146.9z M194.2,164.5c0.1-0.1,0.3-0.1,0.4-0.2C194.5,164.4,194.3,164.5,194.2,164.5z M190.6,144.5
	c-0.2,0.1-0.3,0.2-0.5,0.3C190.3,144.8,190.4,144.6,190.6,144.5z M196.6,142.7c-0.3,0-1.2-1.7-1.2,0c0,0-0.6-0.7-0.3-1.1
	c0.4-0.6-0.6-0.4-0.8-0.7c-0.1-0.2-1.4-1.5-1.4-1.6c0.1-0.5,0.8,0,0.9-0.1c0.3-0.5-0.6-0.7,0.4-0.9c0.8-0.2,1.3,0.3,1.4-0.6
	c0.3-2.4-2.8-0.5-3.6-0.5l0,0l0,0c-0.8,0.3-1.4,0.8-2,1.4c-0.6,0.6,0.3,1.3,0.3,2.1c0,0.7,1.1,1.6,1.5,2.1c0.9,1.2-0.4,1.7-0.4,2.8
	c0,1.5,3.2,2.2,4.2,1.9c0.8-0.2,0.7-2.7-0.4-2.7c0-0.2,0.1-0.4,0.3-0.5c0,0.1-1.4-1-0.4-1.1c0.2,0,1.7,0.4,1.8-0.1
	C197,142.8,196.8,142.7,196.6,142.7z M201.9,138c-0.2,0,0.1-0.5-0.2-0.5c-0.2,0-0.6,0.1-0.9,0.2c-0.6,0.1-0.7,1.8-0.3,1.8
	c0.4-0.1-0.1-1.3,0.4-1.3c0.9,0-0.6,2,0.6,1.8C202.3,139.8,202.9,138,201.9,138z M201.9,137c0.1,0.2,1.1,0.5,1.2,0.3
	C203.3,137,201.8,136.8,201.9,137z M207.7,146.8c-0.2,0.1-0.4-0.1-0.6-0.1C207.3,146.7,207.5,146.8,207.7,146.8z M211.1,142.3
	L211.1,142.3L211.1,142.3L211.1,142.3z M211.8,143.9c-0.1,0-0.2,0-0.3,0.1C211.6,143.9,211.7,143.9,211.8,143.9z M212,143.8
	c-0.1,0-0.1,0.1-0.2,0.1C211.9,143.8,212,143.8,212,143.8z M212.7,147.5C212.7,147.5,212.7,147.6,212.7,147.5L212.7,147.5
	L212.7,147.5z M214,146.8c-0.2,0-0.4,0.2-0.6,0.4C213.6,147,213.8,146.8,214,146.8z M214.1,144.7C213.7,144.7,214,144.7,214.1,144.7
	L214.1,144.7z M215.2,147.2c-0.1,0-0.1,0-0.2,0l0,0l0,0C215.1,147.2,215.1,147.2,215.2,147.2z M217.2,148.8L217.2,148.8L217.2,148.8
	z M217.8,148.9L217.8,148.9L217.8,148.9L217.8,148.9z M218.8,136.8c-0.5-0.2-2.9,0-3.5,0.1c-1.2,0.2-1.3,1.9-0.9,1.8
	c0.5-0.2,0.5-1.4,1.7-1.5C216.2,137.1,219,136.9,218.8,136.8z M220.2,154.1L220.2,154.1L220.2,154.1L220.2,154.1z M225.6,133.9
	L225.6,133.9C225.6,133.8,225.6,133.8,225.6,133.9L225.6,133.9z M226.3,156.3L226.3,156.3L226.3,156.3L226.3,156.3z M229.5,156.4
	L229.5,156.4L229.5,156.4L229.5,156.4z M233.7,155.8L233.7,155.8C233.7,155.8,233.6,155.8,233.7,155.8L233.7,155.8z M242.7,168.7
	L242.7,168.7L242.7,168.7L242.7,168.7z M241.1,169.1c-0.1,0-0.2-0.1-0.3-0.1C240.9,169,241,169.1,241.1,169.1z M244.7,126.2
	c0.5,0.2-4.9,5.7-5.2,5.1c0.8,0.8,2.5-1.1,3.1-1.4C243.2,129.7,245.9,126.6,244.7,126.2z M250.9,133.3c-0.1,0-0.2-0.1-0.3-0.1
	C250.8,133.2,250.9,133.2,250.9,133.3z M247,98.8c0,0.1-0.7,0.2-0.5,0.4c0.3,0.4,1.1,0.2,1.4,0C248.6,98.7,247.2,98.3,247,98.8z
	 M295.5,202c0.3-0.2-2.6-2.1-2.6-1.8C293,200.6,295.2,202.2,295.5,202z M79.7,158.8c-0.5-0.8,0,1.7,0.4,1.3
	C80.1,160.1,79.7,158.9,79.7,158.8C79.5,158.5,79.9,159.2,79.7,158.8z M94.1,172.7c0.3,0.3,1.3-0.4,0.6-0.6
	C94.2,171.6,93.9,172.4,94.1,172.7C94.2,172.8,94,172.5,94.1,172.7z M261,180.5c0-2-1.7,1.9-0.1,1.5c-0.3,0.1,0.9-0.9,0.7-0.7
	C262.1,180.6,261,180.5,261,180.5z M257,191c0,0,3.3-1.9,3.3-1.9c0.1-0.2-2.4,0.6-2.6,0.7C257.4,189.9,256.3,190.6,257,191
	C257.3,191.2,256.6,190.8,257,191z M256.7,189.4c0.2,0,0.5,0,0.6-0.2c-0.1-0.3-4,0.2-3.9,0.3C253.9,190.4,256,189.4,256.7,189.4z
	 M253.3,182.3c-0.4,0.2-1.1,2.4-0.5,2.5c1.3,0.4,0.4,0.9,0.7,1.9c0.3,0.2,0.5,0.1,0.7-0.4c0.2-0.3-0.1-1.2-0.1-1.5
	c0.1-1.6,0.7,0.3,1,0.5c0.1,0.1,1.2,1.3,1.3,0.2c0.1-0.7-0.9-1.5-0.9-2c0-0.2,1.9-0.6,1.5-1.1c-0.1-0.4-1.7,0.1-1.8,0.5
	c-0.1,0.5-1.7-0.5-0.9-1.2c0.5-0.5,1.7-0.6,2.4-0.5c1.3,0.2,1.2-0.8,1.8-1c-1.3,0.4-1.6,0.9-3.1,0.4
	C253.8,180.1,253.8,182.1,253.3,182.3C253.1,182.4,253.6,182.2,253.3,182.3z M259.1,184.7c0.1,0.4,0.9,0.7,1.1,0.3
	C260.3,184.6,258.9,184.2,259.1,184.7z M260.9,184.7c0,0.1,2.1,0.6,2.3,0.6C264.1,185.3,260.5,183.2,260.9,184.7
	C261,185,260.8,184.3,260.9,184.7z M243.3,184.3c0-0.2-0.7-0.1-0.5,0.2C243.1,184.9,243.3,184.6,243.3,184.3z M248.7,189.3
	c0,0.1,1.5,0.1,1.2-0.2c-0.3-0.2-2.4-0.9-2.5-0.8c0,0,1.2-0.5,1-0.6c-0.6-0.3-1.6,0.3-2.4,0c-0.6-0.2-0.9,0.1-1.7-0.1
	c-0.8-0.3-1.6-0.9-2.5-0.7c-0.2,0-1.3,1-0.5,0.9c0.7-0.1,1.8,0.5,2.8,0.5C244.8,188.3,248.1,190.1,248.7,189.3z M241.3,185.6
	c0-0.3-0.1-1.3,0.5-1.1c0.6,0.3-1-2.3-1-1.1c0,0.3,0.6,0.1,0.6,0.6c-0.2,0.4-1.9-1.5-2-1.5c-0.2,0-0.6-1.7-1.3-2
	c-0.8-0.4-5.9-4.8-6.5-4c-0.2,0.5,1.9,2.9,2.4,3c0.2,0,1.7,2.5,1.9,2.9C236.4,183.2,241.3,189.2,241.3,185.6z M243.8,181.2
	c0.1,0.1,1.3,1.9,1.3,2.1c0,1.5,1.2,0.7,1.5,1.6c0,0,1.8,0,2.1,0.2c0.5,0.2,1.4,0.6,1.7-0.2c0.5-1.3,0.5-3.4,2-3.8
	c0.2-0.1-0.7-2-0.8-2.5c-0.1-0.3,0.4-1.3,0.7-1.2c0.5,0.5,1.2-1.4,0.2-0.9c-0.9,0.5-1.2-1.7-2.1-0.6c-0.3,0.5-0.5,1.1-0.9,1.5
	c-0.4,0.2-1,0-1.3,0.3c-0.8,0.9-0.4,1.4-1.8,1.4c-1.1,0.2,0,1.6-1.4,0.9C244.3,179.7,243.2,180.6,243.8,181.2z M251.5,189.1
	c0-0.1-2.6,0.7-0.5,0.9c0.3,0,1.8-0.2,1.9-0.5C252.9,189.1,251.6,188.7,251.5,189.1C251.4,189.3,251.6,188.8,251.5,189.1z
	 M233.5,180.5c-0.1,0.3,0.2,1,0.6,0.7C234.4,180.9,233.6,180.2,233.5,180.5z M234.8,182.7c-0.1,0.1,0.2,0.7,0.4,0.5
	C235.4,183,235,182.3,234.8,182.7z M253.6,190.7c0.1,0.1,0.8,0.6,0.8,0.1c0-0.6-1.5-0.4-1.6-0.5C253,190.5,253.3,190.7,253.6,190.7
	C253.8,190.9,253.4,190.6,253.6,190.7z M162,145.9c-0.6,0.1-3.2,0.2-1,0.9c0.3,0.1,0.7,0.6,1,0.6c0.6,0-0.1-1.4,0.6-1.4
	C162.5,145.8,162.3,145.7,162,145.9z M156.3,143.1c-0.2,0.3,0.5,3.2,1.3,1.6C158.7,143.6,156.8,142.1,156.3,143.1
	C156.1,143.4,156.4,142.9,156.3,143.1z"/>
</svg>
