<?xml version="1.0" encoding="utf-8"?>
<!-- Generator: Adobe Illustrator 17.1.0, SVG Export Plug-In . SVG Version: 6.00 Build 0)  -->
<!DOCTYPE svg PUBLIC "-//W3C//DTD SVG 1.1//EN" "http://www.w3.org/Graphics/SVG/1.1/DTD/svg11.dtd">
<svg version="1.1" id="Layer_1" xmlns="http://www.w3.org/2000/svg" xmlns:xlink="http://www.w3.org/1999/xlink" x="0px" y="0px"
	 viewBox="0 0 18 18" enable-background="new 0 0 18 18" xml:space="preserve">
<path fill="#780050" d="M3.6,7.8c1.4,2.8,3.8,5.1,6.6,6.6l2.2-2.2c0.3-0.3,0.7-0.4,1-0.3c1.1,0.4,2.3,0.6,3.6,0.6c0.6,0,1,0.4,1,1
	V17c0,0.6-0.4,1-1,1C7.6,18,0,10.4,0,1c0-0.6,0.4-1,1-1h3.5c0.6,0,1,0.4,1,1c0,1.3,0.2,2.4,0.6,3.6c0.1,0.3,0,0.7-0.3,1L3.6,7.8z"/>
</svg>
