<?xml version="1.0" encoding="utf-8"?>
<!-- Generator: Adobe Illustrator 19.1.1, SVG Export Plug-In . SVG Version: 6.00 Build 0)  -->
<svg version="1.1" id="Слой_1" xmlns="http://www.w3.org/2000/svg" xmlns:xlink="http://www.w3.org/1999/xlink" x="0px" y="0px"
	 viewBox="0 0 57 57" style="enable-background:new 0 0 57 57;" xml:space="preserve">
<style type="text/css">
	.st0{fill:#5791CD;}
</style>
<path class="st0" d="M28.5,9.9c-10.3,0-18.6,8.3-18.6,18.6c0,1.4,0.2,2.7,0.4,4c1.3,0.6,3.1,1.1,5.2,1.1c4.7-0.2,7.5-3.2,8-3.8
	c0,0,0.1-0.1,0.1-0.1c0-0.1,0-0.1-0.1-0.1l-7-4.7c-0.1-0.1-0.1-0.2,0-0.3c0.3-0.2,0.7-0.5,1.2-0.8c0.8-0.3,1.6-0.3,1.9-0.3
	c0,0,0,0,0,0c2.8,0.7,5.6,1.5,8.4,2.2c0.1,0,0.1,0,0.2-0.1c1.2-1.6,3.8-4.2,7.7-5.4c0.8-0.2,1.6-0.4,2.4-0.5c0.1,0,0.2,0.1,0.2,0.2
	c-0.3,0.9-0.8,1.9-1.4,3c-1.9,3.2-4.3,5.3-6,6.4c-0.1,0-0.1,0.1-0.1,0.2c0.3,2.9,0.5,5.8,0.8,8.7c0,0,0,0,0,0
	c-0.1,0.3-0.2,0.7-0.4,1.2c-0.3,0.5-0.7,0.9-1,1.1c-0.1,0.1-0.2,0-0.3-0.1c-1.2-2.5-2.3-4.9-3.5-7.4c-0.1-0.1-0.2-0.1-0.3-0.1
	c-0.8,0.4-4.4,2.3-5.9,6.7c-0.7,1.9-0.7,3.7-0.6,5.1c2.6,1.3,5.5,2.1,8.6,2.1c10.3,0,18.6-8.3,18.6-18.6S38.8,9.9,28.5,9.9z"/>
</svg>
