<?xml version="1.0" encoding="utf-8"?>
<!-- Generator: Adobe Illustrator 17.1.0, SVG Export Plug-In . SVG Version: 6.00 Build 0)  -->
<!DOCTYPE svg PUBLIC "-//W3C//DTD SVG 1.1//EN" "http://www.w3.org/Graphics/SVG/1.1/DTD/svg11.dtd">
<svg version="1.1" id="Layer_1" xmlns="http://www.w3.org/2000/svg" xmlns:xlink="http://www.w3.org/1999/xlink" x="0px" y="0px"
	 viewBox="0 0 172.9 173.3" enable-background="new 0 0 172.9 173.3" xml:space="preserve">
<g>
	<path fill="#0092AA" d="M153.5,39c5.1,0,9.8-1.9,13.7-5.6c3.7-3.7,5.6-8.3,5.6-13.9c0-5.1-1.9-9.8-5.6-13.9
		C163.6,1.9,159,0,153.5,0c-5.1,0-9.8,1.9-13.7,5.6c-7.1,7.1-7.6,18.2-1.4,26L98.4,71.4c-3.6-2.7-7.8-4.2-12-4.2s-8.5,1.5-12,4.2
		L34.6,31.6c6.1-7.8,5.4-18.7-1.4-26C29.5,1.9,24.9,0,19.5,0C14.4,0,9.6,1.9,5.7,5.6C2,9.3,0.1,13.9,0.1,19.5
		c0,5.1,1.9,9.8,5.6,13.9C9.5,37.2,14,39,19.5,39c4.2,0,8.5-1.5,12-4.2l39.7,39.9c-2.7,3.6-4.2,7.8-4.2,12s1.5,8.5,4.2,12
		l-39.7,39.9c-3.6-2.7-7.8-4.2-12-4.2c-5.1,0-9.8,1.9-13.7,5.6c-7.6,7.6-7.6,20,0,27.7c3.7,3.7,8.3,5.6,13.7,5.6
		c5.1,0,9.8-1.9,13.7-5.6c7.1-7.1,7.6-18.2,1.4-26L74.3,102c3.6,2.7,7.8,4.2,12,4.2s8.3-1.2,11.5-3.7l39.7,39.9
		c-5.8,7.6-4.9,18.5,1.9,25.3c3.7,3.7,8.3,5.6,13.7,5.6c5.1,0,9.8-1.9,13.7-5.6c7.6-7.6,7.6-20,0-27.7c-3.9-3.7-8.7-5.6-13.7-5.6
		c-4.8,0-9.3,1.7-12.6,4.8l-39.4-39.9c3.1-3.6,4.8-8.1,4.8-12.7c0-4.2-1.5-8.5-4.2-12l39.7-39.9C145.1,37.5,149.3,39,153.5,39z
		 M142.7,143.4c2.7-2.7,6.4-4.2,10.7-4.2c3.9,0,7.6,1.5,10.7,4.2c5.9,5.9,5.9,15.1,0,21c-2.7,2.7-6.4,4.2-10.7,4.2
		c-3.9,0-7.6-1.5-10.7-4.2C136.7,158.5,136.7,149.2,142.7,143.4z M168.1,19.9c0,3.9-1.5,7.6-4.2,10.7c-2.7,2.7-6.4,4.2-10.7,4.2
		c-3.9,0-7.6-1.5-10.7-4.2c-5.6-6.1-5.6-15.8,0-21.4c2.7-2.7,6.4-4.2,10.7-4.2c3.9,0,7.6,1.5,10.7,4.2
		C166.8,11.9,168.1,15.6,168.1,19.9z M30,164.5c-2.7,2.7-6.4,4.2-10.7,4.2c-3.9,0-7.6-1.5-10.7-4.2c-5.9-5.9-5.9-15.1,0-21
		c2.7-2.7,6.4-4.2,10.7-4.2c3.9,0,7.6,1.5,10.7,4.2C35.6,149.2,35.6,158.5,30,164.5z M30,30.2c-2.7,2.7-6.4,4.2-10.7,4.2
		c-3.9,0-7.6-1.5-10.7-4.2c-2.7-2.7-4.2-6.4-4.2-10.7c0-3.9,1.5-7.6,4.2-10.7c2.7-2.7,6.4-4.2,10.7-4.2c3.9,0,7.6,1.5,10.7,4.2
		C35.6,14.8,35.6,24.3,30,30.2z"/>
</g>
</svg>
