<?xml version="1.0" encoding="utf-8"?>
<!-- Generator: Adobe Illustrator 23.0.3, SVG Export Plug-In . SVG Version: 6.00 Build 0)  -->
<svg version="1.1" id="Layer_1" xmlns="http://www.w3.org/2000/svg" xmlns:xlink="http://www.w3.org/1999/xlink" x="0px" y="0px"
	 viewBox="0 0 200 200" style="enable-background:new 0 0 200 200;" xml:space="preserve">
<style type="text/css">
	.st0{fill:#0092AA;}
</style>
<g>
	<path class="st0" d="M167.1,65.6c5.1,0,9.8-1.9,13.7-5.6c3.7-3.7,5.6-8.3,5.6-13.9c0-5.1-1.9-9.8-5.6-13.9
		c-3.6-3.7-8.2-5.6-13.7-5.6c-5.1,0-9.8,1.9-13.7,5.6c-7.1,7.1-7.6,18.2-1.4,26L112,98c-3.6-2.7-7.8-4.2-12-4.2s-8.5,1.5-12,4.2
		L48.2,58.2c6.1-7.8,5.4-18.7-1.4-26c-3.7-3.7-8.3-5.6-13.7-5.6c-5.1,0-9.9,1.9-13.8,5.6c-3.7,3.7-5.6,8.3-5.6,13.9
		c0,5.1,1.9,9.8,5.6,13.9c3.8,3.8,8.3,5.6,13.8,5.6c4.2,0,8.5-1.5,12-4.2l39.7,39.9c-2.7,3.6-4.2,7.8-4.2,12s1.5,8.5,4.2,12
		l-39.8,40c-3.6-2.7-7.8-4.2-12-4.2c-5.1,0-9.8,1.9-13.7,5.6c-7.6,7.6-7.6,20,0,27.7c3.7,3.7,8.3,5.6,13.7,5.6
		c5.1,0,9.8-1.9,13.7-5.6c7.1-7.1,7.6-18.2,1.4-26l39.7-39.7c3.6,2.7,7.8,4.2,12,4.2s8.3-1.2,11.5-3.7l39.7,39.9
		c-5.8,7.6-4.9,18.5,1.9,25.3c3.7,3.7,8.3,5.6,13.7,5.6c5.1,0,9.8-1.9,13.7-5.6c7.6-7.6,7.6-20,0-27.7c-3.9-3.7-8.7-5.6-13.7-5.6
		c-4.8,0-9.3,1.7-12.6,4.8L114.6,126c3.1-3.6,4.8-8.1,4.8-12.7c0-4.2-1.5-8.5-4.2-12l39.7-40C158.7,64.1,162.9,65.6,167.1,65.6z
		 M156.3,170.1c2.7-2.7,6.4-4.2,10.7-4.2c3.9,0,7.6,1.5,10.7,4.2c5.9,5.9,5.9,15.1,0,21c-2.7,2.7-6.4,4.2-10.7,4.2
		c-3.9,0-7.6-1.5-10.7-4.2C150.3,185.2,150.3,175.8,156.3,170.1z M181.7,46.6c0,3.9-1.5,7.6-4.2,10.7c-2.7,2.7-6.4,4.2-10.7,4.2
		c-3.9,0-7.6-1.5-10.7-4.2c-5.6-6.1-5.6-15.8,0-21.4c2.7-2.7,6.4-4.2,10.7-4.2c3.9,0,7.6,1.5,10.7,4.2
		C180.4,38.5,181.7,42.2,181.7,46.6z M43.6,191.2c-2.7,2.7-6.4,4.2-10.7,4.2c-3.9,0-7.6-1.5-10.7-4.2c-5.9-5.9-5.9-15.1,0-21
		c2.7-2.7,6.4-4.2,10.7-4.2c3.9,0,7.6,1.5,10.7,4.2C49.2,175.8,49.2,185.2,43.6,191.2z M43.6,56.8c-2.7,2.7-6.4,4.2-10.7,4.2
		c-3.9,0-7.6-1.5-10.7-4.2c-2.7-2.7-4.2-6.4-4.2-10.7c0-3.9,1.5-7.6,4.2-10.7c2.7-2.7,6.4-4.2,10.7-4.2c3.9,0,7.6,1.5,10.7,4.2
		C49.2,41.4,49.2,50.9,43.6,56.8z"/>
</g>
</svg>
