<?xml version="1.0" encoding="utf-8"?>
<!-- Generator: Adobe Illustrator 23.0.3, SVG Export Plug-In . SVG Version: 6.00 Build 0)  -->
<svg version="1.1" id="Layer_1" xmlns="http://www.w3.org/2000/svg" xmlns:xlink="http://www.w3.org/1999/xlink" x="0px" y="0px"
	 viewBox="0 0 200 200" style="enable-background:new 0 0 200 200;" xml:space="preserve">
<style type="text/css">
	.st0{fill:#0092AA;}
</style>
<g>
	<path class="st0" d="M101,78.2c-17.5,0-31.8,14.2-31.8,31.7s14.2,31.7,31.7,31.7s31.7-14.2,31.7-31.7S118.5,78.2,101,78.2z
		 M128.5,109.9c0,15.2-12.3,27.5-27.5,27.5s-27.5-12.3-27.5-27.5S85.8,82.4,101,82.4S128.5,94.8,128.5,109.9z"/>
	<path class="st0" d="M188,100.6c-0.6-0.8-1.5-1.3-2.6-1.4l-8.9-0.8c-0.8-5.7-2.3-11.4-4.6-17l3.3-2.3c0.7-0.5,1.4-1,2.1-1.5
		c0.7-0.5,1.5-1,2.1-1.5c1.8-1.4,2.4-3.7,1.5-5.4l-6.3-11c-0.6-1.1-2-1.9-3.4-1.9c-0.7,0-1.4,0.2-2,0.5l-8.3,3.9
		c-3.7-4.7-8-8.9-12.6-12.4l3.7-8.3c1-2.1,0.4-4.4-1.4-5.4l-11-6.3c-0.5-0.3-1.1-0.4-1.7-0.4c-1.4,0-2.9,0.8-3.7,1.9l-5.2,7.5
		c-5.4-2.2-11.1-3.7-17.2-4.6l-0.5-5c-0.1-1.1-0.2-2.2-0.3-3.5c-0.2-2.1-1.8-3.5-3.9-3.5H94.3c-2.1,0-3.7,1.4-3.9,3.5l-0.8,8.4
		c-6.2,0.9-12,2.3-17.3,4.4l-2-3.1c-0.5-0.7-1-1.4-1.5-2.1c-0.5-0.7-1-1.4-1.5-2.1c-0.7-1.1-2.1-1.8-3.5-1.8c-0.7,0-1.3,0.2-1.9,0.5
		L51,36.2c-1.7,0.9-2.4,3.2-1.6,5.4l3.6,7.8c-4.7,3.8-9,8.1-12.8,12.8l-7.8-3.6c-0.6-0.3-1.2-0.4-1.8-0.4c-1.5,0-2.9,0.8-3.6,2
		l-6.2,11c-1,1.7-0.4,4.1,1.3,5.4l6.8,4.9C26.6,87.2,25,93.1,24.1,99c-0.5,0.1-1,0.1-1.5,0.1c-0.6,0-1.3,0.1-1.9,0.2l-5.3,0.5
		c-2,0.2-4.2,1.8-4.2,3.9v12.7c0,2.2,2.3,3.7,4.4,3.9l5.1,0.5l3.5,0.3c0.8,5.7,2.4,11.6,4.7,17.5c-0.9,0.6-1.8,1.2-2.7,2
		c-0.7,0.5-1.3,1-2,1.4c-0.7,0.5-1.4,0.9-2.1,1.5c-1.7,1.3-2.3,3.7-1.3,5.4l6.3,11c0.7,1.2,2,1.9,3.6,1.9c0.6,0,1.2-0.1,1.8-0.3
		l7.6-3.4c3.9,4.9,8.1,9.1,12.9,12.8l-3.4,7.6c-0.9,1.9-0.2,4.4,1.6,5.4l11,6.3c0.6,0.3,1.2,0.5,1.9,0.5c1.3,0,2.7-0.7,3.6-1.8
		l4.9-6.8c5.3,2.2,11.2,3.7,17.5,4.6c0.1,0.5,0.1,1,0.1,1.5c0,0.7,0.1,1.4,0.2,1.9v0.2c0.2,1.9,0.3,3.6,0.5,5.3
		c0.2,1.8,1.6,4.4,3.9,4.4h12.4c2.2,0,3.7-2.2,3.9-4.4l0.8-9.1c5.9-0.9,11.7-2.5,17.3-4.9l2.2,3.1c1,1.3,2,2.7,2.8,4
		c0.7,1.1,2.1,1.8,3.5,1.8c0.7,0,1.3-0.2,1.9-0.5l11-6.3c1.7-1,2.4-3.4,1.4-5.4l-3.7-8.1c4.3-3.5,8.5-7.6,12.6-12.6l8.1,3.7
		c0.6,0.3,1.2,0.4,1.9,0.4l0,0c1.5,0,2.9-0.7,3.6-1.8l6.3-11c1-1.8,0.3-4.1-1.5-5.4l-7.3-5.2c2.3-6,3.8-11.7,4.6-17.2
		c1.2-0.1,2.4-0.3,3.5-0.3l1.4-0.2c0.6-0.1,1.2-0.1,1.8-0.2c0.6,0,1.3-0.1,1.9-0.2c2-0.2,3.5-1.8,3.5-3.9v-12.7
		C188.9,102.6,188.6,101.4,188,100.6z M172.6,118.4c-0.8,6.7-2.5,13.1-5,19.4c-0.5,0.9,0,2,0.7,2.7l8.9,6.3l0,0l-6.1,10.5H171
		l-9.7-4.4c-0.9-0.4-2-0.2-2.7,0.7c-4,5.3-8.6,10-14.2,14.3c-0.9,0.6-1.1,1.7-0.7,2.6l4.4,9.7c0,0.1,0,0.1,0,0.1l-10.4,6l-0.1-0.1
		c-1-1.3-2-2.7-2.9-4c0,0,0-0.1-0.1-0.1l-0.1-0.1c-1-1.3-2-2.7-3.1-4.2c-0.4-0.6-1-0.9-1.7-0.9c-0.3,0-0.6,0.1-0.9,0.2
		c-6.5,2.7-13,4.6-19.4,5.4c-1.1,0.3-1.7,1.1-1.7,2l-1,10.7c0,0.1-0.1,0.3-0.2,0.5c0,0,0,0,0,0.1H94.9c-0.1-0.1-0.1-0.3-0.1-0.6
		c-0.2-1.3-0.3-2.7-0.3-4.2l-0.3-3.1c-0.1-1.2-0.2-2.3-0.3-3.3c0-1-0.9-1.8-1.8-2c-7-0.9-13.5-2.6-19.5-5.2
		c-0.8-0.4-1.9-0.2-2.7,0.7l-5.7,8.1l-0.1,0.1l-10.6-6l4.2-9.1c0.5-0.9,0.2-2-0.7-2.7c-5.3-4-10.2-8.8-14.5-14.4
		c-0.7-0.7-1.9-1-2.6-0.6l-9.1,4.2h-0.1l-6-10.6h0.1c0.7-0.5,1.3-1,2-1.4c0.7-0.5,1.4-0.9,2.1-1.5c0.7-0.5,1.4-1,2-1.4
		c0.7-0.5,1.4-0.9,2-1.5c0.9-0.7,1.1-1.6,0.7-2.6c-2.7-6.4-4.6-13.2-5.4-19.8c-0.3-1.1-1.1-1.7-2-1.7l0,0l-10.2-1
		c-0.1,0-0.2-0.1-0.3-0.1l0,0v-12.2c0.1-0.1,0.2-0.1,0.4-0.1c1.7-0.2,3.4-0.3,5.3-0.5c0.8-0.1,1.7-0.2,2.6-0.3
		c0.9-0.1,1.8-0.2,2.6-0.3c1,0,1.8-0.9,2-1.8c0.9-7,2.6-13.5,5.2-19.5c0.5-0.9,0-2-0.7-2.7l-8.3-5.9l-0.1-0.1l6-10.4l9.3,4.2
		c0.9,0.4,2,0.2,2.7-0.7c4-5.4,9-10.3,14.3-14.3c0.9-0.6,1.1-1.7,0.7-2.6l-4.2-9.3l10.4-6l0.1,0.1l2,2.8l1.1,1.5
		c0.5,0.7,1,1.4,1.5,2.1s1,1.4,1.5,2.1c0.4,0.6,1,0.9,1.7,0.9c0.3,0,0.6-0.1,0.9-0.2c5.8-2.5,12.3-4.2,19.4-5.1c1.1-0.2,1.8-1,1.8-2
		l1-9.7h12.2l0.5,4.7l0.2,1.4c0.2,1.2,0.3,2.3,0.3,3.5c0,1,0.7,1.7,1.8,2c6.9,0.9,13.2,2.6,19.4,5.2c0.8,0.4,1.9,0.2,2.7-0.7
		l6.2-8.8l0.1-0.1l10.5,6v0.1l-4.6,9.8c-0.5,0.9-0.2,2,0.7,2.7c5.4,4,10.1,8.8,14.2,14.2c0.7,0.7,1.9,1,2.6,0.6l9.5-4.5h0.1l6,10.4
		l-0.1,0.1c-0.8,0.5-1.5,1.1-2.3,1.6c-0.8,0.6-1.5,1.1-2.3,1.6l-1.1,0.7c-0.5,0.4-1,0.8-1.6,1.2s-1.1,0.8-1.6,1.2
		c-0.9,0.7-1.1,1.6-0.7,2.6c2.5,5.9,4.2,12.3,5.1,19.3c0.3,1.1,1.1,1.7,2,1.7l0,0l10.4,1l-0.5,12l-4.8,0.5c-1.7,0.2-3.4,0.3-5.2,0.5
		C173.6,116.6,172.8,117.5,172.6,118.4z"/>
	<path class="st0" d="M101,42.1c-37.4,0-67.9,30.4-67.9,67.9s30.4,67.9,67.9,67.9s67.9-30.4,67.9-67.9S138.4,42.1,101,42.1z
		 M164.6,109.9c0,35.1-28.6,63.7-63.7,63.7S37.2,145,37.2,109.9s28.6-63.7,63.7-63.7C136.1,46.3,164.6,74.8,164.6,109.9z"/>
</g>
</svg>
